<?xml version="1.0" encoding="utf-8" standalone="no"?>
<!DOCTYPE svg PUBLIC "-//W3C//DTD SVG 1.1//EN"
  "http://www.w3.org/Graphics/SVG/1.1/DTD/svg11.dtd">
<svg height="688.824085pt" version="1.1" viewBox="0 0 972.153857 688.824085" width="972.153857pt" xmlns="http://www.w3.org/2000/svg" xmlns:xlink="http://www.w3.org/1999/xlink">
 <metadata>
  <rdf:RDF xmlns:cc="http://creativecommons.org/ns#" xmlns:dc="http://purl.org/dc/elements/1.1/" xmlns:rdf="http://www.w3.org/1999/02/22-rdf-syntax-ns#">
   <cc:Work>
    <dc:type rdf:resource="http://purl.org/dc/dcmitype/StillImage"/>
    <dc:date>2021-12-02T17:00:44.103774</dc:date>
    <dc:format>image/svg+xml</dc:format>
    <dc:creator>
     <cc:Agent>
      <dc:title>Matplotlib v3.4.2, https://matplotlib.org/</dc:title>
     </cc:Agent>
    </dc:creator>
   </cc:Work>
  </rdf:RDF>
 </metadata>
 <defs>
  <style type="text/css">*{stroke-linecap:butt;stroke-linejoin:round;}</style>
 </defs>
 <g id="figure_1">
  <g id="patch_1">
   <path d="M 0 688.824085 
L 972.153857 688.824085 
L 972.153857 0 
L 0 0 
z
" style="fill:#ffffff;"/>
  </g>
  <g id="axes_1">
   <g id="patch_2">
    <path d="M 127.953857 481.69 
L 964.953857 481.69 
L 964.953857 38.17 
L 127.953857 38.17 
z
" style="fill:#ffffff;"/>
   </g>
   <g id="patch_3">
    <path clip-path="url(#p437807685e)" d="M 165.999312 481.69 
L 222.362948 481.69 
L 222.362948 431.239747 
L 165.999312 431.239747 
z
" style="fill:#1f77b4;opacity:0.5;"/>
   </g>
   <g id="patch_4">
    <path clip-path="url(#p437807685e)" d="M 236.453857 481.69 
L 292.817494 481.69 
L 292.817494 428.514949 
L 236.453857 428.514949 
z
" style="fill:#1f77b4;opacity:0.5;"/>
   </g>
   <g id="patch_5">
    <path clip-path="url(#p437807685e)" d="M 306.908403 481.69 
L 363.272039 481.69 
L 363.272039 412.900273 
L 306.908403 412.900273 
z
" style="fill:#1f77b4;opacity:0.5;"/>
   </g>
   <g id="patch_6">
    <path clip-path="url(#p437807685e)" d="M 377.362948 481.69 
L 433.726585 481.69 
L 433.726585 410.370172 
L 377.362948 410.370172 
z
" style="fill:#1f77b4;opacity:0.5;"/>
   </g>
   <g id="patch_7">
    <path clip-path="url(#p437807685e)" d="M 447.817494 481.69 
L 504.18113 481.69 
L 504.18113 409.194651 
L 447.817494 409.194651 
z
" style="fill:#1f77b4;opacity:0.5;"/>
   </g>
   <g id="patch_8">
    <path clip-path="url(#p437807685e)" d="M 518.272039 481.69 
L 574.635675 481.69 
L 574.635675 408.365384 
L 518.272039 408.365384 
z
" style="fill:#1f77b4;opacity:0.5;"/>
   </g>
   <g id="patch_9">
    <path clip-path="url(#p437807685e)" d="M 588.726585 481.69 
L 645.090221 481.69 
L 645.090221 366.722324 
L 588.726585 366.722324 
z
" style="fill:#1f77b4;opacity:0.5;"/>
   </g>
   <g id="patch_10">
    <path clip-path="url(#p437807685e)" d="M 659.18113 481.69 
L 715.544766 481.69 
L 715.544766 365.528938 
L 659.18113 365.528938 
z
" style="fill:#1f77b4;opacity:0.5;"/>
   </g>
   <g id="patch_11">
    <path clip-path="url(#p437807685e)" d="M 729.635675 481.69 
L 785.999312 481.69 
L 785.999312 355.911439 
L 729.635675 355.911439 
z
" style="fill:#1f77b4;opacity:0.5;"/>
   </g>
   <g id="patch_12">
    <path clip-path="url(#p437807685e)" d="M 800.090221 481.69 
L 856.453857 481.69 
L 856.453857 352.387997 
L 800.090221 352.387997 
z
" style="fill:#1f77b4;opacity:0.5;"/>
   </g>
   <g id="patch_13">
    <path clip-path="url(#p437807685e)" d="M 870.544766 481.69 
L 926.908403 481.69 
L 926.908403 212.607233 
L 870.544766 212.607233 
z
" style="fill:#1f77b4;opacity:0.5;"/>
   </g>
   <g id="matplotlib.axis_1">
    <g id="xtick_1">
     <g id="line2d_1">
      <defs>
       <path d="M 0 0 
L 0 3.5 
" id="maa23048ae2" style="stroke:#000000;stroke-width:0.8;"/>
      </defs>
      <g>
       <use style="stroke:#000000;stroke-width:0.8;" x="194.18113" xlink:href="#maa23048ae2" y="481.69"/>
      </g>
     </g>
     <g id="text_1">
      <!-- gru_unstacked_iterative -->
      <g transform="translate(17.945813 672.33668)rotate(-45)scale(0.2 -0.2)">
       <defs>
        <path d="M 3359 2988 
L 3359 72 
Q 3359 -644 2965 -1033 
Q 2572 -1422 1844 -1422 
Q 1516 -1422 1216 -1362 
Q 916 -1303 641 -1184 
L 641 -488 
L 941 -488 
Q 997 -813 1206 -963 
Q 1416 -1113 1806 -1113 
Q 2313 -1113 2548 -827 
Q 2784 -541 2784 72 
L 2784 519 
Q 2616 206 2355 57 
Q 2094 -91 1709 -91 
Q 1097 -91 708 395 
Q 319 881 319 1663 
Q 319 2444 706 2928 
Q 1094 3413 1709 3413 
Q 2094 3413 2355 3264 
Q 2616 3116 2784 2803 
L 2784 3322 
L 3909 3322 
L 3909 2988 
L 3359 2988 
z
M 2784 1825 
Q 2784 2422 2554 2737 
Q 2325 3053 1888 3053 
Q 1444 3053 1217 2703 
Q 991 2353 991 1663 
Q 991 975 1217 622 
Q 1444 269 1888 269 
Q 2325 269 2554 583 
Q 2784 897 2784 1497 
L 2784 1825 
z
" id="DejaVuSerif-67" transform="scale(0.015625)"/>
        <path d="M 3059 3328 
L 3059 2497 
L 2728 2497 
Q 2713 2744 2591 2866 
Q 2469 2988 2234 2988 
Q 1809 2988 1582 2694 
Q 1356 2400 1356 1850 
L 1356 331 
L 2022 331 
L 2022 0 
L 263 0 
L 263 331 
L 781 331 
L 781 2994 
L 231 2994 
L 231 3322 
L 1356 3322 
L 1356 2731 
Q 1525 3078 1790 3245 
Q 2056 3413 2438 3413 
Q 2578 3413 2733 3391 
Q 2888 3369 3059 3328 
z
" id="DejaVuSerif-72" transform="scale(0.015625)"/>
        <path d="M 2266 3322 
L 3341 3322 
L 3341 331 
L 3884 331 
L 3884 0 
L 2766 0 
L 2766 588 
Q 2606 256 2353 82 
Q 2100 -91 1766 -91 
Q 1213 -91 952 223 
Q 691 538 691 1209 
L 691 2988 
L 172 2988 
L 172 3322 
L 1269 3322 
L 1269 1388 
Q 1269 781 1417 556 
Q 1566 331 1947 331 
Q 2347 331 2556 625 
Q 2766 919 2766 1478 
L 2766 2988 
L 2266 2988 
L 2266 3322 
z
" id="DejaVuSerif-75" transform="scale(0.015625)"/>
        <path d="M 3200 -1259 
L 3200 -1509 
L 0 -1509 
L 0 -1259 
L 3200 -1259 
z
" id="DejaVuSerif-5f" transform="scale(0.015625)"/>
        <path d="M 263 0 
L 263 331 
L 781 331 
L 781 2988 
L 231 2988 
L 231 3322 
L 1356 3322 
L 1356 2731 
Q 1516 3069 1770 3241 
Q 2025 3413 2363 3413 
Q 2913 3413 3172 3097 
Q 3431 2781 3431 2113 
L 3431 331 
L 3944 331 
L 3944 0 
L 2356 0 
L 2356 331 
L 2853 331 
L 2853 1931 
Q 2853 2541 2703 2767 
Q 2553 2994 2175 2994 
Q 1775 2994 1565 2701 
Q 1356 2409 1356 1850 
L 1356 331 
L 1856 331 
L 1856 0 
L 263 0 
z
" id="DejaVuSerif-6e" transform="scale(0.015625)"/>
        <path d="M 359 184 
L 359 959 
L 691 959 
Q 703 588 923 403 
Q 1144 219 1575 219 
Q 1963 219 2166 364 
Q 2369 509 2369 788 
Q 2369 1006 2220 1140 
Q 2072 1275 1594 1428 
L 1178 1569 
Q 750 1706 558 1912 
Q 366 2119 366 2438 
Q 366 2894 700 3153 
Q 1034 3413 1625 3413 
Q 1888 3413 2178 3344 
Q 2469 3275 2778 3144 
L 2778 2419 
L 2447 2419 
Q 2434 2741 2221 2922 
Q 2009 3103 1644 3103 
Q 1281 3103 1095 2975 
Q 909 2847 909 2591 
Q 909 2381 1050 2254 
Q 1191 2128 1613 1997 
L 2069 1856 
Q 2541 1709 2748 1489 
Q 2956 1269 2956 922 
Q 2956 450 2595 179 
Q 2234 -91 1600 -91 
Q 1278 -91 972 -22 
Q 666 47 359 184 
z
" id="DejaVuSerif-73" transform="scale(0.015625)"/>
        <path d="M 691 2988 
L 184 2988 
L 184 3322 
L 691 3322 
L 691 4353 
L 1269 4353 
L 1269 3322 
L 2350 3322 
L 2350 2988 
L 1269 2988 
L 1269 878 
Q 1269 456 1350 337 
Q 1431 219 1650 219 
Q 1875 219 1978 351 
Q 2081 484 2088 781 
L 2522 781 
Q 2497 328 2275 118 
Q 2053 -91 1600 -91 
Q 1103 -91 897 129 
Q 691 350 691 878 
L 691 2988 
z
" id="DejaVuSerif-74" transform="scale(0.015625)"/>
        <path d="M 2547 1044 
L 2547 1747 
L 1806 1747 
Q 1378 1747 1168 1562 
Q 959 1378 959 997 
Q 959 650 1171 447 
Q 1384 244 1747 244 
Q 2106 244 2326 466 
Q 2547 688 2547 1044 
z
M 3122 2075 
L 3122 331 
L 3634 331 
L 3634 0 
L 2547 0 
L 2547 359 
Q 2356 128 2106 18 
Q 1856 -91 1522 -91 
Q 969 -91 644 203 
Q 319 497 319 997 
Q 319 1513 691 1797 
Q 1063 2081 1741 2081 
L 2547 2081 
L 2547 2309 
Q 2547 2688 2317 2895 
Q 2088 3103 1672 3103 
Q 1328 3103 1125 2947 
Q 922 2791 872 2484 
L 575 2484 
L 575 3156 
Q 875 3284 1158 3348 
Q 1441 3413 1709 3413 
Q 2400 3413 2761 3070 
Q 3122 2728 3122 2075 
z
" id="DejaVuSerif-61" transform="scale(0.015625)"/>
        <path d="M 3291 997 
Q 3169 466 2822 187 
Q 2475 -91 1925 -91 
Q 1200 -91 759 389 
Q 319 869 319 1663 
Q 319 2459 759 2936 
Q 1200 3413 1925 3413 
Q 2241 3413 2553 3339 
Q 2866 3266 3181 3116 
L 3181 2266 
L 2847 2266 
Q 2781 2703 2561 2903 
Q 2341 3103 1931 3103 
Q 1466 3103 1228 2742 
Q 991 2381 991 1663 
Q 991 944 1227 581 
Q 1463 219 1931 219 
Q 2303 219 2525 412 
Q 2747 606 2828 997 
L 3291 997 
z
" id="DejaVuSerif-63" transform="scale(0.015625)"/>
        <path d="M 1831 0 
L 219 0 
L 219 331 
L 738 331 
L 738 4531 
L 184 4531 
L 184 4863 
L 1313 4863 
L 1313 1697 
L 2713 2988 
L 2234 2988 
L 2234 3322 
L 3738 3322 
L 3738 2988 
L 3169 2988 
L 2181 2075 
L 3444 331 
L 3922 331 
L 3922 0 
L 2284 0 
L 2284 331 
L 2759 331 
L 1766 1697 
L 1313 1275 
L 1313 331 
L 1831 331 
L 1831 0 
z
" id="DejaVuSerif-6b" transform="scale(0.015625)"/>
        <path d="M 3469 1600 
L 991 1600 
L 991 1575 
Q 991 903 1244 561 
Q 1497 219 1991 219 
Q 2369 219 2611 417 
Q 2853 616 2950 1006 
L 3413 1006 
Q 3275 459 2904 184 
Q 2534 -91 1931 -91 
Q 1203 -91 761 389 
Q 319 869 319 1663 
Q 319 2450 753 2931 
Q 1188 3413 1894 3413 
Q 2647 3413 3050 2948 
Q 3453 2484 3469 1600 
z
M 2791 1931 
Q 2772 2513 2545 2808 
Q 2319 3103 1894 3103 
Q 1497 3103 1269 2806 
Q 1041 2509 991 1931 
L 2791 1931 
z
" id="DejaVuSerif-65" transform="scale(0.015625)"/>
        <path d="M 3359 331 
L 3909 331 
L 3909 0 
L 2784 0 
L 2784 519 
Q 2616 206 2355 57 
Q 2094 -91 1709 -91 
Q 1097 -91 708 395 
Q 319 881 319 1663 
Q 319 2444 706 2928 
Q 1094 3413 1709 3413 
Q 2094 3413 2355 3264 
Q 2616 3116 2784 2803 
L 2784 4531 
L 2241 4531 
L 2241 4863 
L 3359 4863 
L 3359 331 
z
M 2784 1497 
L 2784 1825 
Q 2784 2422 2554 2737 
Q 2325 3053 1888 3053 
Q 1444 3053 1217 2703 
Q 991 2353 991 1663 
Q 991 975 1217 622 
Q 1444 269 1888 269 
Q 2325 269 2554 583 
Q 2784 897 2784 1497 
z
" id="DejaVuSerif-64" transform="scale(0.015625)"/>
        <path d="M 622 4353 
Q 622 4497 726 4603 
Q 831 4709 978 4709 
Q 1122 4709 1226 4603 
Q 1331 4497 1331 4353 
Q 1331 4206 1228 4103 
Q 1125 4000 978 4000 
Q 831 4000 726 4103 
Q 622 4206 622 4353 
z
M 1356 331 
L 1900 331 
L 1900 0 
L 231 0 
L 231 331 
L 781 331 
L 781 2988 
L 231 2988 
L 231 3322 
L 1356 3322 
L 1356 331 
z
" id="DejaVuSerif-69" transform="scale(0.015625)"/>
        <path d="M 1581 0 
L 359 2988 
L -19 2988 
L -19 3322 
L 1509 3322 
L 1509 2988 
L 978 2988 
L 1913 703 
L 2847 2988 
L 2350 2988 
L 2350 3322 
L 3597 3322 
L 3597 2988 
L 3225 2988 
L 2003 0 
L 1581 0 
z
" id="DejaVuSerif-76" transform="scale(0.015625)"/>
       </defs>
       <use xlink:href="#DejaVuSerif-67"/>
       <use x="64.013672" xlink:href="#DejaVuSerif-72"/>
       <use x="111.816406" xlink:href="#DejaVuSerif-75"/>
       <use x="176.220703" xlink:href="#DejaVuSerif-5f"/>
       <use x="226.220703" xlink:href="#DejaVuSerif-75"/>
       <use x="290.625" xlink:href="#DejaVuSerif-6e"/>
       <use x="355.029297" xlink:href="#DejaVuSerif-73"/>
       <use x="406.347656" xlink:href="#DejaVuSerif-74"/>
       <use x="446.533203" xlink:href="#DejaVuSerif-61"/>
       <use x="506.152344" xlink:href="#DejaVuSerif-63"/>
       <use x="562.158203" xlink:href="#DejaVuSerif-6b"/>
       <use x="622.753906" xlink:href="#DejaVuSerif-65"/>
       <use x="681.933594" xlink:href="#DejaVuSerif-64"/>
       <use x="745.947266" xlink:href="#DejaVuSerif-5f"/>
       <use x="795.947266" xlink:href="#DejaVuSerif-69"/>
       <use x="827.929688" xlink:href="#DejaVuSerif-74"/>
       <use x="868.115234" xlink:href="#DejaVuSerif-65"/>
       <use x="927.294922" xlink:href="#DejaVuSerif-72"/>
       <use x="975.097656" xlink:href="#DejaVuSerif-61"/>
       <use x="1034.716797" xlink:href="#DejaVuSerif-74"/>
       <use x="1074.902344" xlink:href="#DejaVuSerif-69"/>
       <use x="1106.884766" xlink:href="#DejaVuSerif-76"/>
       <use x="1163.378906" xlink:href="#DejaVuSerif-65"/>
      </g>
     </g>
    </g>
    <g id="xtick_2">
     <g id="line2d_2">
      <g>
       <use style="stroke:#000000;stroke-width:0.8;" x="264.635675" xlink:href="#maa23048ae2" y="481.69"/>
      </g>
     </g>
     <g id="text_2">
      <!-- lstm_stacked_iterative -->
      <g transform="translate(100.664242 660.072796)rotate(-45)scale(0.2 -0.2)">
       <defs>
        <path d="M 1313 331 
L 1856 331 
L 1856 0 
L 184 0 
L 184 331 
L 738 331 
L 738 4531 
L 184 4531 
L 184 4863 
L 1313 4863 
L 1313 331 
z
" id="DejaVuSerif-6c" transform="scale(0.015625)"/>
        <path d="M 3316 2675 
Q 3481 3041 3739 3227 
Q 3997 3413 4341 3413 
Q 4863 3413 5119 3089 
Q 5375 2766 5375 2113 
L 5375 331 
L 5894 331 
L 5894 0 
L 4300 0 
L 4300 331 
L 4800 331 
L 4800 2047 
Q 4800 2556 4650 2772 
Q 4500 2988 4153 2988 
Q 3769 2988 3567 2697 
Q 3366 2406 3366 1850 
L 3366 331 
L 3866 331 
L 3866 0 
L 2291 0 
L 2291 331 
L 2791 331 
L 2791 2069 
Q 2791 2566 2641 2777 
Q 2491 2988 2144 2988 
Q 1759 2988 1557 2697 
Q 1356 2406 1356 1850 
L 1356 331 
L 1856 331 
L 1856 0 
L 263 0 
L 263 331 
L 781 331 
L 781 2994 
L 231 2994 
L 231 3322 
L 1356 3322 
L 1356 2731 
Q 1516 3063 1762 3238 
Q 2009 3413 2322 3413 
Q 2709 3413 2968 3220 
Q 3228 3028 3316 2675 
z
" id="DejaVuSerif-6d" transform="scale(0.015625)"/>
       </defs>
       <use xlink:href="#DejaVuSerif-6c"/>
       <use x="31.982422" xlink:href="#DejaVuSerif-73"/>
       <use x="83.300781" xlink:href="#DejaVuSerif-74"/>
       <use x="123.486328" xlink:href="#DejaVuSerif-6d"/>
       <use x="218.310547" xlink:href="#DejaVuSerif-5f"/>
       <use x="268.310547" xlink:href="#DejaVuSerif-73"/>
       <use x="319.628906" xlink:href="#DejaVuSerif-74"/>
       <use x="359.814453" xlink:href="#DejaVuSerif-61"/>
       <use x="419.433594" xlink:href="#DejaVuSerif-63"/>
       <use x="475.439453" xlink:href="#DejaVuSerif-6b"/>
       <use x="536.035156" xlink:href="#DejaVuSerif-65"/>
       <use x="595.214844" xlink:href="#DejaVuSerif-64"/>
       <use x="659.228516" xlink:href="#DejaVuSerif-5f"/>
       <use x="709.228516" xlink:href="#DejaVuSerif-69"/>
       <use x="741.210938" xlink:href="#DejaVuSerif-74"/>
       <use x="781.396484" xlink:href="#DejaVuSerif-65"/>
       <use x="840.576172" xlink:href="#DejaVuSerif-72"/>
       <use x="888.378906" xlink:href="#DejaVuSerif-61"/>
       <use x="947.998047" xlink:href="#DejaVuSerif-74"/>
       <use x="988.183594" xlink:href="#DejaVuSerif-69"/>
       <use x="1020.166016" xlink:href="#DejaVuSerif-76"/>
       <use x="1076.660156" xlink:href="#DejaVuSerif-65"/>
      </g>
     </g>
    </g>
    <g id="xtick_3">
     <g id="line2d_3">
      <g>
       <use style="stroke:#000000;stroke-width:0.8;" x="335.090221" xlink:href="#maa23048ae2" y="481.69"/>
      </g>
     </g>
     <g id="text_3">
      <!-- cnn -->
      <g transform="translate(306.012664 525.572248)rotate(-45)scale(0.2 -0.2)">
       <use xlink:href="#DejaVuSerif-63"/>
       <use x="56.005859" xlink:href="#DejaVuSerif-6e"/>
       <use x="120.410156" xlink:href="#DejaVuSerif-6e"/>
      </g>
     </g>
    </g>
    <g id="xtick_4">
     <g id="line2d_4">
      <g>
       <use style="stroke:#000000;stroke-width:0.8;" x="405.544766" xlink:href="#maa23048ae2" y="481.69"/>
      </g>
     </g>
     <g id="text_4">
      <!-- rf -->
      <g transform="translate(390.609345 511.430112)rotate(-45)scale(0.2 -0.2)">
       <defs>
        <path d="M 2753 4078 
L 2450 4078 
Q 2447 4313 2317 4434 
Q 2188 4556 1941 4556 
Q 1619 4556 1487 4379 
Q 1356 4203 1356 3750 
L 1356 3322 
L 2284 3322 
L 2284 2988 
L 1356 2988 
L 1356 331 
L 2094 331 
L 2094 0 
L 231 0 
L 231 331 
L 781 331 
L 781 2988 
L 231 2988 
L 231 3322 
L 781 3322 
L 781 3738 
Q 781 4294 1070 4578 
Q 1359 4863 1919 4863 
Q 2128 4863 2337 4825 
Q 2547 4788 2753 4709 
L 2753 4078 
z
" id="DejaVuSerif-66" transform="scale(0.015625)"/>
       </defs>
       <use xlink:href="#DejaVuSerif-72"/>
       <use x="47.802734" xlink:href="#DejaVuSerif-66"/>
      </g>
     </g>
    </g>
    <g id="xtick_5">
     <g id="line2d_5">
      <g>
       <use style="stroke:#000000;stroke-width:0.8;" x="475.999312" xlink:href="#maa23048ae2" y="481.69"/>
      </g>
     </g>
     <g id="text_5">
      <!-- mlr -->
      <g transform="translate(448.364695 524.129308)rotate(-45)scale(0.2 -0.2)">
       <use xlink:href="#DejaVuSerif-6d"/>
       <use x="94.824219" xlink:href="#DejaVuSerif-6c"/>
       <use x="126.806641" xlink:href="#DejaVuSerif-72"/>
      </g>
     </g>
    </g>
    <g id="xtick_6">
     <g id="line2d_6">
      <g>
       <use style="stroke:#000000;stroke-width:0.8;" x="546.453857" xlink:href="#maa23048ae2" y="481.69"/>
      </g>
     </g>
     <g id="text_6">
      <!-- lstm_stacked_joint -->
      <g transform="translate(410.605386 631.949834)rotate(-45)scale(0.2 -0.2)">
       <defs>
        <path d="M 641 4353 
Q 641 4497 745 4603 
Q 850 4709 997 4709 
Q 1141 4709 1245 4603 
Q 1350 4497 1350 4353 
Q 1350 4206 1248 4103 
Q 1147 4000 997 4000 
Q 850 4000 745 4103 
Q 641 4206 641 4353 
z
M 781 2988 
L 238 2988 
L 238 3322 
L 1356 3322 
L 1356 -325 
Q 1356 -838 1051 -1130 
Q 747 -1422 213 -1422 
Q -13 -1422 -217 -1370 
Q -422 -1319 -616 -1216 
L -616 -531 
L -319 -531 
Q -297 -831 -164 -972 
Q -31 -1113 225 -1113 
Q 509 -1113 645 -920 
Q 781 -728 781 -325 
L 781 2988 
z
" id="DejaVuSerif-6a" transform="scale(0.015625)"/>
        <path d="M 1925 219 
Q 2388 219 2623 584 
Q 2859 950 2859 1663 
Q 2859 2375 2623 2739 
Q 2388 3103 1925 3103 
Q 1463 3103 1227 2739 
Q 991 2375 991 1663 
Q 991 950 1228 584 
Q 1466 219 1925 219 
z
M 1925 -91 
Q 1200 -91 759 389 
Q 319 869 319 1663 
Q 319 2456 758 2934 
Q 1197 3413 1925 3413 
Q 2653 3413 3092 2934 
Q 3531 2456 3531 1663 
Q 3531 869 3092 389 
Q 2653 -91 1925 -91 
z
" id="DejaVuSerif-6f" transform="scale(0.015625)"/>
       </defs>
       <use xlink:href="#DejaVuSerif-6c"/>
       <use x="31.982422" xlink:href="#DejaVuSerif-73"/>
       <use x="83.300781" xlink:href="#DejaVuSerif-74"/>
       <use x="123.486328" xlink:href="#DejaVuSerif-6d"/>
       <use x="218.310547" xlink:href="#DejaVuSerif-5f"/>
       <use x="268.310547" xlink:href="#DejaVuSerif-73"/>
       <use x="319.628906" xlink:href="#DejaVuSerif-74"/>
       <use x="359.814453" xlink:href="#DejaVuSerif-61"/>
       <use x="419.433594" xlink:href="#DejaVuSerif-63"/>
       <use x="475.439453" xlink:href="#DejaVuSerif-6b"/>
       <use x="536.035156" xlink:href="#DejaVuSerif-65"/>
       <use x="595.214844" xlink:href="#DejaVuSerif-64"/>
       <use x="659.228516" xlink:href="#DejaVuSerif-5f"/>
       <use x="709.228516" xlink:href="#DejaVuSerif-6a"/>
       <use x="740.234375" xlink:href="#DejaVuSerif-6f"/>
       <use x="800.439453" xlink:href="#DejaVuSerif-69"/>
       <use x="832.421875" xlink:href="#DejaVuSerif-6e"/>
       <use x="896.826172" xlink:href="#DejaVuSerif-74"/>
      </g>
     </g>
    </g>
    <g id="xtick_7">
     <g id="line2d_7">
      <g>
       <use style="stroke:#000000;stroke-width:0.8;" x="616.908403" xlink:href="#maa23048ae2" y="481.69"/>
      </g>
     </g>
     <g id="text_7">
      <!-- gru_stacked_iterative -->
      <g transform="translate(458.889925 654.119841)rotate(-45)scale(0.2 -0.2)">
       <use xlink:href="#DejaVuSerif-67"/>
       <use x="64.013672" xlink:href="#DejaVuSerif-72"/>
       <use x="111.816406" xlink:href="#DejaVuSerif-75"/>
       <use x="176.220703" xlink:href="#DejaVuSerif-5f"/>
       <use x="226.220703" xlink:href="#DejaVuSerif-73"/>
       <use x="277.539062" xlink:href="#DejaVuSerif-74"/>
       <use x="317.724609" xlink:href="#DejaVuSerif-61"/>
       <use x="377.34375" xlink:href="#DejaVuSerif-63"/>
       <use x="433.349609" xlink:href="#DejaVuSerif-6b"/>
       <use x="493.945312" xlink:href="#DejaVuSerif-65"/>
       <use x="553.125" xlink:href="#DejaVuSerif-64"/>
       <use x="617.138672" xlink:href="#DejaVuSerif-5f"/>
       <use x="667.138672" xlink:href="#DejaVuSerif-69"/>
       <use x="699.121094" xlink:href="#DejaVuSerif-74"/>
       <use x="739.306641" xlink:href="#DejaVuSerif-65"/>
       <use x="798.486328" xlink:href="#DejaVuSerif-72"/>
       <use x="846.289062" xlink:href="#DejaVuSerif-61"/>
       <use x="905.908203" xlink:href="#DejaVuSerif-74"/>
       <use x="946.09375" xlink:href="#DejaVuSerif-69"/>
       <use x="978.076172" xlink:href="#DejaVuSerif-76"/>
       <use x="1034.570312" xlink:href="#DejaVuSerif-65"/>
      </g>
     </g>
    </g>
    <g id="xtick_8">
     <g id="line2d_8">
      <g>
       <use style="stroke:#000000;stroke-width:0.8;" x="687.362948" xlink:href="#maa23048ae2" y="481.69"/>
      </g>
     </g>
     <g id="text_8">
      <!-- gru_stacked_joint -->
      <g transform="translate(557.467433 625.996879)rotate(-45)scale(0.2 -0.2)">
       <use xlink:href="#DejaVuSerif-67"/>
       <use x="64.013672" xlink:href="#DejaVuSerif-72"/>
       <use x="111.816406" xlink:href="#DejaVuSerif-75"/>
       <use x="176.220703" xlink:href="#DejaVuSerif-5f"/>
       <use x="226.220703" xlink:href="#DejaVuSerif-73"/>
       <use x="277.539062" xlink:href="#DejaVuSerif-74"/>
       <use x="317.724609" xlink:href="#DejaVuSerif-61"/>
       <use x="377.34375" xlink:href="#DejaVuSerif-63"/>
       <use x="433.349609" xlink:href="#DejaVuSerif-6b"/>
       <use x="493.945312" xlink:href="#DejaVuSerif-65"/>
       <use x="553.125" xlink:href="#DejaVuSerif-64"/>
       <use x="617.138672" xlink:href="#DejaVuSerif-5f"/>
       <use x="667.138672" xlink:href="#DejaVuSerif-6a"/>
       <use x="698.144531" xlink:href="#DejaVuSerif-6f"/>
       <use x="758.349609" xlink:href="#DejaVuSerif-69"/>
       <use x="790.332031" xlink:href="#DejaVuSerif-6e"/>
       <use x="854.736328" xlink:href="#DejaVuSerif-74"/>
      </g>
     </g>
    </g>
    <g id="xtick_9">
     <g id="line2d_9">
      <g>
       <use style="stroke:#000000;stroke-width:0.8;" x="757.817494" xlink:href="#maa23048ae2" y="481.69"/>
      </g>
     </g>
     <g id="text_9">
      <!-- gru_unstacked_joint -->
      <g transform="translate(609.70514 644.213717)rotate(-45)scale(0.2 -0.2)">
       <use xlink:href="#DejaVuSerif-67"/>
       <use x="64.013672" xlink:href="#DejaVuSerif-72"/>
       <use x="111.816406" xlink:href="#DejaVuSerif-75"/>
       <use x="176.220703" xlink:href="#DejaVuSerif-5f"/>
       <use x="226.220703" xlink:href="#DejaVuSerif-75"/>
       <use x="290.625" xlink:href="#DejaVuSerif-6e"/>
       <use x="355.029297" xlink:href="#DejaVuSerif-73"/>
       <use x="406.347656" xlink:href="#DejaVuSerif-74"/>
       <use x="446.533203" xlink:href="#DejaVuSerif-61"/>
       <use x="506.152344" xlink:href="#DejaVuSerif-63"/>
       <use x="562.158203" xlink:href="#DejaVuSerif-6b"/>
       <use x="622.753906" xlink:href="#DejaVuSerif-65"/>
       <use x="681.933594" xlink:href="#DejaVuSerif-64"/>
       <use x="745.947266" xlink:href="#DejaVuSerif-5f"/>
       <use x="795.947266" xlink:href="#DejaVuSerif-6a"/>
       <use x="826.953125" xlink:href="#DejaVuSerif-6f"/>
       <use x="887.158203" xlink:href="#DejaVuSerif-69"/>
       <use x="919.140625" xlink:href="#DejaVuSerif-6e"/>
       <use x="983.544922" xlink:href="#DejaVuSerif-74"/>
      </g>
     </g>
    </g>
    <g id="xtick_10">
     <g id="line2d_10">
      <g>
       <use style="stroke:#000000;stroke-width:0.8;" x="828.272039" xlink:href="#maa23048ae2" y="481.69"/>
      </g>
     </g>
     <g id="text_10">
      <!-- lstm_unstacked_iterative -->
      <g transform="translate(646.083767 678.289635)rotate(-45)scale(0.2 -0.2)">
       <use xlink:href="#DejaVuSerif-6c"/>
       <use x="31.982422" xlink:href="#DejaVuSerif-73"/>
       <use x="83.300781" xlink:href="#DejaVuSerif-74"/>
       <use x="123.486328" xlink:href="#DejaVuSerif-6d"/>
       <use x="218.310547" xlink:href="#DejaVuSerif-5f"/>
       <use x="268.310547" xlink:href="#DejaVuSerif-75"/>
       <use x="332.714844" xlink:href="#DejaVuSerif-6e"/>
       <use x="397.119141" xlink:href="#DejaVuSerif-73"/>
       <use x="448.4375" xlink:href="#DejaVuSerif-74"/>
       <use x="488.623047" xlink:href="#DejaVuSerif-61"/>
       <use x="548.242188" xlink:href="#DejaVuSerif-63"/>
       <use x="604.248047" xlink:href="#DejaVuSerif-6b"/>
       <use x="664.84375" xlink:href="#DejaVuSerif-65"/>
       <use x="724.023438" xlink:href="#DejaVuSerif-64"/>
       <use x="788.037109" xlink:href="#DejaVuSerif-5f"/>
       <use x="838.037109" xlink:href="#DejaVuSerif-69"/>
       <use x="870.019531" xlink:href="#DejaVuSerif-74"/>
       <use x="910.205078" xlink:href="#DejaVuSerif-65"/>
       <use x="969.384766" xlink:href="#DejaVuSerif-72"/>
       <use x="1017.1875" xlink:href="#DejaVuSerif-61"/>
       <use x="1076.806641" xlink:href="#DejaVuSerif-74"/>
       <use x="1116.992188" xlink:href="#DejaVuSerif-69"/>
       <use x="1148.974609" xlink:href="#DejaVuSerif-76"/>
       <use x="1205.46875" xlink:href="#DejaVuSerif-65"/>
      </g>
     </g>
    </g>
    <g id="xtick_11">
     <g id="line2d_11">
      <g>
       <use style="stroke:#000000;stroke-width:0.8;" x="898.726585" xlink:href="#maa23048ae2" y="481.69"/>
      </g>
     </g>
     <g id="text_11">
      <!-- lstm_unstacked_joint -->
      <g transform="translate(744.661275 650.166672)rotate(-45)scale(0.2 -0.2)">
       <use xlink:href="#DejaVuSerif-6c"/>
       <use x="31.982422" xlink:href="#DejaVuSerif-73"/>
       <use x="83.300781" xlink:href="#DejaVuSerif-74"/>
       <use x="123.486328" xlink:href="#DejaVuSerif-6d"/>
       <use x="218.310547" xlink:href="#DejaVuSerif-5f"/>
       <use x="268.310547" xlink:href="#DejaVuSerif-75"/>
       <use x="332.714844" xlink:href="#DejaVuSerif-6e"/>
       <use x="397.119141" xlink:href="#DejaVuSerif-73"/>
       <use x="448.4375" xlink:href="#DejaVuSerif-74"/>
       <use x="488.623047" xlink:href="#DejaVuSerif-61"/>
       <use x="548.242188" xlink:href="#DejaVuSerif-63"/>
       <use x="604.248047" xlink:href="#DejaVuSerif-6b"/>
       <use x="664.84375" xlink:href="#DejaVuSerif-65"/>
       <use x="724.023438" xlink:href="#DejaVuSerif-64"/>
       <use x="788.037109" xlink:href="#DejaVuSerif-5f"/>
       <use x="838.037109" xlink:href="#DejaVuSerif-6a"/>
       <use x="869.042969" xlink:href="#DejaVuSerif-6f"/>
       <use x="929.248047" xlink:href="#DejaVuSerif-69"/>
       <use x="961.230469" xlink:href="#DejaVuSerif-6e"/>
       <use x="1025.634766" xlink:href="#DejaVuSerif-74"/>
      </g>
     </g>
    </g>
   </g>
   <g id="matplotlib.axis_2">
    <g id="ytick_1">
     <g id="line2d_12">
      <path clip-path="url(#p437807685e)" d="M 127.953857 481.69 
L 964.953857 481.69 
" style="fill:none;stroke:#b0b0b0;stroke-linecap:square;stroke-width:0.8;"/>
     </g>
     <g id="line2d_13">
      <defs>
       <path d="M 0 0 
L -3.5 0 
" id="m2abf4900ca" style="stroke:#000000;stroke-width:0.8;"/>
      </defs>
      <g>
       <use style="stroke:#000000;stroke-width:0.8;" x="127.953857" xlink:href="#m2abf4900ca" y="481.69"/>
      </g>
     </g>
     <g id="text_12">
      <!-- 0 -->
      <g transform="translate(108.228857 489.288437)scale(0.2 -0.2)">
       <defs>
        <path d="M 2034 219 
Q 2513 219 2750 744 
Q 2988 1269 2988 2328 
Q 2988 3391 2750 3916 
Q 2513 4441 2034 4441 
Q 1556 4441 1318 3916 
Q 1081 3391 1081 2328 
Q 1081 1269 1318 744 
Q 1556 219 2034 219 
z
M 2034 -91 
Q 1275 -91 848 546 
Q 422 1184 422 2328 
Q 422 3475 848 4112 
Q 1275 4750 2034 4750 
Q 2797 4750 3222 4112 
Q 3647 3475 3647 2328 
Q 3647 1184 3222 546 
Q 2797 -91 2034 -91 
z
" id="DejaVuSerif-30" transform="scale(0.015625)"/>
       </defs>
       <use xlink:href="#DejaVuSerif-30"/>
      </g>
     </g>
    </g>
    <g id="ytick_2">
     <g id="line2d_14">
      <path clip-path="url(#p437807685e)" d="M 127.953857 389.829335 
L 964.953857 389.829335 
" style="fill:none;stroke:#b0b0b0;stroke-linecap:square;stroke-width:0.8;"/>
     </g>
     <g id="line2d_15">
      <g>
       <use style="stroke:#000000;stroke-width:0.8;" x="127.953857" xlink:href="#m2abf4900ca" y="389.829335"/>
      </g>
     </g>
     <g id="text_13">
      <!-- 20 -->
      <g transform="translate(95.503857 397.427772)scale(0.2 -0.2)">
       <defs>
        <path d="M 819 3553 
L 469 3553 
L 469 4384 
Q 803 4563 1142 4656 
Q 1481 4750 1806 4750 
Q 2534 4750 2956 4397 
Q 3378 4044 3378 3438 
Q 3378 2753 2422 1800 
Q 2347 1728 2309 1691 
L 1131 513 
L 3078 513 
L 3078 1088 
L 3444 1088 
L 3444 0 
L 434 0 
L 434 341 
L 1850 1753 
Q 2319 2222 2519 2614 
Q 2719 3006 2719 3438 
Q 2719 3909 2473 4175 
Q 2228 4441 1797 4441 
Q 1350 4441 1106 4219 
Q 863 3997 819 3553 
z
" id="DejaVuSerif-32" transform="scale(0.015625)"/>
       </defs>
       <use xlink:href="#DejaVuSerif-32"/>
       <use x="63.623047" xlink:href="#DejaVuSerif-30"/>
      </g>
     </g>
    </g>
    <g id="ytick_3">
     <g id="line2d_16">
      <path clip-path="url(#p437807685e)" d="M 127.953857 297.96867 
L 964.953857 297.96867 
" style="fill:none;stroke:#b0b0b0;stroke-linecap:square;stroke-width:0.8;"/>
     </g>
     <g id="line2d_17">
      <g>
       <use style="stroke:#000000;stroke-width:0.8;" x="127.953857" xlink:href="#m2abf4900ca" y="297.96867"/>
      </g>
     </g>
     <g id="text_14">
      <!-- 40 -->
      <g transform="translate(95.503857 305.567107)scale(0.2 -0.2)">
       <defs>
        <path d="M 2234 1581 
L 2234 4063 
L 641 1581 
L 2234 1581 
z
M 3609 0 
L 1484 0 
L 1484 331 
L 2234 331 
L 2234 1247 
L 197 1247 
L 197 1588 
L 2241 4750 
L 2859 4750 
L 2859 1581 
L 3750 1581 
L 3750 1247 
L 2859 1247 
L 2859 331 
L 3609 331 
L 3609 0 
z
" id="DejaVuSerif-34" transform="scale(0.015625)"/>
       </defs>
       <use xlink:href="#DejaVuSerif-34"/>
       <use x="63.623047" xlink:href="#DejaVuSerif-30"/>
      </g>
     </g>
    </g>
    <g id="ytick_4">
     <g id="line2d_18">
      <path clip-path="url(#p437807685e)" d="M 127.953857 206.108005 
L 964.953857 206.108005 
" style="fill:none;stroke:#b0b0b0;stroke-linecap:square;stroke-width:0.8;"/>
     </g>
     <g id="line2d_19">
      <g>
       <use style="stroke:#000000;stroke-width:0.8;" x="127.953857" xlink:href="#m2abf4900ca" y="206.108005"/>
      </g>
     </g>
     <g id="text_15">
      <!-- 60 -->
      <g transform="translate(95.503857 213.706442)scale(0.2 -0.2)">
       <defs>
        <path d="M 2094 219 
Q 2534 219 2771 542 
Q 3009 866 3009 1472 
Q 3009 2078 2771 2401 
Q 2534 2725 2094 2725 
Q 1647 2725 1412 2412 
Q 1178 2100 1178 1509 
Q 1178 888 1415 553 
Q 1653 219 2094 219 
z
M 1075 2569 
Q 1288 2803 1556 2918 
Q 1825 3034 2163 3034 
Q 2859 3034 3264 2615 
Q 3669 2197 3669 1472 
Q 3669 763 3233 336 
Q 2797 -91 2069 -91 
Q 1278 -91 853 498 
Q 428 1088 428 2181 
Q 428 3406 931 4078 
Q 1434 4750 2350 4750 
Q 2597 4750 2869 4703 
Q 3141 4656 3425 4563 
L 3425 3794 
L 3072 3794 
Q 3034 4109 2831 4275 
Q 2628 4441 2284 4441 
Q 1678 4441 1381 3981 
Q 1084 3522 1075 2569 
z
" id="DejaVuSerif-36" transform="scale(0.015625)"/>
       </defs>
       <use xlink:href="#DejaVuSerif-36"/>
       <use x="63.623047" xlink:href="#DejaVuSerif-30"/>
      </g>
     </g>
    </g>
    <g id="ytick_5">
     <g id="line2d_20">
      <path clip-path="url(#p437807685e)" d="M 127.953857 114.24734 
L 964.953857 114.24734 
" style="fill:none;stroke:#b0b0b0;stroke-linecap:square;stroke-width:0.8;"/>
     </g>
     <g id="line2d_21">
      <g>
       <use style="stroke:#000000;stroke-width:0.8;" x="127.953857" xlink:href="#m2abf4900ca" y="114.24734"/>
      </g>
     </g>
     <g id="text_16">
      <!-- 80 -->
      <g transform="translate(95.503857 121.845777)scale(0.2 -0.2)">
       <defs>
        <path d="M 2981 1275 
Q 2981 1775 2732 2051 
Q 2484 2328 2034 2328 
Q 1584 2328 1336 2051 
Q 1088 1775 1088 1275 
Q 1088 772 1336 495 
Q 1584 219 2034 219 
Q 2484 219 2732 495 
Q 2981 772 2981 1275 
z
M 2853 3541 
Q 2853 3966 2637 4203 
Q 2422 4441 2034 4441 
Q 1650 4441 1433 4203 
Q 1216 3966 1216 3541 
Q 1216 3113 1433 2875 
Q 1650 2638 2034 2638 
Q 2422 2638 2637 2875 
Q 2853 3113 2853 3541 
z
M 2516 2484 
Q 3047 2413 3344 2092 
Q 3641 1772 3641 1275 
Q 3641 619 3225 264 
Q 2809 -91 2034 -91 
Q 1263 -91 845 264 
Q 428 619 428 1275 
Q 428 1772 725 2092 
Q 1022 2413 1556 2484 
Q 1084 2569 832 2842 
Q 581 3116 581 3541 
Q 581 4103 968 4426 
Q 1356 4750 2034 4750 
Q 2713 4750 3100 4426 
Q 3488 4103 3488 3541 
Q 3488 3116 3236 2842 
Q 2984 2569 2516 2484 
z
" id="DejaVuSerif-38" transform="scale(0.015625)"/>
       </defs>
       <use xlink:href="#DejaVuSerif-38"/>
       <use x="63.623047" xlink:href="#DejaVuSerif-30"/>
      </g>
     </g>
    </g>
    <g id="text_17">
     <!-- MSE for Predicted Air Temp. (K) -->
     <g transform="translate(86.512607 458.04625)rotate(-90)scale(0.24 -0.24)">
      <defs>
       <path d="M 353 0 
L 353 331 
L 947 331 
L 947 4331 
L 319 4331 
L 319 4666 
L 1678 4666 
L 3316 1344 
L 4953 4666 
L 6228 4666 
L 6228 4331 
L 5606 4331 
L 5606 331 
L 6203 331 
L 6203 0 
L 4378 0 
L 4378 331 
L 4972 331 
L 4972 3938 
L 3372 684 
L 2931 684 
L 1331 3938 
L 1331 331 
L 1925 331 
L 1925 0 
L 353 0 
z
" id="DejaVuSerif-4d" transform="scale(0.015625)"/>
       <path d="M 594 225 
L 594 1288 
L 953 1284 
Q 969 753 1261 498 
Q 1553 244 2150 244 
Q 2706 244 2998 464 
Q 3291 684 3291 1106 
Q 3291 1444 3114 1625 
Q 2938 1806 2369 1978 
L 1753 2163 
Q 1084 2366 811 2669 
Q 538 2972 538 3500 
Q 538 4094 959 4422 
Q 1381 4750 2144 4750 
Q 2469 4750 2856 4679 
Q 3244 4609 3681 4475 
L 3681 3481 
L 3328 3481 
Q 3275 3975 2998 4195 
Q 2722 4416 2156 4416 
Q 1663 4416 1405 4214 
Q 1147 4013 1147 3628 
Q 1147 3294 1340 3103 
Q 1534 2913 2163 2725 
L 2741 2553 
Q 3375 2363 3645 2067 
Q 3916 1772 3916 1275 
Q 3916 597 3481 253 
Q 3047 -91 2188 -91 
Q 1803 -91 1404 -12 
Q 1006 66 594 225 
z
" id="DejaVuSerif-53" transform="scale(0.015625)"/>
       <path d="M 353 0 
L 353 331 
L 947 331 
L 947 4331 
L 353 4331 
L 353 4666 
L 4109 4666 
L 4109 3628 
L 3725 3628 
L 3725 4281 
L 1581 4281 
L 1581 2719 
L 3109 2719 
L 3109 3303 
L 3494 3303 
L 3494 1753 
L 3109 1753 
L 3109 2338 
L 1581 2338 
L 1581 384 
L 3775 384 
L 3775 1038 
L 4159 1038 
L 4159 0 
L 353 0 
z
" id="DejaVuSerif-45" transform="scale(0.015625)"/>
       <path id="DejaVuSerif-20" transform="scale(0.015625)"/>
       <path d="M 1581 2375 
L 2406 2375 
Q 2872 2375 3115 2626 
Q 3359 2878 3359 3353 
Q 3359 3831 3115 4081 
Q 2872 4331 2406 4331 
L 1581 4331 
L 1581 2375 
z
M 353 0 
L 353 331 
L 947 331 
L 947 4331 
L 353 4331 
L 353 4666 
L 2559 4666 
Q 3259 4666 3668 4311 
Q 4078 3956 4078 3353 
Q 4078 2753 3668 2397 
Q 3259 2041 2559 2041 
L 1581 2041 
L 1581 331 
L 2303 331 
L 2303 0 
L 353 0 
z
" id="DejaVuSerif-50" transform="scale(0.015625)"/>
       <path d="M 1281 1691 
L 2994 1691 
L 2138 3909 
L 1281 1691 
z
M -38 0 
L -38 331 
L 372 331 
L 2034 4666 
L 2559 4666 
L 4225 331 
L 4684 331 
L 4684 0 
L 2988 0 
L 2988 331 
L 3506 331 
L 3116 1356 
L 1153 1356 
L 763 331 
L 1275 331 
L 1275 0 
L -38 0 
z
" id="DejaVuSerif-41" transform="scale(0.015625)"/>
       <path d="M 1222 0 
L 1222 331 
L 1819 331 
L 1819 4294 
L 447 4294 
L 447 3566 
L 63 3566 
L 63 4666 
L 4206 4666 
L 4206 3566 
L 3822 3566 
L 3822 4294 
L 2450 4294 
L 2450 331 
L 3047 331 
L 3047 0 
L 1222 0 
z
" id="DejaVuSerif-54" transform="scale(0.015625)"/>
       <path d="M 1313 1825 
L 1313 1497 
Q 1313 897 1542 583 
Q 1772 269 2209 269 
Q 2650 269 2876 622 
Q 3103 975 3103 1663 
Q 3103 2353 2876 2703 
Q 2650 3053 2209 3053 
Q 1772 3053 1542 2737 
Q 1313 2422 1313 1825 
z
M 738 2988 
L 184 2988 
L 184 3322 
L 1313 3322 
L 1313 2803 
Q 1481 3116 1742 3264 
Q 2003 3413 2388 3413 
Q 3000 3413 3387 2928 
Q 3775 2444 3775 1663 
Q 3775 881 3387 395 
Q 3000 -91 2388 -91 
Q 2003 -91 1742 57 
Q 1481 206 1313 519 
L 1313 -997 
L 1856 -997 
L 1856 -1331 
L 184 -1331 
L 184 -997 
L 738 -997 
L 738 2988 
z
" id="DejaVuSerif-70" transform="scale(0.015625)"/>
       <path d="M 603 325 
Q 603 500 722 622 
Q 841 744 1019 744 
Q 1191 744 1312 622 
Q 1434 500 1434 325 
Q 1434 153 1312 31 
Q 1191 -91 1019 -91 
Q 841 -91 722 29 
Q 603 150 603 325 
z
" id="DejaVuSerif-2e" transform="scale(0.015625)"/>
       <path d="M 2041 -997 
Q 1281 -656 893 83 
Q 506 822 506 1931 
Q 506 3044 893 3783 
Q 1281 4522 2041 4863 
L 2041 4556 
Q 1559 4225 1350 3623 
Q 1141 3022 1141 1931 
Q 1141 844 1350 242 
Q 1559 -359 2041 -691 
L 2041 -997 
z
" id="DejaVuSerif-28" transform="scale(0.015625)"/>
       <path d="M 353 0 
L 353 331 
L 947 331 
L 947 4331 
L 353 4331 
L 353 4666 
L 2175 4666 
L 2175 4331 
L 1581 4331 
L 1581 2566 
L 3591 4331 
L 3084 4331 
L 3084 4666 
L 4634 4666 
L 4634 4331 
L 4109 4331 
L 2106 2572 
L 4347 331 
L 4878 331 
L 4878 0 
L 3794 0 
L 1581 2216 
L 1581 331 
L 2175 331 
L 2175 0 
L 353 0 
z
" id="DejaVuSerif-4b" transform="scale(0.015625)"/>
       <path d="M 453 -997 
L 453 -691 
Q 934 -359 1145 242 
Q 1356 844 1356 1931 
Q 1356 3022 1145 3623 
Q 934 4225 453 4556 
L 453 4863 
Q 1216 4522 1603 3783 
Q 1991 3044 1991 1931 
Q 1991 822 1603 83 
Q 1216 -656 453 -997 
z
" id="DejaVuSerif-29" transform="scale(0.015625)"/>
      </defs>
      <use xlink:href="#DejaVuSerif-4d"/>
      <use x="102.392578" xlink:href="#DejaVuSerif-53"/>
      <use x="170.898438" xlink:href="#DejaVuSerif-45"/>
      <use x="243.896484" xlink:href="#DejaVuSerif-20"/>
      <use x="275.683594" xlink:href="#DejaVuSerif-66"/>
      <use x="312.695312" xlink:href="#DejaVuSerif-6f"/>
      <use x="372.900391" xlink:href="#DejaVuSerif-72"/>
      <use x="420.703125" xlink:href="#DejaVuSerif-20"/>
      <use x="452.490234" xlink:href="#DejaVuSerif-50"/>
      <use x="519.775391" xlink:href="#DejaVuSerif-72"/>
      <use x="567.578125" xlink:href="#DejaVuSerif-65"/>
      <use x="626.757812" xlink:href="#DejaVuSerif-64"/>
      <use x="690.771484" xlink:href="#DejaVuSerif-69"/>
      <use x="722.753906" xlink:href="#DejaVuSerif-63"/>
      <use x="778.759766" xlink:href="#DejaVuSerif-74"/>
      <use x="818.945312" xlink:href="#DejaVuSerif-65"/>
      <use x="878.125" xlink:href="#DejaVuSerif-64"/>
      <use x="942.138672" xlink:href="#DejaVuSerif-20"/>
      <use x="973.925781" xlink:href="#DejaVuSerif-41"/>
      <use x="1046.142578" xlink:href="#DejaVuSerif-69"/>
      <use x="1078.125" xlink:href="#DejaVuSerif-72"/>
      <use x="1125.927734" xlink:href="#DejaVuSerif-20"/>
      <use x="1157.714844" xlink:href="#DejaVuSerif-54"/>
      <use x="1216.664062" xlink:href="#DejaVuSerif-65"/>
      <use x="1275.84375" xlink:href="#DejaVuSerif-6d"/>
      <use x="1370.667969" xlink:href="#DejaVuSerif-70"/>
      <use x="1434.681641" xlink:href="#DejaVuSerif-2e"/>
      <use x="1466.46875" xlink:href="#DejaVuSerif-20"/>
      <use x="1498.255859" xlink:href="#DejaVuSerif-28"/>
      <use x="1537.269531" xlink:href="#DejaVuSerif-4b"/>
      <use x="1611.976562" xlink:href="#DejaVuSerif-29"/>
     </g>
    </g>
   </g>
   <g id="LineCollection_1">
    <path clip-path="url(#p437807685e)" d="M 194.18113 453.548546 
L 194.18113 408.930949 
" style="fill:none;stroke:#000000;stroke-width:1.5;"/>
    <path clip-path="url(#p437807685e)" d="M 264.635675 442.989389 
L 264.635675 414.040509 
" style="fill:none;stroke:#000000;stroke-width:1.5;"/>
    <path clip-path="url(#p437807685e)" d="M 335.090221 420.070688 
L 335.090221 405.729857 
" style="fill:none;stroke:#000000;stroke-width:1.5;"/>
    <path clip-path="url(#p437807685e)" d="M 405.544766 432.42695 
L 405.544766 388.313395 
" style="fill:none;stroke:#000000;stroke-width:1.5;"/>
    <path clip-path="url(#p437807685e)" d="M 475.999312 435.079614 
L 475.999312 383.309688 
" style="fill:none;stroke:#000000;stroke-width:1.5;"/>
    <path clip-path="url(#p437807685e)" d="M 546.453857 414.246237 
L 546.453857 402.484531 
" style="fill:none;stroke:#000000;stroke-width:1.5;"/>
    <path clip-path="url(#p437807685e)" d="M 616.908403 369.925002 
L 616.908403 363.519646 
" style="fill:none;stroke:#000000;stroke-width:1.5;"/>
    <path clip-path="url(#p437807685e)" d="M 687.362948 404.991186 
L 687.362948 326.06669 
" style="fill:none;stroke:#000000;stroke-width:1.5;"/>
    <path clip-path="url(#p437807685e)" d="M 757.817494 403.766592 
L 757.817494 308.056286 
" style="fill:none;stroke:#000000;stroke-width:1.5;"/>
    <path clip-path="url(#p437807685e)" d="M 828.272039 406.007933 
L 828.272039 298.768061 
" style="fill:none;stroke:#000000;stroke-width:1.5;"/>
    <path clip-path="url(#p437807685e)" d="M 898.726585 365.924466 
L 898.726585 59.29 
" style="fill:none;stroke:#000000;stroke-width:1.5;"/>
   </g>
   <g id="line2d_22">
    <defs>
     <path d="M 10 0 
L -10 -0 
" id="m388229cfc1" style="stroke:#000000;"/>
    </defs>
    <g clip-path="url(#p437807685e)">
     <use style="stroke:#000000;" x="194.18113" xlink:href="#m388229cfc1" y="453.548546"/>
     <use style="stroke:#000000;" x="264.635675" xlink:href="#m388229cfc1" y="442.989389"/>
     <use style="stroke:#000000;" x="335.090221" xlink:href="#m388229cfc1" y="420.070688"/>
     <use style="stroke:#000000;" x="405.544766" xlink:href="#m388229cfc1" y="432.42695"/>
     <use style="stroke:#000000;" x="475.999312" xlink:href="#m388229cfc1" y="435.079614"/>
     <use style="stroke:#000000;" x="546.453857" xlink:href="#m388229cfc1" y="414.246237"/>
     <use style="stroke:#000000;" x="616.908403" xlink:href="#m388229cfc1" y="369.925002"/>
     <use style="stroke:#000000;" x="687.362948" xlink:href="#m388229cfc1" y="404.991186"/>
     <use style="stroke:#000000;" x="757.817494" xlink:href="#m388229cfc1" y="403.766592"/>
     <use style="stroke:#000000;" x="828.272039" xlink:href="#m388229cfc1" y="406.007933"/>
     <use style="stroke:#000000;" x="898.726585" xlink:href="#m388229cfc1" y="365.924466"/>
    </g>
   </g>
   <g id="line2d_23">
    <g clip-path="url(#p437807685e)">
     <use style="stroke:#000000;" x="194.18113" xlink:href="#m388229cfc1" y="408.930949"/>
     <use style="stroke:#000000;" x="264.635675" xlink:href="#m388229cfc1" y="414.040509"/>
     <use style="stroke:#000000;" x="335.090221" xlink:href="#m388229cfc1" y="405.729857"/>
     <use style="stroke:#000000;" x="405.544766" xlink:href="#m388229cfc1" y="388.313395"/>
     <use style="stroke:#000000;" x="475.999312" xlink:href="#m388229cfc1" y="383.309688"/>
     <use style="stroke:#000000;" x="546.453857" xlink:href="#m388229cfc1" y="402.484531"/>
     <use style="stroke:#000000;" x="616.908403" xlink:href="#m388229cfc1" y="363.519646"/>
     <use style="stroke:#000000;" x="687.362948" xlink:href="#m388229cfc1" y="326.06669"/>
     <use style="stroke:#000000;" x="757.817494" xlink:href="#m388229cfc1" y="308.056286"/>
     <use style="stroke:#000000;" x="828.272039" xlink:href="#m388229cfc1" y="298.768061"/>
     <use style="stroke:#000000;" x="898.726585" xlink:href="#m388229cfc1" y="59.29"/>
    </g>
   </g>
   <g id="patch_14">
    <path d="M 127.953857 481.69 
L 127.953857 38.17 
" style="fill:none;stroke:#000000;stroke-linecap:square;stroke-linejoin:miter;stroke-width:0.8;"/>
   </g>
   <g id="patch_15">
    <path d="M 964.953857 481.69 
L 964.953857 38.17 
" style="fill:none;stroke:#000000;stroke-linecap:square;stroke-linejoin:miter;stroke-width:0.8;"/>
   </g>
   <g id="patch_16">
    <path d="M 127.953857 481.69 
L 964.953857 481.69 
" style="fill:none;stroke:#000000;stroke-linecap:square;stroke-linejoin:miter;stroke-width:0.8;"/>
   </g>
   <g id="patch_17">
    <path d="M 127.953857 38.17 
L 964.953857 38.17 
" style="fill:none;stroke:#000000;stroke-linecap:square;stroke-linejoin:miter;stroke-width:0.8;"/>
   </g>
   <g id="text_18">
    <!-- 10.98 -->
    <g transform="translate(137.817494 427.912247)scale(0.16 -0.16)">
     <defs>
      <path d="M 909 0 
L 909 331 
L 1722 331 
L 1722 4213 
L 781 3603 
L 781 4013 
L 1919 4750 
L 2350 4750 
L 2350 331 
L 3163 331 
L 3163 0 
L 909 0 
z
" id="DejaVuSerif-31" transform="scale(0.015625)"/>
      <path d="M 2994 2091 
Q 2784 1856 2512 1740 
Q 2241 1625 1900 1625 
Q 1206 1625 804 2044 
Q 403 2463 403 3188 
Q 403 3897 839 4323 
Q 1275 4750 2003 4750 
Q 2794 4750 3217 4161 
Q 3641 3572 3641 2478 
Q 3641 1253 3137 581 
Q 2634 -91 1722 -91 
Q 1475 -91 1203 -44 
Q 931 3 647 97 
L 647 872 
L 997 872 
Q 1038 556 1241 387 
Q 1444 219 1784 219 
Q 2391 219 2687 676 
Q 2984 1134 2994 2091 
z
M 1978 4441 
Q 1534 4441 1298 4117 
Q 1063 3794 1063 3188 
Q 1063 2581 1298 2256 
Q 1534 1931 1978 1931 
Q 2422 1931 2658 2245 
Q 2894 2559 2894 3150 
Q 2894 3772 2656 4106 
Q 2419 4441 1978 4441 
z
" id="DejaVuSerif-39" transform="scale(0.015625)"/>
     </defs>
     <use xlink:href="#DejaVuSerif-31"/>
     <use x="63.623047" xlink:href="#DejaVuSerif-30"/>
     <use x="127.246094" xlink:href="#DejaVuSerif-2e"/>
     <use x="159.033203" xlink:href="#DejaVuSerif-39"/>
     <use x="222.65625" xlink:href="#DejaVuSerif-38"/>
    </g>
   </g>
   <g id="text_19">
    <!-- 11.58 -->
    <g transform="translate(208.272039 425.187449)scale(0.16 -0.16)">
     <defs>
      <path d="M 3219 4666 
L 3219 4153 
L 1081 4153 
L 1081 2816 
Q 1244 2928 1461 2984 
Q 1678 3041 1947 3041 
Q 2703 3041 3140 2622 
Q 3578 2203 3578 1478 
Q 3578 738 3136 323 
Q 2694 -91 1894 -91 
Q 1572 -91 1234 -12 
Q 897 66 544 225 
L 544 1131 
L 897 1131 
Q 925 688 1179 453 
Q 1434 219 1894 219 
Q 2388 219 2653 544 
Q 2919 869 2919 1478 
Q 2919 2084 2655 2407 
Q 2391 2731 1894 2731 
Q 1613 2731 1398 2631 
Q 1184 2531 1019 2322 
L 750 2322 
L 750 4666 
L 3219 4666 
z
" id="DejaVuSerif-35" transform="scale(0.015625)"/>
     </defs>
     <use xlink:href="#DejaVuSerif-31"/>
     <use x="63.623047" xlink:href="#DejaVuSerif-31"/>
     <use x="127.246094" xlink:href="#DejaVuSerif-2e"/>
     <use x="159.033203" xlink:href="#DejaVuSerif-35"/>
     <use x="222.65625" xlink:href="#DejaVuSerif-38"/>
    </g>
   </g>
   <g id="text_20">
    <!-- 14.98 -->
    <g transform="translate(278.726585 409.572773)scale(0.16 -0.16)">
     <use xlink:href="#DejaVuSerif-31"/>
     <use x="63.623047" xlink:href="#DejaVuSerif-34"/>
     <use x="127.246094" xlink:href="#DejaVuSerif-2e"/>
     <use x="159.033203" xlink:href="#DejaVuSerif-39"/>
     <use x="222.65625" xlink:href="#DejaVuSerif-38"/>
    </g>
   </g>
   <g id="text_21">
    <!-- 15.53 -->
    <g transform="translate(349.18113 407.042672)scale(0.16 -0.16)">
     <defs>
      <path d="M 622 4469 
Q 988 4606 1323 4678 
Q 1659 4750 1953 4750 
Q 2638 4750 3022 4454 
Q 3406 4159 3406 3634 
Q 3406 3213 3140 2930 
Q 2875 2647 2388 2547 
Q 2963 2466 3280 2130 
Q 3597 1794 3597 1259 
Q 3597 606 3158 257 
Q 2719 -91 1894 -91 
Q 1528 -91 1179 -12 
Q 831 66 488 225 
L 488 1131 
L 838 1131 
Q 869 681 1141 450 
Q 1413 219 1906 219 
Q 2384 219 2661 495 
Q 2938 772 2938 1253 
Q 2938 1803 2653 2086 
Q 2369 2369 1819 2369 
L 1522 2369 
L 1522 2688 
L 1678 2688 
Q 2225 2688 2498 2914 
Q 2772 3141 2772 3597 
Q 2772 4006 2547 4223 
Q 2322 4441 1900 4441 
Q 1478 4441 1245 4241 
Q 1013 4041 972 3647 
L 622 3647 
L 622 4469 
z
" id="DejaVuSerif-33" transform="scale(0.015625)"/>
     </defs>
     <use xlink:href="#DejaVuSerif-31"/>
     <use x="63.623047" xlink:href="#DejaVuSerif-35"/>
     <use x="127.246094" xlink:href="#DejaVuSerif-2e"/>
     <use x="159.033203" xlink:href="#DejaVuSerif-35"/>
     <use x="222.65625" xlink:href="#DejaVuSerif-33"/>
    </g>
   </g>
   <g id="text_22">
    <!-- 15.78 -->
    <g transform="translate(419.635675 405.867151)scale(0.16 -0.16)">
     <defs>
      <path d="M 3609 4347 
L 1784 0 
L 1319 0 
L 3059 4153 
L 903 4153 
L 903 3578 
L 538 3578 
L 538 4666 
L 3609 4666 
L 3609 4347 
z
" id="DejaVuSerif-37" transform="scale(0.015625)"/>
     </defs>
     <use xlink:href="#DejaVuSerif-31"/>
     <use x="63.623047" xlink:href="#DejaVuSerif-35"/>
     <use x="127.246094" xlink:href="#DejaVuSerif-2e"/>
     <use x="159.033203" xlink:href="#DejaVuSerif-37"/>
     <use x="222.65625" xlink:href="#DejaVuSerif-38"/>
    </g>
   </g>
   <g id="text_23">
    <!-- 15.96 -->
    <g transform="translate(490.090221 405.037884)scale(0.16 -0.16)">
     <use xlink:href="#DejaVuSerif-31"/>
     <use x="63.623047" xlink:href="#DejaVuSerif-35"/>
     <use x="127.246094" xlink:href="#DejaVuSerif-2e"/>
     <use x="159.033203" xlink:href="#DejaVuSerif-39"/>
     <use x="222.65625" xlink:href="#DejaVuSerif-36"/>
    </g>
   </g>
   <g id="text_24">
    <!-- 25.03 -->
    <g transform="translate(560.544766 363.394824)scale(0.16 -0.16)">
     <use xlink:href="#DejaVuSerif-32"/>
     <use x="63.623047" xlink:href="#DejaVuSerif-35"/>
     <use x="127.246094" xlink:href="#DejaVuSerif-2e"/>
     <use x="159.033203" xlink:href="#DejaVuSerif-30"/>
     <use x="222.65625" xlink:href="#DejaVuSerif-33"/>
    </g>
   </g>
   <g id="text_25">
    <!-- 25.29 -->
    <g transform="translate(630.999312 362.201438)scale(0.16 -0.16)">
     <use xlink:href="#DejaVuSerif-32"/>
     <use x="63.623047" xlink:href="#DejaVuSerif-35"/>
     <use x="127.246094" xlink:href="#DejaVuSerif-2e"/>
     <use x="159.033203" xlink:href="#DejaVuSerif-32"/>
     <use x="222.65625" xlink:href="#DejaVuSerif-39"/>
    </g>
   </g>
   <g id="text_26">
    <!-- 27.38 -->
    <g transform="translate(701.453857 352.583939)scale(0.16 -0.16)">
     <use xlink:href="#DejaVuSerif-32"/>
     <use x="63.623047" xlink:href="#DejaVuSerif-37"/>
     <use x="127.246094" xlink:href="#DejaVuSerif-2e"/>
     <use x="159.033203" xlink:href="#DejaVuSerif-33"/>
     <use x="222.65625" xlink:href="#DejaVuSerif-38"/>
    </g>
   </g>
   <g id="text_27">
    <!-- 28.15 -->
    <g transform="translate(771.908403 349.060497)scale(0.16 -0.16)">
     <use xlink:href="#DejaVuSerif-32"/>
     <use x="63.623047" xlink:href="#DejaVuSerif-38"/>
     <use x="127.246094" xlink:href="#DejaVuSerif-2e"/>
     <use x="159.033203" xlink:href="#DejaVuSerif-31"/>
     <use x="222.65625" xlink:href="#DejaVuSerif-35"/>
    </g>
   </g>
   <g id="text_28">
    <!-- 58.58 -->
    <g transform="translate(842.362948 209.279733)scale(0.16 -0.16)">
     <use xlink:href="#DejaVuSerif-35"/>
     <use x="63.623047" xlink:href="#DejaVuSerif-38"/>
     <use x="127.246094" xlink:href="#DejaVuSerif-2e"/>
     <use x="159.033203" xlink:href="#DejaVuSerif-35"/>
     <use x="222.65625" xlink:href="#DejaVuSerif-38"/>
    </g>
   </g>
   <g id="text_29">
    <!-- MSE Performance for All Models -->
    <g transform="translate(279.231357 31.515)scale(0.32 -0.32)">
     <use xlink:href="#DejaVuSerif-4d"/>
     <use x="102.392578" xlink:href="#DejaVuSerif-53"/>
     <use x="170.898438" xlink:href="#DejaVuSerif-45"/>
     <use x="243.896484" xlink:href="#DejaVuSerif-20"/>
     <use x="275.683594" xlink:href="#DejaVuSerif-50"/>
     <use x="338.46875" xlink:href="#DejaVuSerif-65"/>
     <use x="397.648438" xlink:href="#DejaVuSerif-72"/>
     <use x="445.451172" xlink:href="#DejaVuSerif-66"/>
     <use x="482.462891" xlink:href="#DejaVuSerif-6f"/>
     <use x="542.667969" xlink:href="#DejaVuSerif-72"/>
     <use x="590.470703" xlink:href="#DejaVuSerif-6d"/>
     <use x="685.294922" xlink:href="#DejaVuSerif-61"/>
     <use x="744.914062" xlink:href="#DejaVuSerif-6e"/>
     <use x="809.318359" xlink:href="#DejaVuSerif-63"/>
     <use x="865.324219" xlink:href="#DejaVuSerif-65"/>
     <use x="924.503906" xlink:href="#DejaVuSerif-20"/>
     <use x="956.291016" xlink:href="#DejaVuSerif-66"/>
     <use x="993.302734" xlink:href="#DejaVuSerif-6f"/>
     <use x="1053.507812" xlink:href="#DejaVuSerif-72"/>
     <use x="1101.310547" xlink:href="#DejaVuSerif-20"/>
     <use x="1133.097656" xlink:href="#DejaVuSerif-41"/>
     <use x="1205.314453" xlink:href="#DejaVuSerif-6c"/>
     <use x="1237.296875" xlink:href="#DejaVuSerif-6c"/>
     <use x="1269.279297" xlink:href="#DejaVuSerif-20"/>
     <use x="1301.066406" xlink:href="#DejaVuSerif-4d"/>
     <use x="1403.458984" xlink:href="#DejaVuSerif-6f"/>
     <use x="1463.664062" xlink:href="#DejaVuSerif-64"/>
     <use x="1527.677734" xlink:href="#DejaVuSerif-65"/>
     <use x="1586.857422" xlink:href="#DejaVuSerif-6c"/>
     <use x="1618.839844" xlink:href="#DejaVuSerif-73"/>
    </g>
   </g>
  </g>
 </g>
 <defs>
  <clipPath id="p437807685e">
   <rect height="443.52" width="837" x="127.953857" y="38.17"/>
  </clipPath>
 </defs>
</svg>
