<?xml version="1.0" encoding="utf-8" standalone="no"?>
<!DOCTYPE svg PUBLIC "-//W3C//DTD SVG 1.1//EN"
  "http://www.w3.org/Graphics/SVG/1.1/DTD/svg11.dtd">
<svg height="689.279085pt" version="1.1" viewBox="0 0 937.625936 689.279085" width="937.625936pt" xmlns="http://www.w3.org/2000/svg" xmlns:xlink="http://www.w3.org/1999/xlink">
 <metadata>
  <rdf:RDF xmlns:cc="http://creativecommons.org/ns#" xmlns:dc="http://purl.org/dc/elements/1.1/" xmlns:rdf="http://www.w3.org/1999/02/22-rdf-syntax-ns#">
   <cc:Work>
    <dc:type rdf:resource="http://purl.org/dc/dcmitype/StillImage"/>
    <dc:date>2021-12-02T17:08:16.172352</dc:date>
    <dc:format>image/svg+xml</dc:format>
    <dc:creator>
     <cc:Agent>
      <dc:title>Matplotlib v3.4.2, https://matplotlib.org/</dc:title>
     </cc:Agent>
    </dc:creator>
   </cc:Work>
  </rdf:RDF>
 </metadata>
 <defs>
  <style type="text/css">*{stroke-linecap:butt;stroke-linejoin:round;}</style>
 </defs>
 <g id="figure_1">
  <g id="patch_1">
   <path d="M 0 689.279085 
L 937.625936 689.279085 
L 937.625936 0 
L 0 0 
z
" style="fill:#ffffff;"/>
  </g>
  <g id="axes_1">
   <g id="patch_2">
    <path d="M 93.425936 482.145 
L 930.425936 482.145 
L 930.425936 38.625 
L 93.425936 38.625 
z
" style="fill:#ffffff;"/>
   </g>
   <g id="patch_3">
    <path clip-path="url(#pb2c69a2442)" d="M 131.471391 449.437848 
L 200.644944 449.437848 
L 200.644944 350.104996 
L 131.471391 350.104996 
z
" style="fill:#1f77b4;opacity:0.5;"/>
   </g>
   <g id="patch_4">
    <path clip-path="url(#pb2c69a2442)" d="M 217.938333 449.437848 
L 287.111887 449.437848 
L 287.111887 350.104996 
L 217.938333 350.104996 
z
" style="fill:#1f77b4;opacity:0.5;"/>
   </g>
   <g id="patch_5">
    <path clip-path="url(#pb2c69a2442)" d="M 304.405275 449.437848 
L 373.578829 449.437848 
L 373.578829 343.696425 
L 304.405275 343.696425 
z
" style="fill:#1f77b4;opacity:0.5;"/>
   </g>
   <g id="patch_6">
    <path clip-path="url(#pb2c69a2442)" d="M 390.872217 449.437848 
L 460.045771 449.437848 
L 460.045771 337.287853 
L 390.872217 337.287853 
z
" style="fill:#1f77b4;opacity:0.5;"/>
   </g>
   <g id="patch_7">
    <path clip-path="url(#pb2c69a2442)" d="M 477.339159 449.437848 
L 546.512713 449.437848 
L 546.512713 327.674997 
L 477.339159 327.674997 
z
" style="fill:#1f77b4;opacity:0.5;"/>
   </g>
   <g id="patch_8">
    <path clip-path="url(#pb2c69a2442)" d="M 563.806101 449.437848 
L 632.979655 449.437848 
L 632.979655 321.266426 
L 563.806101 321.266426 
z
" style="fill:#1f77b4;opacity:0.5;"/>
   </g>
   <g id="patch_9">
    <path clip-path="url(#pb2c69a2442)" d="M 650.273044 449.437848 
L 719.446597 449.437848 
L 719.446597 318.06214 
L 650.273044 318.06214 
z
" style="fill:#1f77b4;opacity:0.5;"/>
   </g>
   <g id="patch_10">
    <path clip-path="url(#pb2c69a2442)" d="M 736.739986 449.437848 
L 805.913539 449.437848 
L 805.913539 276.406428 
L 736.739986 276.406428 
z
" style="fill:#1f77b4;opacity:0.5;"/>
   </g>
   <g id="patch_11">
    <path clip-path="url(#pb2c69a2442)" d="M 823.206928 449.437848 
L 892.380482 449.437848 
L 892.380482 260.385 
L 823.206928 260.385 
z
" style="fill:#1f77b4;opacity:0.5;"/>
   </g>
   <g id="matplotlib.axis_1">
    <g id="xtick_1">
     <g id="line2d_1">
      <defs>
       <path d="M 0 0 
L 0 3.5 
" id="m859640de12" style="stroke:#000000;stroke-width:0.8;"/>
      </defs>
      <g>
       <use style="stroke:#000000;stroke-width:0.8;" x="166.058168" xlink:href="#m859640de12" y="482.145"/>
      </g>
     </g>
     <g id="text_1">
      <!-- gru_unstacked_joint -->
      <g transform="translate(17.945813 644.668717)rotate(-45)scale(0.2 -0.2)">
       <defs>
        <path d="M 3359 2988 
L 3359 72 
Q 3359 -644 2965 -1033 
Q 2572 -1422 1844 -1422 
Q 1516 -1422 1216 -1362 
Q 916 -1303 641 -1184 
L 641 -488 
L 941 -488 
Q 997 -813 1206 -963 
Q 1416 -1113 1806 -1113 
Q 2313 -1113 2548 -827 
Q 2784 -541 2784 72 
L 2784 519 
Q 2616 206 2355 57 
Q 2094 -91 1709 -91 
Q 1097 -91 708 395 
Q 319 881 319 1663 
Q 319 2444 706 2928 
Q 1094 3413 1709 3413 
Q 2094 3413 2355 3264 
Q 2616 3116 2784 2803 
L 2784 3322 
L 3909 3322 
L 3909 2988 
L 3359 2988 
z
M 2784 1825 
Q 2784 2422 2554 2737 
Q 2325 3053 1888 3053 
Q 1444 3053 1217 2703 
Q 991 2353 991 1663 
Q 991 975 1217 622 
Q 1444 269 1888 269 
Q 2325 269 2554 583 
Q 2784 897 2784 1497 
L 2784 1825 
z
" id="DejaVuSerif-67" transform="scale(0.015625)"/>
        <path d="M 3059 3328 
L 3059 2497 
L 2728 2497 
Q 2713 2744 2591 2866 
Q 2469 2988 2234 2988 
Q 1809 2988 1582 2694 
Q 1356 2400 1356 1850 
L 1356 331 
L 2022 331 
L 2022 0 
L 263 0 
L 263 331 
L 781 331 
L 781 2994 
L 231 2994 
L 231 3322 
L 1356 3322 
L 1356 2731 
Q 1525 3078 1790 3245 
Q 2056 3413 2438 3413 
Q 2578 3413 2733 3391 
Q 2888 3369 3059 3328 
z
" id="DejaVuSerif-72" transform="scale(0.015625)"/>
        <path d="M 2266 3322 
L 3341 3322 
L 3341 331 
L 3884 331 
L 3884 0 
L 2766 0 
L 2766 588 
Q 2606 256 2353 82 
Q 2100 -91 1766 -91 
Q 1213 -91 952 223 
Q 691 538 691 1209 
L 691 2988 
L 172 2988 
L 172 3322 
L 1269 3322 
L 1269 1388 
Q 1269 781 1417 556 
Q 1566 331 1947 331 
Q 2347 331 2556 625 
Q 2766 919 2766 1478 
L 2766 2988 
L 2266 2988 
L 2266 3322 
z
" id="DejaVuSerif-75" transform="scale(0.015625)"/>
        <path d="M 3200 -1259 
L 3200 -1509 
L 0 -1509 
L 0 -1259 
L 3200 -1259 
z
" id="DejaVuSerif-5f" transform="scale(0.015625)"/>
        <path d="M 263 0 
L 263 331 
L 781 331 
L 781 2988 
L 231 2988 
L 231 3322 
L 1356 3322 
L 1356 2731 
Q 1516 3069 1770 3241 
Q 2025 3413 2363 3413 
Q 2913 3413 3172 3097 
Q 3431 2781 3431 2113 
L 3431 331 
L 3944 331 
L 3944 0 
L 2356 0 
L 2356 331 
L 2853 331 
L 2853 1931 
Q 2853 2541 2703 2767 
Q 2553 2994 2175 2994 
Q 1775 2994 1565 2701 
Q 1356 2409 1356 1850 
L 1356 331 
L 1856 331 
L 1856 0 
L 263 0 
z
" id="DejaVuSerif-6e" transform="scale(0.015625)"/>
        <path d="M 359 184 
L 359 959 
L 691 959 
Q 703 588 923 403 
Q 1144 219 1575 219 
Q 1963 219 2166 364 
Q 2369 509 2369 788 
Q 2369 1006 2220 1140 
Q 2072 1275 1594 1428 
L 1178 1569 
Q 750 1706 558 1912 
Q 366 2119 366 2438 
Q 366 2894 700 3153 
Q 1034 3413 1625 3413 
Q 1888 3413 2178 3344 
Q 2469 3275 2778 3144 
L 2778 2419 
L 2447 2419 
Q 2434 2741 2221 2922 
Q 2009 3103 1644 3103 
Q 1281 3103 1095 2975 
Q 909 2847 909 2591 
Q 909 2381 1050 2254 
Q 1191 2128 1613 1997 
L 2069 1856 
Q 2541 1709 2748 1489 
Q 2956 1269 2956 922 
Q 2956 450 2595 179 
Q 2234 -91 1600 -91 
Q 1278 -91 972 -22 
Q 666 47 359 184 
z
" id="DejaVuSerif-73" transform="scale(0.015625)"/>
        <path d="M 691 2988 
L 184 2988 
L 184 3322 
L 691 3322 
L 691 4353 
L 1269 4353 
L 1269 3322 
L 2350 3322 
L 2350 2988 
L 1269 2988 
L 1269 878 
Q 1269 456 1350 337 
Q 1431 219 1650 219 
Q 1875 219 1978 351 
Q 2081 484 2088 781 
L 2522 781 
Q 2497 328 2275 118 
Q 2053 -91 1600 -91 
Q 1103 -91 897 129 
Q 691 350 691 878 
L 691 2988 
z
" id="DejaVuSerif-74" transform="scale(0.015625)"/>
        <path d="M 2547 1044 
L 2547 1747 
L 1806 1747 
Q 1378 1747 1168 1562 
Q 959 1378 959 997 
Q 959 650 1171 447 
Q 1384 244 1747 244 
Q 2106 244 2326 466 
Q 2547 688 2547 1044 
z
M 3122 2075 
L 3122 331 
L 3634 331 
L 3634 0 
L 2547 0 
L 2547 359 
Q 2356 128 2106 18 
Q 1856 -91 1522 -91 
Q 969 -91 644 203 
Q 319 497 319 997 
Q 319 1513 691 1797 
Q 1063 2081 1741 2081 
L 2547 2081 
L 2547 2309 
Q 2547 2688 2317 2895 
Q 2088 3103 1672 3103 
Q 1328 3103 1125 2947 
Q 922 2791 872 2484 
L 575 2484 
L 575 3156 
Q 875 3284 1158 3348 
Q 1441 3413 1709 3413 
Q 2400 3413 2761 3070 
Q 3122 2728 3122 2075 
z
" id="DejaVuSerif-61" transform="scale(0.015625)"/>
        <path d="M 3291 997 
Q 3169 466 2822 187 
Q 2475 -91 1925 -91 
Q 1200 -91 759 389 
Q 319 869 319 1663 
Q 319 2459 759 2936 
Q 1200 3413 1925 3413 
Q 2241 3413 2553 3339 
Q 2866 3266 3181 3116 
L 3181 2266 
L 2847 2266 
Q 2781 2703 2561 2903 
Q 2341 3103 1931 3103 
Q 1466 3103 1228 2742 
Q 991 2381 991 1663 
Q 991 944 1227 581 
Q 1463 219 1931 219 
Q 2303 219 2525 412 
Q 2747 606 2828 997 
L 3291 997 
z
" id="DejaVuSerif-63" transform="scale(0.015625)"/>
        <path d="M 1831 0 
L 219 0 
L 219 331 
L 738 331 
L 738 4531 
L 184 4531 
L 184 4863 
L 1313 4863 
L 1313 1697 
L 2713 2988 
L 2234 2988 
L 2234 3322 
L 3738 3322 
L 3738 2988 
L 3169 2988 
L 2181 2075 
L 3444 331 
L 3922 331 
L 3922 0 
L 2284 0 
L 2284 331 
L 2759 331 
L 1766 1697 
L 1313 1275 
L 1313 331 
L 1831 331 
L 1831 0 
z
" id="DejaVuSerif-6b" transform="scale(0.015625)"/>
        <path d="M 3469 1600 
L 991 1600 
L 991 1575 
Q 991 903 1244 561 
Q 1497 219 1991 219 
Q 2369 219 2611 417 
Q 2853 616 2950 1006 
L 3413 1006 
Q 3275 459 2904 184 
Q 2534 -91 1931 -91 
Q 1203 -91 761 389 
Q 319 869 319 1663 
Q 319 2450 753 2931 
Q 1188 3413 1894 3413 
Q 2647 3413 3050 2948 
Q 3453 2484 3469 1600 
z
M 2791 1931 
Q 2772 2513 2545 2808 
Q 2319 3103 1894 3103 
Q 1497 3103 1269 2806 
Q 1041 2509 991 1931 
L 2791 1931 
z
" id="DejaVuSerif-65" transform="scale(0.015625)"/>
        <path d="M 3359 331 
L 3909 331 
L 3909 0 
L 2784 0 
L 2784 519 
Q 2616 206 2355 57 
Q 2094 -91 1709 -91 
Q 1097 -91 708 395 
Q 319 881 319 1663 
Q 319 2444 706 2928 
Q 1094 3413 1709 3413 
Q 2094 3413 2355 3264 
Q 2616 3116 2784 2803 
L 2784 4531 
L 2241 4531 
L 2241 4863 
L 3359 4863 
L 3359 331 
z
M 2784 1497 
L 2784 1825 
Q 2784 2422 2554 2737 
Q 2325 3053 1888 3053 
Q 1444 3053 1217 2703 
Q 991 2353 991 1663 
Q 991 975 1217 622 
Q 1444 269 1888 269 
Q 2325 269 2554 583 
Q 2784 897 2784 1497 
z
" id="DejaVuSerif-64" transform="scale(0.015625)"/>
        <path d="M 641 4353 
Q 641 4497 745 4603 
Q 850 4709 997 4709 
Q 1141 4709 1245 4603 
Q 1350 4497 1350 4353 
Q 1350 4206 1248 4103 
Q 1147 4000 997 4000 
Q 850 4000 745 4103 
Q 641 4206 641 4353 
z
M 781 2988 
L 238 2988 
L 238 3322 
L 1356 3322 
L 1356 -325 
Q 1356 -838 1051 -1130 
Q 747 -1422 213 -1422 
Q -13 -1422 -217 -1370 
Q -422 -1319 -616 -1216 
L -616 -531 
L -319 -531 
Q -297 -831 -164 -972 
Q -31 -1113 225 -1113 
Q 509 -1113 645 -920 
Q 781 -728 781 -325 
L 781 2988 
z
" id="DejaVuSerif-6a" transform="scale(0.015625)"/>
        <path d="M 1925 219 
Q 2388 219 2623 584 
Q 2859 950 2859 1663 
Q 2859 2375 2623 2739 
Q 2388 3103 1925 3103 
Q 1463 3103 1227 2739 
Q 991 2375 991 1663 
Q 991 950 1228 584 
Q 1466 219 1925 219 
z
M 1925 -91 
Q 1200 -91 759 389 
Q 319 869 319 1663 
Q 319 2456 758 2934 
Q 1197 3413 1925 3413 
Q 2653 3413 3092 2934 
Q 3531 2456 3531 1663 
Q 3531 869 3092 389 
Q 2653 -91 1925 -91 
z
" id="DejaVuSerif-6f" transform="scale(0.015625)"/>
        <path d="M 622 4353 
Q 622 4497 726 4603 
Q 831 4709 978 4709 
Q 1122 4709 1226 4603 
Q 1331 4497 1331 4353 
Q 1331 4206 1228 4103 
Q 1125 4000 978 4000 
Q 831 4000 726 4103 
Q 622 4206 622 4353 
z
M 1356 331 
L 1900 331 
L 1900 0 
L 231 0 
L 231 331 
L 781 331 
L 781 2988 
L 231 2988 
L 231 3322 
L 1356 3322 
L 1356 331 
z
" id="DejaVuSerif-69" transform="scale(0.015625)"/>
       </defs>
       <use xlink:href="#DejaVuSerif-67"/>
       <use x="64.013672" xlink:href="#DejaVuSerif-72"/>
       <use x="111.816406" xlink:href="#DejaVuSerif-75"/>
       <use x="176.220703" xlink:href="#DejaVuSerif-5f"/>
       <use x="226.220703" xlink:href="#DejaVuSerif-75"/>
       <use x="290.625" xlink:href="#DejaVuSerif-6e"/>
       <use x="355.029297" xlink:href="#DejaVuSerif-73"/>
       <use x="406.347656" xlink:href="#DejaVuSerif-74"/>
       <use x="446.533203" xlink:href="#DejaVuSerif-61"/>
       <use x="506.152344" xlink:href="#DejaVuSerif-63"/>
       <use x="562.158203" xlink:href="#DejaVuSerif-6b"/>
       <use x="622.753906" xlink:href="#DejaVuSerif-65"/>
       <use x="681.933594" xlink:href="#DejaVuSerif-64"/>
       <use x="745.947266" xlink:href="#DejaVuSerif-5f"/>
       <use x="795.947266" xlink:href="#DejaVuSerif-6a"/>
       <use x="826.953125" xlink:href="#DejaVuSerif-6f"/>
       <use x="887.158203" xlink:href="#DejaVuSerif-69"/>
       <use x="919.140625" xlink:href="#DejaVuSerif-6e"/>
       <use x="983.544922" xlink:href="#DejaVuSerif-74"/>
      </g>
     </g>
    </g>
    <g id="xtick_2">
     <g id="line2d_2">
      <g>
       <use style="stroke:#000000;stroke-width:0.8;" x="252.52511" xlink:href="#m859640de12" y="482.145"/>
      </g>
     </g>
     <g id="text_2">
      <!-- lstm_unstacked_joint -->
      <g transform="translate(98.4598 650.621672)rotate(-45)scale(0.2 -0.2)">
       <defs>
        <path d="M 1313 331 
L 1856 331 
L 1856 0 
L 184 0 
L 184 331 
L 738 331 
L 738 4531 
L 184 4531 
L 184 4863 
L 1313 4863 
L 1313 331 
z
" id="DejaVuSerif-6c" transform="scale(0.015625)"/>
        <path d="M 3316 2675 
Q 3481 3041 3739 3227 
Q 3997 3413 4341 3413 
Q 4863 3413 5119 3089 
Q 5375 2766 5375 2113 
L 5375 331 
L 5894 331 
L 5894 0 
L 4300 0 
L 4300 331 
L 4800 331 
L 4800 2047 
Q 4800 2556 4650 2772 
Q 4500 2988 4153 2988 
Q 3769 2988 3567 2697 
Q 3366 2406 3366 1850 
L 3366 331 
L 3866 331 
L 3866 0 
L 2291 0 
L 2291 331 
L 2791 331 
L 2791 2069 
Q 2791 2566 2641 2777 
Q 2491 2988 2144 2988 
Q 1759 2988 1557 2697 
Q 1356 2406 1356 1850 
L 1356 331 
L 1856 331 
L 1856 0 
L 263 0 
L 263 331 
L 781 331 
L 781 2994 
L 231 2994 
L 231 3322 
L 1356 3322 
L 1356 2731 
Q 1516 3063 1762 3238 
Q 2009 3413 2322 3413 
Q 2709 3413 2968 3220 
Q 3228 3028 3316 2675 
z
" id="DejaVuSerif-6d" transform="scale(0.015625)"/>
       </defs>
       <use xlink:href="#DejaVuSerif-6c"/>
       <use x="31.982422" xlink:href="#DejaVuSerif-73"/>
       <use x="83.300781" xlink:href="#DejaVuSerif-74"/>
       <use x="123.486328" xlink:href="#DejaVuSerif-6d"/>
       <use x="218.310547" xlink:href="#DejaVuSerif-5f"/>
       <use x="268.310547" xlink:href="#DejaVuSerif-75"/>
       <use x="332.714844" xlink:href="#DejaVuSerif-6e"/>
       <use x="397.119141" xlink:href="#DejaVuSerif-73"/>
       <use x="448.4375" xlink:href="#DejaVuSerif-74"/>
       <use x="488.623047" xlink:href="#DejaVuSerif-61"/>
       <use x="548.242188" xlink:href="#DejaVuSerif-63"/>
       <use x="604.248047" xlink:href="#DejaVuSerif-6b"/>
       <use x="664.84375" xlink:href="#DejaVuSerif-65"/>
       <use x="724.023438" xlink:href="#DejaVuSerif-64"/>
       <use x="788.037109" xlink:href="#DejaVuSerif-5f"/>
       <use x="838.037109" xlink:href="#DejaVuSerif-6a"/>
       <use x="869.042969" xlink:href="#DejaVuSerif-6f"/>
       <use x="929.248047" xlink:href="#DejaVuSerif-69"/>
       <use x="961.230469" xlink:href="#DejaVuSerif-6e"/>
       <use x="1025.634766" xlink:href="#DejaVuSerif-74"/>
      </g>
     </g>
    </g>
    <g id="xtick_3">
     <g id="line2d_3">
      <g>
       <use style="stroke:#000000;stroke-width:0.8;" x="338.992052" xlink:href="#m859640de12" y="482.145"/>
      </g>
     </g>
     <g id="text_3">
      <!-- gru_stacked_iterative -->
      <g transform="translate(180.973574 654.574841)rotate(-45)scale(0.2 -0.2)">
       <defs>
        <path d="M 1581 0 
L 359 2988 
L -19 2988 
L -19 3322 
L 1509 3322 
L 1509 2988 
L 978 2988 
L 1913 703 
L 2847 2988 
L 2350 2988 
L 2350 3322 
L 3597 3322 
L 3597 2988 
L 3225 2988 
L 2003 0 
L 1581 0 
z
" id="DejaVuSerif-76" transform="scale(0.015625)"/>
       </defs>
       <use xlink:href="#DejaVuSerif-67"/>
       <use x="64.013672" xlink:href="#DejaVuSerif-72"/>
       <use x="111.816406" xlink:href="#DejaVuSerif-75"/>
       <use x="176.220703" xlink:href="#DejaVuSerif-5f"/>
       <use x="226.220703" xlink:href="#DejaVuSerif-73"/>
       <use x="277.539062" xlink:href="#DejaVuSerif-74"/>
       <use x="317.724609" xlink:href="#DejaVuSerif-61"/>
       <use x="377.34375" xlink:href="#DejaVuSerif-63"/>
       <use x="433.349609" xlink:href="#DejaVuSerif-6b"/>
       <use x="493.945312" xlink:href="#DejaVuSerif-65"/>
       <use x="553.125" xlink:href="#DejaVuSerif-64"/>
       <use x="617.138672" xlink:href="#DejaVuSerif-5f"/>
       <use x="667.138672" xlink:href="#DejaVuSerif-69"/>
       <use x="699.121094" xlink:href="#DejaVuSerif-74"/>
       <use x="739.306641" xlink:href="#DejaVuSerif-65"/>
       <use x="798.486328" xlink:href="#DejaVuSerif-72"/>
       <use x="846.289062" xlink:href="#DejaVuSerif-61"/>
       <use x="905.908203" xlink:href="#DejaVuSerif-74"/>
       <use x="946.09375" xlink:href="#DejaVuSerif-69"/>
       <use x="978.076172" xlink:href="#DejaVuSerif-76"/>
       <use x="1034.570312" xlink:href="#DejaVuSerif-65"/>
      </g>
     </g>
    </g>
    <g id="xtick_4">
     <g id="line2d_4">
      <g>
       <use style="stroke:#000000;stroke-width:0.8;" x="425.458994" xlink:href="#m859640de12" y="482.145"/>
      </g>
     </g>
     <g id="text_4">
      <!-- lstm_stacked_joint -->
      <g transform="translate(289.610523 632.404834)rotate(-45)scale(0.2 -0.2)">
       <use xlink:href="#DejaVuSerif-6c"/>
       <use x="31.982422" xlink:href="#DejaVuSerif-73"/>
       <use x="83.300781" xlink:href="#DejaVuSerif-74"/>
       <use x="123.486328" xlink:href="#DejaVuSerif-6d"/>
       <use x="218.310547" xlink:href="#DejaVuSerif-5f"/>
       <use x="268.310547" xlink:href="#DejaVuSerif-73"/>
       <use x="319.628906" xlink:href="#DejaVuSerif-74"/>
       <use x="359.814453" xlink:href="#DejaVuSerif-61"/>
       <use x="419.433594" xlink:href="#DejaVuSerif-63"/>
       <use x="475.439453" xlink:href="#DejaVuSerif-6b"/>
       <use x="536.035156" xlink:href="#DejaVuSerif-65"/>
       <use x="595.214844" xlink:href="#DejaVuSerif-64"/>
       <use x="659.228516" xlink:href="#DejaVuSerif-5f"/>
       <use x="709.228516" xlink:href="#DejaVuSerif-6a"/>
       <use x="740.234375" xlink:href="#DejaVuSerif-6f"/>
       <use x="800.439453" xlink:href="#DejaVuSerif-69"/>
       <use x="832.421875" xlink:href="#DejaVuSerif-6e"/>
       <use x="896.826172" xlink:href="#DejaVuSerif-74"/>
      </g>
     </g>
    </g>
    <g id="xtick_5">
     <g id="line2d_5">
      <g>
       <use style="stroke:#000000;stroke-width:0.8;" x="511.925936" xlink:href="#m859640de12" y="482.145"/>
      </g>
     </g>
     <g id="text_5">
      <!-- gru_stacked_joint -->
      <g transform="translate(382.03042 626.451879)rotate(-45)scale(0.2 -0.2)">
       <use xlink:href="#DejaVuSerif-67"/>
       <use x="64.013672" xlink:href="#DejaVuSerif-72"/>
       <use x="111.816406" xlink:href="#DejaVuSerif-75"/>
       <use x="176.220703" xlink:href="#DejaVuSerif-5f"/>
       <use x="226.220703" xlink:href="#DejaVuSerif-73"/>
       <use x="277.539062" xlink:href="#DejaVuSerif-74"/>
       <use x="317.724609" xlink:href="#DejaVuSerif-61"/>
       <use x="377.34375" xlink:href="#DejaVuSerif-63"/>
       <use x="433.349609" xlink:href="#DejaVuSerif-6b"/>
       <use x="493.945312" xlink:href="#DejaVuSerif-65"/>
       <use x="553.125" xlink:href="#DejaVuSerif-64"/>
       <use x="617.138672" xlink:href="#DejaVuSerif-5f"/>
       <use x="667.138672" xlink:href="#DejaVuSerif-6a"/>
       <use x="698.144531" xlink:href="#DejaVuSerif-6f"/>
       <use x="758.349609" xlink:href="#DejaVuSerif-69"/>
       <use x="790.332031" xlink:href="#DejaVuSerif-6e"/>
       <use x="854.736328" xlink:href="#DejaVuSerif-74"/>
      </g>
     </g>
    </g>
    <g id="xtick_6">
     <g id="line2d_6">
      <g>
       <use style="stroke:#000000;stroke-width:0.8;" x="598.392878" xlink:href="#m859640de12" y="482.145"/>
      </g>
     </g>
     <g id="text_6">
      <!-- lstm_stacked_iterative -->
      <g transform="translate(434.421445 660.527796)rotate(-45)scale(0.2 -0.2)">
       <use xlink:href="#DejaVuSerif-6c"/>
       <use x="31.982422" xlink:href="#DejaVuSerif-73"/>
       <use x="83.300781" xlink:href="#DejaVuSerif-74"/>
       <use x="123.486328" xlink:href="#DejaVuSerif-6d"/>
       <use x="218.310547" xlink:href="#DejaVuSerif-5f"/>
       <use x="268.310547" xlink:href="#DejaVuSerif-73"/>
       <use x="319.628906" xlink:href="#DejaVuSerif-74"/>
       <use x="359.814453" xlink:href="#DejaVuSerif-61"/>
       <use x="419.433594" xlink:href="#DejaVuSerif-63"/>
       <use x="475.439453" xlink:href="#DejaVuSerif-6b"/>
       <use x="536.035156" xlink:href="#DejaVuSerif-65"/>
       <use x="595.214844" xlink:href="#DejaVuSerif-64"/>
       <use x="659.228516" xlink:href="#DejaVuSerif-5f"/>
       <use x="709.228516" xlink:href="#DejaVuSerif-69"/>
       <use x="741.210938" xlink:href="#DejaVuSerif-74"/>
       <use x="781.396484" xlink:href="#DejaVuSerif-65"/>
       <use x="840.576172" xlink:href="#DejaVuSerif-72"/>
       <use x="888.378906" xlink:href="#DejaVuSerif-61"/>
       <use x="947.998047" xlink:href="#DejaVuSerif-74"/>
       <use x="988.183594" xlink:href="#DejaVuSerif-69"/>
       <use x="1020.166016" xlink:href="#DejaVuSerif-76"/>
       <use x="1076.660156" xlink:href="#DejaVuSerif-65"/>
      </g>
     </g>
    </g>
    <g id="xtick_7">
     <g id="line2d_7">
      <g>
       <use style="stroke:#000000;stroke-width:0.8;" x="684.85982" xlink:href="#m859640de12" y="482.145"/>
      </g>
     </g>
     <g id="text_7">
      <!-- cnn -->
      <g transform="translate(655.782264 526.027248)rotate(-45)scale(0.2 -0.2)">
       <use xlink:href="#DejaVuSerif-63"/>
       <use x="56.005859" xlink:href="#DejaVuSerif-6e"/>
       <use x="120.410156" xlink:href="#DejaVuSerif-6e"/>
      </g>
     </g>
    </g>
    <g id="xtick_8">
     <g id="line2d_8">
      <g>
       <use style="stroke:#000000;stroke-width:0.8;" x="771.326763" xlink:href="#m859640de12" y="482.145"/>
      </g>
     </g>
     <g id="text_8">
      <!-- gru_unstacked_iterative -->
      <g transform="translate(595.091446 672.79168)rotate(-45)scale(0.2 -0.2)">
       <use xlink:href="#DejaVuSerif-67"/>
       <use x="64.013672" xlink:href="#DejaVuSerif-72"/>
       <use x="111.816406" xlink:href="#DejaVuSerif-75"/>
       <use x="176.220703" xlink:href="#DejaVuSerif-5f"/>
       <use x="226.220703" xlink:href="#DejaVuSerif-75"/>
       <use x="290.625" xlink:href="#DejaVuSerif-6e"/>
       <use x="355.029297" xlink:href="#DejaVuSerif-73"/>
       <use x="406.347656" xlink:href="#DejaVuSerif-74"/>
       <use x="446.533203" xlink:href="#DejaVuSerif-61"/>
       <use x="506.152344" xlink:href="#DejaVuSerif-63"/>
       <use x="562.158203" xlink:href="#DejaVuSerif-6b"/>
       <use x="622.753906" xlink:href="#DejaVuSerif-65"/>
       <use x="681.933594" xlink:href="#DejaVuSerif-64"/>
       <use x="745.947266" xlink:href="#DejaVuSerif-5f"/>
       <use x="795.947266" xlink:href="#DejaVuSerif-69"/>
       <use x="827.929688" xlink:href="#DejaVuSerif-74"/>
       <use x="868.115234" xlink:href="#DejaVuSerif-65"/>
       <use x="927.294922" xlink:href="#DejaVuSerif-72"/>
       <use x="975.097656" xlink:href="#DejaVuSerif-61"/>
       <use x="1034.716797" xlink:href="#DejaVuSerif-74"/>
       <use x="1074.902344" xlink:href="#DejaVuSerif-69"/>
       <use x="1106.884766" xlink:href="#DejaVuSerif-76"/>
       <use x="1163.378906" xlink:href="#DejaVuSerif-65"/>
      </g>
     </g>
    </g>
    <g id="xtick_9">
     <g id="line2d_9">
      <g>
       <use style="stroke:#000000;stroke-width:0.8;" x="857.793705" xlink:href="#m859640de12" y="482.145"/>
      </g>
     </g>
     <g id="text_9">
      <!-- lstm_unstacked_iterative -->
      <g transform="translate(675.605433 678.744635)rotate(-45)scale(0.2 -0.2)">
       <use xlink:href="#DejaVuSerif-6c"/>
       <use x="31.982422" xlink:href="#DejaVuSerif-73"/>
       <use x="83.300781" xlink:href="#DejaVuSerif-74"/>
       <use x="123.486328" xlink:href="#DejaVuSerif-6d"/>
       <use x="218.310547" xlink:href="#DejaVuSerif-5f"/>
       <use x="268.310547" xlink:href="#DejaVuSerif-75"/>
       <use x="332.714844" xlink:href="#DejaVuSerif-6e"/>
       <use x="397.119141" xlink:href="#DejaVuSerif-73"/>
       <use x="448.4375" xlink:href="#DejaVuSerif-74"/>
       <use x="488.623047" xlink:href="#DejaVuSerif-61"/>
       <use x="548.242188" xlink:href="#DejaVuSerif-63"/>
       <use x="604.248047" xlink:href="#DejaVuSerif-6b"/>
       <use x="664.84375" xlink:href="#DejaVuSerif-65"/>
       <use x="724.023438" xlink:href="#DejaVuSerif-64"/>
       <use x="788.037109" xlink:href="#DejaVuSerif-5f"/>
       <use x="838.037109" xlink:href="#DejaVuSerif-69"/>
       <use x="870.019531" xlink:href="#DejaVuSerif-74"/>
       <use x="910.205078" xlink:href="#DejaVuSerif-65"/>
       <use x="969.384766" xlink:href="#DejaVuSerif-72"/>
       <use x="1017.1875" xlink:href="#DejaVuSerif-61"/>
       <use x="1076.806641" xlink:href="#DejaVuSerif-74"/>
       <use x="1116.992188" xlink:href="#DejaVuSerif-69"/>
       <use x="1148.974609" xlink:href="#DejaVuSerif-76"/>
       <use x="1205.46875" xlink:href="#DejaVuSerif-65"/>
      </g>
     </g>
    </g>
   </g>
   <g id="matplotlib.axis_2">
    <g id="ytick_1">
     <g id="line2d_10">
      <path clip-path="url(#pb2c69a2442)" d="M 93.425936 449.437848 
L 930.425936 449.437848 
" style="fill:none;stroke:#b0b0b0;stroke-linecap:square;stroke-width:0.8;"/>
     </g>
     <g id="line2d_11">
      <defs>
       <path d="M 0 0 
L -3.5 0 
" id="mbf702a32e1" style="stroke:#000000;stroke-width:0.8;"/>
      </defs>
      <g>
       <use style="stroke:#000000;stroke-width:0.8;" x="93.425936" xlink:href="#mbf702a32e1" y="449.437848"/>
      </g>
     </g>
     <g id="text_10">
      <!-- 0 -->
      <g transform="translate(73.700936 457.036286)scale(0.2 -0.2)">
       <defs>
        <path d="M 2034 219 
Q 2513 219 2750 744 
Q 2988 1269 2988 2328 
Q 2988 3391 2750 3916 
Q 2513 4441 2034 4441 
Q 1556 4441 1318 3916 
Q 1081 3391 1081 2328 
Q 1081 1269 1318 744 
Q 1556 219 2034 219 
z
M 2034 -91 
Q 1275 -91 848 546 
Q 422 1184 422 2328 
Q 422 3475 848 4112 
Q 1275 4750 2034 4750 
Q 2797 4750 3222 4112 
Q 3647 3475 3647 2328 
Q 3647 1184 3222 546 
Q 2797 -91 2034 -91 
z
" id="DejaVuSerif-30" transform="scale(0.015625)"/>
       </defs>
       <use xlink:href="#DejaVuSerif-30"/>
      </g>
     </g>
    </g>
    <g id="ytick_2">
     <g id="line2d_12">
      <path clip-path="url(#pb2c69a2442)" d="M 93.425936 369.330709 
L 930.425936 369.330709 
" style="fill:none;stroke:#b0b0b0;stroke-linecap:square;stroke-width:0.8;"/>
     </g>
     <g id="line2d_13">
      <g>
       <use style="stroke:#000000;stroke-width:0.8;" x="93.425936" xlink:href="#mbf702a32e1" y="369.330709"/>
      </g>
     </g>
     <g id="text_11">
      <!-- 5 -->
      <g transform="translate(73.700936 376.929147)scale(0.2 -0.2)">
       <defs>
        <path d="M 3219 4666 
L 3219 4153 
L 1081 4153 
L 1081 2816 
Q 1244 2928 1461 2984 
Q 1678 3041 1947 3041 
Q 2703 3041 3140 2622 
Q 3578 2203 3578 1478 
Q 3578 738 3136 323 
Q 2694 -91 1894 -91 
Q 1572 -91 1234 -12 
Q 897 66 544 225 
L 544 1131 
L 897 1131 
Q 925 688 1179 453 
Q 1434 219 1894 219 
Q 2388 219 2653 544 
Q 2919 869 2919 1478 
Q 2919 2084 2655 2407 
Q 2391 2731 1894 2731 
Q 1613 2731 1398 2631 
Q 1184 2531 1019 2322 
L 750 2322 
L 750 4666 
L 3219 4666 
z
" id="DejaVuSerif-35" transform="scale(0.015625)"/>
       </defs>
       <use xlink:href="#DejaVuSerif-35"/>
      </g>
     </g>
    </g>
    <g id="ytick_3">
     <g id="line2d_14">
      <path clip-path="url(#pb2c69a2442)" d="M 93.425936 289.22357 
L 930.425936 289.22357 
" style="fill:none;stroke:#b0b0b0;stroke-linecap:square;stroke-width:0.8;"/>
     </g>
     <g id="line2d_15">
      <g>
       <use style="stroke:#000000;stroke-width:0.8;" x="93.425936" xlink:href="#mbf702a32e1" y="289.22357"/>
      </g>
     </g>
     <g id="text_12">
      <!-- 10 -->
      <g transform="translate(60.975936 296.822008)scale(0.2 -0.2)">
       <defs>
        <path d="M 909 0 
L 909 331 
L 1722 331 
L 1722 4213 
L 781 3603 
L 781 4013 
L 1919 4750 
L 2350 4750 
L 2350 331 
L 3163 331 
L 3163 0 
L 909 0 
z
" id="DejaVuSerif-31" transform="scale(0.015625)"/>
       </defs>
       <use xlink:href="#DejaVuSerif-31"/>
       <use x="63.623047" xlink:href="#DejaVuSerif-30"/>
      </g>
     </g>
    </g>
    <g id="ytick_4">
     <g id="line2d_16">
      <path clip-path="url(#pb2c69a2442)" d="M 93.425936 209.116431 
L 930.425936 209.116431 
" style="fill:none;stroke:#b0b0b0;stroke-linecap:square;stroke-width:0.8;"/>
     </g>
     <g id="line2d_17">
      <g>
       <use style="stroke:#000000;stroke-width:0.8;" x="93.425936" xlink:href="#mbf702a32e1" y="209.116431"/>
      </g>
     </g>
     <g id="text_13">
      <!-- 15 -->
      <g transform="translate(60.975936 216.714869)scale(0.2 -0.2)">
       <use xlink:href="#DejaVuSerif-31"/>
       <use x="63.623047" xlink:href="#DejaVuSerif-35"/>
      </g>
     </g>
    </g>
    <g id="ytick_5">
     <g id="line2d_18">
      <path clip-path="url(#pb2c69a2442)" d="M 93.425936 129.009292 
L 930.425936 129.009292 
" style="fill:none;stroke:#b0b0b0;stroke-linecap:square;stroke-width:0.8;"/>
     </g>
     <g id="line2d_19">
      <g>
       <use style="stroke:#000000;stroke-width:0.8;" x="93.425936" xlink:href="#mbf702a32e1" y="129.009292"/>
      </g>
     </g>
     <g id="text_14">
      <!-- 20 -->
      <g transform="translate(60.975936 136.60773)scale(0.2 -0.2)">
       <defs>
        <path d="M 819 3553 
L 469 3553 
L 469 4384 
Q 803 4563 1142 4656 
Q 1481 4750 1806 4750 
Q 2534 4750 2956 4397 
Q 3378 4044 3378 3438 
Q 3378 2753 2422 1800 
Q 2347 1728 2309 1691 
L 1131 513 
L 3078 513 
L 3078 1088 
L 3444 1088 
L 3444 0 
L 434 0 
L 434 341 
L 1850 1753 
Q 2319 2222 2519 2614 
Q 2719 3006 2719 3438 
Q 2719 3909 2473 4175 
Q 2228 4441 1797 4441 
Q 1350 4441 1106 4219 
Q 863 3997 819 3553 
z
" id="DejaVuSerif-32" transform="scale(0.015625)"/>
       </defs>
       <use xlink:href="#DejaVuSerif-32"/>
       <use x="63.623047" xlink:href="#DejaVuSerif-30"/>
      </g>
     </g>
    </g>
    <g id="ytick_6">
     <g id="line2d_20">
      <path clip-path="url(#pb2c69a2442)" d="M 93.425936 48.902153 
L 930.425936 48.902153 
" style="fill:none;stroke:#b0b0b0;stroke-linecap:square;stroke-width:0.8;"/>
     </g>
     <g id="line2d_21">
      <g>
       <use style="stroke:#000000;stroke-width:0.8;" x="93.425936" xlink:href="#mbf702a32e1" y="48.902153"/>
      </g>
     </g>
     <g id="text_15">
      <!-- 25 -->
      <g transform="translate(60.975936 56.500591)scale(0.2 -0.2)">
       <use xlink:href="#DejaVuSerif-32"/>
       <use x="63.623047" xlink:href="#DejaVuSerif-35"/>
      </g>
     </g>
    </g>
    <g id="text_16">
     <!-- Epochs Until Early Stopping -->
     <g transform="translate(51.643436 433.588125)rotate(-90)scale(0.24 -0.24)">
      <defs>
       <path d="M 353 0 
L 353 331 
L 947 331 
L 947 4331 
L 353 4331 
L 353 4666 
L 4109 4666 
L 4109 3628 
L 3725 3628 
L 3725 4281 
L 1581 4281 
L 1581 2719 
L 3109 2719 
L 3109 3303 
L 3494 3303 
L 3494 1753 
L 3109 1753 
L 3109 2338 
L 1581 2338 
L 1581 384 
L 3775 384 
L 3775 1038 
L 4159 1038 
L 4159 0 
L 353 0 
z
" id="DejaVuSerif-45" transform="scale(0.015625)"/>
       <path d="M 1313 1825 
L 1313 1497 
Q 1313 897 1542 583 
Q 1772 269 2209 269 
Q 2650 269 2876 622 
Q 3103 975 3103 1663 
Q 3103 2353 2876 2703 
Q 2650 3053 2209 3053 
Q 1772 3053 1542 2737 
Q 1313 2422 1313 1825 
z
M 738 2988 
L 184 2988 
L 184 3322 
L 1313 3322 
L 1313 2803 
Q 1481 3116 1742 3264 
Q 2003 3413 2388 3413 
Q 3000 3413 3387 2928 
Q 3775 2444 3775 1663 
Q 3775 881 3387 395 
Q 3000 -91 2388 -91 
Q 2003 -91 1742 57 
Q 1481 206 1313 519 
L 1313 -997 
L 1856 -997 
L 1856 -1331 
L 184 -1331 
L 184 -997 
L 738 -997 
L 738 2988 
z
" id="DejaVuSerif-70" transform="scale(0.015625)"/>
       <path d="M 263 0 
L 263 331 
L 781 331 
L 781 4531 
L 231 4531 
L 231 4863 
L 1356 4863 
L 1356 2731 
Q 1516 3069 1770 3241 
Q 2025 3413 2363 3413 
Q 2913 3413 3172 3097 
Q 3431 2781 3431 2113 
L 3431 331 
L 3944 331 
L 3944 0 
L 2356 0 
L 2356 331 
L 2853 331 
L 2853 1931 
Q 2853 2541 2704 2764 
Q 2556 2988 2175 2988 
Q 1775 2988 1565 2697 
Q 1356 2406 1356 1850 
L 1356 331 
L 1856 331 
L 1856 0 
L 263 0 
z
" id="DejaVuSerif-68" transform="scale(0.015625)"/>
       <path id="DejaVuSerif-20" transform="scale(0.015625)"/>
       <path d="M 897 4331 
L 300 4331 
L 300 4666 
L 2125 4666 
L 2125 4331 
L 1528 4331 
L 1528 1919 
Q 1528 1025 1820 672 
Q 2113 319 2828 319 
Q 3544 319 3836 672 
Q 4128 1025 4128 1919 
L 4128 4331 
L 3531 4331 
L 3531 4666 
L 5106 4666 
L 5106 4331 
L 4513 4331 
L 4513 1856 
Q 4513 791 4103 350 
Q 3694 -91 2713 -91 
Q 1731 -91 1314 353 
Q 897 797 897 1856 
L 897 4331 
z
" id="DejaVuSerif-55" transform="scale(0.015625)"/>
       <path d="M 1381 -609 
L 1600 -56 
L 359 2988 
L -19 2988 
L -19 3322 
L 1509 3322 
L 1509 2988 
L 978 2988 
L 1913 703 
L 2847 2988 
L 2350 2988 
L 2350 3322 
L 3597 3322 
L 3597 2988 
L 3225 2988 
L 1703 -750 
Q 1547 -1138 1356 -1280 
Q 1166 -1422 819 -1422 
Q 672 -1422 517 -1397 
Q 363 -1372 206 -1325 
L 206 -691 
L 500 -691 
Q 519 -903 608 -995 
Q 697 -1088 884 -1088 
Q 1056 -1088 1161 -992 
Q 1266 -897 1381 -609 
z
" id="DejaVuSerif-79" transform="scale(0.015625)"/>
       <path d="M 594 225 
L 594 1288 
L 953 1284 
Q 969 753 1261 498 
Q 1553 244 2150 244 
Q 2706 244 2998 464 
Q 3291 684 3291 1106 
Q 3291 1444 3114 1625 
Q 2938 1806 2369 1978 
L 1753 2163 
Q 1084 2366 811 2669 
Q 538 2972 538 3500 
Q 538 4094 959 4422 
Q 1381 4750 2144 4750 
Q 2469 4750 2856 4679 
Q 3244 4609 3681 4475 
L 3681 3481 
L 3328 3481 
Q 3275 3975 2998 4195 
Q 2722 4416 2156 4416 
Q 1663 4416 1405 4214 
Q 1147 4013 1147 3628 
Q 1147 3294 1340 3103 
Q 1534 2913 2163 2725 
L 2741 2553 
Q 3375 2363 3645 2067 
Q 3916 1772 3916 1275 
Q 3916 597 3481 253 
Q 3047 -91 2188 -91 
Q 1803 -91 1404 -12 
Q 1006 66 594 225 
z
" id="DejaVuSerif-53" transform="scale(0.015625)"/>
      </defs>
      <use xlink:href="#DejaVuSerif-45"/>
      <use x="72.998047" xlink:href="#DejaVuSerif-70"/>
      <use x="137.011719" xlink:href="#DejaVuSerif-6f"/>
      <use x="197.216797" xlink:href="#DejaVuSerif-63"/>
      <use x="253.222656" xlink:href="#DejaVuSerif-68"/>
      <use x="317.626953" xlink:href="#DejaVuSerif-73"/>
      <use x="368.945312" xlink:href="#DejaVuSerif-20"/>
      <use x="400.732422" xlink:href="#DejaVuSerif-55"/>
      <use x="485.009766" xlink:href="#DejaVuSerif-6e"/>
      <use x="549.414062" xlink:href="#DejaVuSerif-74"/>
      <use x="589.599609" xlink:href="#DejaVuSerif-69"/>
      <use x="621.582031" xlink:href="#DejaVuSerif-6c"/>
      <use x="653.564453" xlink:href="#DejaVuSerif-20"/>
      <use x="685.351562" xlink:href="#DejaVuSerif-45"/>
      <use x="758.349609" xlink:href="#DejaVuSerif-61"/>
      <use x="817.96875" xlink:href="#DejaVuSerif-72"/>
      <use x="865.771484" xlink:href="#DejaVuSerif-6c"/>
      <use x="897.753906" xlink:href="#DejaVuSerif-79"/>
      <use x="954.248047" xlink:href="#DejaVuSerif-20"/>
      <use x="986.035156" xlink:href="#DejaVuSerif-53"/>
      <use x="1054.541016" xlink:href="#DejaVuSerif-74"/>
      <use x="1094.726562" xlink:href="#DejaVuSerif-6f"/>
      <use x="1154.931641" xlink:href="#DejaVuSerif-70"/>
      <use x="1218.945312" xlink:href="#DejaVuSerif-70"/>
      <use x="1282.958984" xlink:href="#DejaVuSerif-69"/>
      <use x="1314.941406" xlink:href="#DejaVuSerif-6e"/>
      <use x="1379.345703" xlink:href="#DejaVuSerif-67"/>
     </g>
    </g>
   </g>
   <g id="LineCollection_1">
    <path clip-path="url(#pb2c69a2442)" d="M 166.058168 388.370388 
L 166.058168 311.839604 
" style="fill:none;stroke:#000000;stroke-width:1.5;"/>
    <path clip-path="url(#pb2c69a2442)" d="M 252.52511 407.070537 
L 252.52511 293.139454 
" style="fill:none;stroke:#000000;stroke-width:1.5;"/>
    <path clip-path="url(#pb2c69a2442)" d="M 338.992052 389.49408 
L 338.992052 297.89877 
" style="fill:none;stroke:#000000;stroke-width:1.5;"/>
    <path clip-path="url(#pb2c69a2442)" d="M 425.458994 400.195771 
L 425.458994 274.379936 
" style="fill:none;stroke:#000000;stroke-width:1.5;"/>
    <path clip-path="url(#pb2c69a2442)" d="M 511.925936 381.423545 
L 511.925936 273.926449 
" style="fill:none;stroke:#000000;stroke-width:1.5;"/>
    <path clip-path="url(#pb2c69a2442)" d="M 598.392878 349.399701 
L 598.392878 293.13315 
" style="fill:none;stroke:#000000;stroke-width:1.5;"/>
    <path clip-path="url(#pb2c69a2442)" d="M 684.85982 363.425684 
L 684.85982 272.698596 
" style="fill:none;stroke:#000000;stroke-width:1.5;"/>
    <path clip-path="url(#pb2c69a2442)" d="M 771.326763 416.650173 
L 771.326763 136.162683 
" style="fill:none;stroke:#000000;stroke-width:1.5;"/>
    <path clip-path="url(#pb2c69a2442)" d="M 857.793705 461.985 
L 857.793705 58.785 
" style="fill:none;stroke:#000000;stroke-width:1.5;"/>
   </g>
   <g id="line2d_22">
    <defs>
     <path d="M 10 0 
L -10 -0 
" id="m580a23c0bc" style="stroke:#000000;"/>
    </defs>
    <g clip-path="url(#pb2c69a2442)">
     <use style="stroke:#000000;" x="166.058168" xlink:href="#m580a23c0bc" y="388.370388"/>
     <use style="stroke:#000000;" x="252.52511" xlink:href="#m580a23c0bc" y="407.070537"/>
     <use style="stroke:#000000;" x="338.992052" xlink:href="#m580a23c0bc" y="389.49408"/>
     <use style="stroke:#000000;" x="425.458994" xlink:href="#m580a23c0bc" y="400.195771"/>
     <use style="stroke:#000000;" x="511.925936" xlink:href="#m580a23c0bc" y="381.423545"/>
     <use style="stroke:#000000;" x="598.392878" xlink:href="#m580a23c0bc" y="349.399701"/>
     <use style="stroke:#000000;" x="684.85982" xlink:href="#m580a23c0bc" y="363.425684"/>
     <use style="stroke:#000000;" x="771.326763" xlink:href="#m580a23c0bc" y="416.650173"/>
     <use style="stroke:#000000;" x="857.793705" xlink:href="#m580a23c0bc" y="461.985"/>
    </g>
   </g>
   <g id="line2d_23">
    <g clip-path="url(#pb2c69a2442)">
     <use style="stroke:#000000;" x="166.058168" xlink:href="#m580a23c0bc" y="311.839604"/>
     <use style="stroke:#000000;" x="252.52511" xlink:href="#m580a23c0bc" y="293.139454"/>
     <use style="stroke:#000000;" x="338.992052" xlink:href="#m580a23c0bc" y="297.89877"/>
     <use style="stroke:#000000;" x="425.458994" xlink:href="#m580a23c0bc" y="274.379936"/>
     <use style="stroke:#000000;" x="511.925936" xlink:href="#m580a23c0bc" y="273.926449"/>
     <use style="stroke:#000000;" x="598.392878" xlink:href="#m580a23c0bc" y="293.13315"/>
     <use style="stroke:#000000;" x="684.85982" xlink:href="#m580a23c0bc" y="272.698596"/>
     <use style="stroke:#000000;" x="771.326763" xlink:href="#m580a23c0bc" y="136.162683"/>
     <use style="stroke:#000000;" x="857.793705" xlink:href="#m580a23c0bc" y="58.785"/>
    </g>
   </g>
   <g id="patch_12">
    <path d="M 93.425936 482.145 
L 93.425936 38.625 
" style="fill:none;stroke:#000000;stroke-linecap:square;stroke-linejoin:miter;stroke-width:0.8;"/>
   </g>
   <g id="patch_13">
    <path d="M 930.425936 482.145 
L 930.425936 38.625 
" style="fill:none;stroke:#000000;stroke-linecap:square;stroke-linejoin:miter;stroke-width:0.8;"/>
   </g>
   <g id="patch_14">
    <path d="M 93.425936 482.145 
L 930.425936 482.145 
" style="fill:none;stroke:#000000;stroke-linecap:square;stroke-linejoin:miter;stroke-width:0.8;"/>
   </g>
   <g id="patch_15">
    <path d="M 93.425936 38.625 
L 930.425936 38.625 
" style="fill:none;stroke:#000000;stroke-linecap:square;stroke-linejoin:miter;stroke-width:0.8;"/>
   </g>
   <g id="text_17">
    <!-- 6.2 -->
    <g transform="translate(114.178002 346.777496)scale(0.16 -0.16)">
     <defs>
      <path d="M 2094 219 
Q 2534 219 2771 542 
Q 3009 866 3009 1472 
Q 3009 2078 2771 2401 
Q 2534 2725 2094 2725 
Q 1647 2725 1412 2412 
Q 1178 2100 1178 1509 
Q 1178 888 1415 553 
Q 1653 219 2094 219 
z
M 1075 2569 
Q 1288 2803 1556 2918 
Q 1825 3034 2163 3034 
Q 2859 3034 3264 2615 
Q 3669 2197 3669 1472 
Q 3669 763 3233 336 
Q 2797 -91 2069 -91 
Q 1278 -91 853 498 
Q 428 1088 428 2181 
Q 428 3406 931 4078 
Q 1434 4750 2350 4750 
Q 2597 4750 2869 4703 
Q 3141 4656 3425 4563 
L 3425 3794 
L 3072 3794 
Q 3034 4109 2831 4275 
Q 2628 4441 2284 4441 
Q 1678 4441 1381 3981 
Q 1084 3522 1075 2569 
z
" id="DejaVuSerif-36" transform="scale(0.015625)"/>
      <path d="M 603 325 
Q 603 500 722 622 
Q 841 744 1019 744 
Q 1191 744 1312 622 
Q 1434 500 1434 325 
Q 1434 153 1312 31 
Q 1191 -91 1019 -91 
Q 841 -91 722 29 
Q 603 150 603 325 
z
" id="DejaVuSerif-2e" transform="scale(0.015625)"/>
     </defs>
     <use xlink:href="#DejaVuSerif-36"/>
     <use x="63.623047" xlink:href="#DejaVuSerif-2e"/>
     <use x="95.410156" xlink:href="#DejaVuSerif-32"/>
    </g>
   </g>
   <g id="text_18">
    <!-- 6.2 -->
    <g transform="translate(200.644944 346.777496)scale(0.16 -0.16)">
     <use xlink:href="#DejaVuSerif-36"/>
     <use x="63.623047" xlink:href="#DejaVuSerif-2e"/>
     <use x="95.410156" xlink:href="#DejaVuSerif-32"/>
    </g>
   </g>
   <g id="text_19">
    <!-- 6.6 -->
    <g transform="translate(287.111887 340.368925)scale(0.16 -0.16)">
     <use xlink:href="#DejaVuSerif-36"/>
     <use x="63.623047" xlink:href="#DejaVuSerif-2e"/>
     <use x="95.410156" xlink:href="#DejaVuSerif-36"/>
    </g>
   </g>
   <g id="text_20">
    <!-- 7.0 -->
    <g transform="translate(373.578829 333.960353)scale(0.16 -0.16)">
     <defs>
      <path d="M 3609 4347 
L 1784 0 
L 1319 0 
L 3059 4153 
L 903 4153 
L 903 3578 
L 538 3578 
L 538 4666 
L 3609 4666 
L 3609 4347 
z
" id="DejaVuSerif-37" transform="scale(0.015625)"/>
     </defs>
     <use xlink:href="#DejaVuSerif-37"/>
     <use x="63.623047" xlink:href="#DejaVuSerif-2e"/>
     <use x="95.410156" xlink:href="#DejaVuSerif-30"/>
    </g>
   </g>
   <g id="text_21">
    <!-- 7.6 -->
    <g transform="translate(460.045771 324.347497)scale(0.16 -0.16)">
     <use xlink:href="#DejaVuSerif-37"/>
     <use x="63.623047" xlink:href="#DejaVuSerif-2e"/>
     <use x="95.410156" xlink:href="#DejaVuSerif-36"/>
    </g>
   </g>
   <g id="text_22">
    <!-- 8.0 -->
    <g transform="translate(546.512713 317.938926)scale(0.16 -0.16)">
     <defs>
      <path d="M 2981 1275 
Q 2981 1775 2732 2051 
Q 2484 2328 2034 2328 
Q 1584 2328 1336 2051 
Q 1088 1775 1088 1275 
Q 1088 772 1336 495 
Q 1584 219 2034 219 
Q 2484 219 2732 495 
Q 2981 772 2981 1275 
z
M 2853 3541 
Q 2853 3966 2637 4203 
Q 2422 4441 2034 4441 
Q 1650 4441 1433 4203 
Q 1216 3966 1216 3541 
Q 1216 3113 1433 2875 
Q 1650 2638 2034 2638 
Q 2422 2638 2637 2875 
Q 2853 3113 2853 3541 
z
M 2516 2484 
Q 3047 2413 3344 2092 
Q 3641 1772 3641 1275 
Q 3641 619 3225 264 
Q 2809 -91 2034 -91 
Q 1263 -91 845 264 
Q 428 619 428 1275 
Q 428 1772 725 2092 
Q 1022 2413 1556 2484 
Q 1084 2569 832 2842 
Q 581 3116 581 3541 
Q 581 4103 968 4426 
Q 1356 4750 2034 4750 
Q 2713 4750 3100 4426 
Q 3488 4103 3488 3541 
Q 3488 3116 3236 2842 
Q 2984 2569 2516 2484 
z
" id="DejaVuSerif-38" transform="scale(0.015625)"/>
     </defs>
     <use xlink:href="#DejaVuSerif-38"/>
     <use x="63.623047" xlink:href="#DejaVuSerif-2e"/>
     <use x="95.410156" xlink:href="#DejaVuSerif-30"/>
    </g>
   </g>
   <g id="text_23">
    <!-- 8.2 -->
    <g transform="translate(632.979655 314.73464)scale(0.16 -0.16)">
     <use xlink:href="#DejaVuSerif-38"/>
     <use x="63.623047" xlink:href="#DejaVuSerif-2e"/>
     <use x="95.410156" xlink:href="#DejaVuSerif-32"/>
    </g>
   </g>
   <g id="text_24">
    <!-- 10.8 -->
    <g transform="translate(719.446597 273.078928)scale(0.16 -0.16)">
     <use xlink:href="#DejaVuSerif-31"/>
     <use x="63.623047" xlink:href="#DejaVuSerif-30"/>
     <use x="127.246094" xlink:href="#DejaVuSerif-2e"/>
     <use x="159.033203" xlink:href="#DejaVuSerif-38"/>
    </g>
   </g>
   <g id="text_25">
    <!-- 11.8 -->
    <g transform="translate(805.913539 257.0575)scale(0.16 -0.16)">
     <use xlink:href="#DejaVuSerif-31"/>
     <use x="63.623047" xlink:href="#DejaVuSerif-31"/>
     <use x="127.246094" xlink:href="#DejaVuSerif-2e"/>
     <use x="159.033203" xlink:href="#DejaVuSerif-38"/>
    </g>
   </g>
   <g id="text_26">
    <!-- Early Stopping Epoch for All Models -->
    <g transform="translate(215.435936 31.515)scale(0.32 -0.32)">
     <defs>
      <path d="M 2753 4078 
L 2450 4078 
Q 2447 4313 2317 4434 
Q 2188 4556 1941 4556 
Q 1619 4556 1487 4379 
Q 1356 4203 1356 3750 
L 1356 3322 
L 2284 3322 
L 2284 2988 
L 1356 2988 
L 1356 331 
L 2094 331 
L 2094 0 
L 231 0 
L 231 331 
L 781 331 
L 781 2988 
L 231 2988 
L 231 3322 
L 781 3322 
L 781 3738 
Q 781 4294 1070 4578 
Q 1359 4863 1919 4863 
Q 2128 4863 2337 4825 
Q 2547 4788 2753 4709 
L 2753 4078 
z
" id="DejaVuSerif-66" transform="scale(0.015625)"/>
      <path d="M 1281 1691 
L 2994 1691 
L 2138 3909 
L 1281 1691 
z
M -38 0 
L -38 331 
L 372 331 
L 2034 4666 
L 2559 4666 
L 4225 331 
L 4684 331 
L 4684 0 
L 2988 0 
L 2988 331 
L 3506 331 
L 3116 1356 
L 1153 1356 
L 763 331 
L 1275 331 
L 1275 0 
L -38 0 
z
" id="DejaVuSerif-41" transform="scale(0.015625)"/>
      <path d="M 353 0 
L 353 331 
L 947 331 
L 947 4331 
L 319 4331 
L 319 4666 
L 1678 4666 
L 3316 1344 
L 4953 4666 
L 6228 4666 
L 6228 4331 
L 5606 4331 
L 5606 331 
L 6203 331 
L 6203 0 
L 4378 0 
L 4378 331 
L 4972 331 
L 4972 3938 
L 3372 684 
L 2931 684 
L 1331 3938 
L 1331 331 
L 1925 331 
L 1925 0 
L 353 0 
z
" id="DejaVuSerif-4d" transform="scale(0.015625)"/>
     </defs>
     <use xlink:href="#DejaVuSerif-45"/>
     <use x="72.998047" xlink:href="#DejaVuSerif-61"/>
     <use x="132.617188" xlink:href="#DejaVuSerif-72"/>
     <use x="180.419922" xlink:href="#DejaVuSerif-6c"/>
     <use x="212.402344" xlink:href="#DejaVuSerif-79"/>
     <use x="268.896484" xlink:href="#DejaVuSerif-20"/>
     <use x="300.683594" xlink:href="#DejaVuSerif-53"/>
     <use x="369.189453" xlink:href="#DejaVuSerif-74"/>
     <use x="409.375" xlink:href="#DejaVuSerif-6f"/>
     <use x="469.580078" xlink:href="#DejaVuSerif-70"/>
     <use x="533.59375" xlink:href="#DejaVuSerif-70"/>
     <use x="597.607422" xlink:href="#DejaVuSerif-69"/>
     <use x="629.589844" xlink:href="#DejaVuSerif-6e"/>
     <use x="693.994141" xlink:href="#DejaVuSerif-67"/>
     <use x="758.007812" xlink:href="#DejaVuSerif-20"/>
     <use x="789.794922" xlink:href="#DejaVuSerif-45"/>
     <use x="862.792969" xlink:href="#DejaVuSerif-70"/>
     <use x="926.806641" xlink:href="#DejaVuSerif-6f"/>
     <use x="987.011719" xlink:href="#DejaVuSerif-63"/>
     <use x="1043.017578" xlink:href="#DejaVuSerif-68"/>
     <use x="1107.421875" xlink:href="#DejaVuSerif-20"/>
     <use x="1139.208984" xlink:href="#DejaVuSerif-66"/>
     <use x="1176.220703" xlink:href="#DejaVuSerif-6f"/>
     <use x="1236.425781" xlink:href="#DejaVuSerif-72"/>
     <use x="1284.228516" xlink:href="#DejaVuSerif-20"/>
     <use x="1316.015625" xlink:href="#DejaVuSerif-41"/>
     <use x="1388.232422" xlink:href="#DejaVuSerif-6c"/>
     <use x="1420.214844" xlink:href="#DejaVuSerif-6c"/>
     <use x="1452.197266" xlink:href="#DejaVuSerif-20"/>
     <use x="1483.984375" xlink:href="#DejaVuSerif-4d"/>
     <use x="1586.376953" xlink:href="#DejaVuSerif-6f"/>
     <use x="1646.582031" xlink:href="#DejaVuSerif-64"/>
     <use x="1710.595703" xlink:href="#DejaVuSerif-65"/>
     <use x="1769.775391" xlink:href="#DejaVuSerif-6c"/>
     <use x="1801.757812" xlink:href="#DejaVuSerif-73"/>
    </g>
   </g>
  </g>
 </g>
 <defs>
  <clipPath id="pb2c69a2442">
   <rect height="443.52" width="837" x="93.425936" y="38.625"/>
  </clipPath>
 </defs>
</svg>
