<svg width="1280" height="720" xmlns="http://www.w3.org/2000/svg" xmlns:xlink="http://www.w3.org/1999/xlink" overflow="hidden"><defs><clipPath id="clip0"><rect x="0" y="0" width="1280" height="720"/></clipPath><clipPath id="clip1"><rect x="-27" y="123" width="648" height="412"/></clipPath><clipPath id="clip2"><rect x="-27" y="123" width="648" height="413"/></clipPath><clipPath id="clip3"><rect x="-27" y="123" width="648" height="413"/></clipPath><clipPath id="clip4"><rect x="-27" y="123" width="648" height="413"/></clipPath><clipPath id="clip5"><rect x="598" y="122" width="677" height="485"/></clipPath><clipPath id="clip6"><rect x="598" y="122" width="677" height="485"/></clipPath><clipPath id="clip7"><rect x="598" y="122" width="677" height="485"/></clipPath><clipPath id="clip8"><rect x="598" y="122" width="677" height="485"/></clipPath></defs><g clip-path="url(#clip0)"><rect x="0" y="0" width="1280" height="720" fill="#FFFFFF"/><g clip-path="url(#clip1)"><g clip-path="url(#clip2)"><g clip-path="url(#clip3)"><g clip-path="url(#clip4)"><path d="M221.849 49.5588 221.849 76.2057" stroke="#000000" stroke-width="0.882355" stroke-linejoin="round" stroke-miterlimit="10" fill="none" fill-rule="evenodd" transform="matrix(1 0 0 1.14276 -10.5882 68.5507)"/><path d="M302.521 49.5588 302.521 76.2057" stroke="#000000" stroke-width="0.882355" stroke-linejoin="round" stroke-miterlimit="10" fill="none" fill-rule="evenodd" transform="matrix(1 0 0 1.14276 -10.5882 68.5507)"/><path d="M383.194 49.5588 383.194 76.2057" stroke="#000000" stroke-width="0.882355" stroke-linejoin="round" stroke-miterlimit="10" fill="none" fill-rule="evenodd" transform="matrix(1 0 0 1.14276 -10.5882 68.5507)"/><path d="M463.866 49.5588 463.866 76.2057" stroke="#000000" stroke-width="0.882355" stroke-linejoin="round" stroke-miterlimit="10" fill="none" fill-rule="evenodd" transform="matrix(1 0 0 1.14276 -10.5882 68.5507)"/><path d="M141.177 49.5588 141.177 76.2057" stroke="#000000" stroke-width="0.882355" stroke-linejoin="round" stroke-miterlimit="10" fill="none" fill-rule="evenodd" transform="matrix(1 0 0 1.14276 -10.5882 68.5507)"/><path d="M544.537 49.5588 544.537 76.2057" stroke="#000000" stroke-width="0.882355" stroke-linejoin="round" stroke-miterlimit="10" fill="none" fill-rule="evenodd" transform="matrix(1 0 0 1.14276 -10.5882 68.5507)"/><path d="M140.735 50 544.977 50" stroke="#000000" stroke-width="0.882355" stroke-linejoin="round" stroke-miterlimit="10" fill="none" fill-rule="evenodd" transform="matrix(1 0 0 1.14276 -10.5882 68.5507)"/><path d="M140.735 75.7646 544.977 75.7646" stroke="#000000" stroke-width="0.882355" stroke-linejoin="round" stroke-miterlimit="10" fill="none" fill-rule="evenodd" transform="matrix(1 0 0 1.14276 -10.5882 68.5507)"/><text font-family="Times New Roman,Times New Roman_MSFontService,sans-serif" font-weight="400" font-size="30" transform="matrix(0.529412 0 0 0.604993 166.954 147)">0<tspan font-size="30" x="152.381" y="0">1</tspan><tspan font-size="30" x="304.762" y="0">2</tspan><tspan font-size="30" x="457.143" y="0">3</tspan><tspan font-size="30" x="609.524" y="0">4</tspan></text><path d="M343.853 91.8529C343.853 101.501 343.853 109.324 343.852 109.324L261.53 109.324C261.529 109.324 261.529 117.146 261.529 126.794 261.529 117.146 261.529 109.324 261.529 109.324L179.206 109.324C179.206 109.324 179.206 101.501 179.206 91.8529" stroke="#000000" stroke-width="0.441176" stroke-miterlimit="8" fill="none" fill-rule="evenodd" transform="matrix(1 0 0 1.14276 -10.5882 68.5507)"/><path d="M426.441 171.265C426.441 181.06 426.441 189 426.441 189L344.118 189C344.118 189 344.118 196.94 344.118 206.735 344.118 196.94 344.118 189 344.117 189L261.795 189C261.794 189 261.794 181.06 261.794 171.265" stroke="#000000" stroke-width="0.441176" stroke-miterlimit="8" fill="none" fill-rule="evenodd" transform="matrix(1 0 0 1.14276 -10.5882 68.5507)"/><path d="M509.029 251.206C509.029 261.001 509.029 268.941 509.029 268.941L426.442 268.941C426.441 268.941 426.441 276.882 426.441 286.676 426.441 276.882 426.441 268.941 426.441 268.941L343.853 268.941C343.853 268.941 343.853 261.001 343.853 251.206" stroke="#000000" stroke-width="0.441176" stroke-miterlimit="8" fill="none" fill-rule="evenodd" transform="matrix(1 0 0 1.14276 -10.5882 68.5507)"/><path d="M222.268 135.616 222.268 162.264" stroke="#000000" stroke-width="0.882355" stroke-linejoin="round" stroke-miterlimit="10" fill="none" fill-rule="evenodd" transform="matrix(1 0 0 1.14276 -10.5882 68.5507)"/><path d="M303.36 135.616 303.36 162.264" stroke="#000000" stroke-width="0.882355" stroke-linejoin="round" stroke-miterlimit="10" fill="none" fill-rule="evenodd" transform="matrix(1 0 0 1.14276 -10.5882 68.5507)"/><path d="M141.177 135.616 141.177 162.264" stroke="#000000" stroke-width="0.882355" stroke-linejoin="round" stroke-miterlimit="10" fill="none" fill-rule="evenodd" transform="matrix(1 0 0 1.14276 -10.5882 68.5507)"/><path d="M384.451 135.616 384.451 162.264" stroke="#000000" stroke-width="0.882355" stroke-linejoin="round" stroke-miterlimit="10" fill="none" fill-rule="evenodd" transform="matrix(1 0 0 1.14276 -10.5882 68.5507)"/><path d="M140.736 136.058 384.892 136.058" stroke="#000000" stroke-width="0.882355" stroke-linejoin="round" stroke-miterlimit="10" fill="none" fill-rule="evenodd" transform="matrix(1 0 0 1.14276 -10.5882 68.5507)"/><path d="M140.736 161.822 384.892 161.822" stroke="#000000" stroke-width="0.882355" stroke-linejoin="round" stroke-miterlimit="10" fill="none" fill-rule="evenodd" transform="matrix(1 0 0 1.14276 -10.5882 68.5507)"/><text font-family="Times New Roman,Times New Roman_MSFontService,sans-serif" font-weight="400" font-size="30" transform="matrix(0.529412 0 0 0.604993 167.163 245)">0<tspan font-size="30" x="153.173" y="0">1</tspan><tspan font-size="30" x="306.346" y="0">2</tspan></text><path d="M303.189 215.562 303.189 242.209" stroke="#000000" stroke-width="0.882355" stroke-linejoin="round" stroke-miterlimit="10" fill="none" fill-rule="evenodd" transform="matrix(1 0 0 1.14276 -10.5882 68.5507)"/><path d="M384.281 215.562 384.281 242.209" stroke="#000000" stroke-width="0.882355" stroke-linejoin="round" stroke-miterlimit="10" fill="none" fill-rule="evenodd" transform="matrix(1 0 0 1.14276 -10.5882 68.5507)"/><path d="M222.098 215.562 222.098 242.209" stroke="#000000" stroke-width="0.882355" stroke-linejoin="round" stroke-miterlimit="10" fill="none" fill-rule="evenodd" transform="matrix(1 0 0 1.14276 -10.5882 68.5507)"/><path d="M465.373 215.562 465.373 242.209" stroke="#000000" stroke-width="0.882355" stroke-linejoin="round" stroke-miterlimit="10" fill="none" fill-rule="evenodd" transform="matrix(1 0 0 1.14276 -10.5882 68.5507)"/><path d="M221.657 216.003 465.814 216.003" stroke="#000000" stroke-width="0.882355" stroke-linejoin="round" stroke-miterlimit="10" fill="none" fill-rule="evenodd" transform="matrix(1 0 0 1.14276 -10.5882 68.5507)"/><path d="M221.657 241.768 465.814 241.768" stroke="#000000" stroke-width="0.882355" stroke-linejoin="round" stroke-miterlimit="10" fill="none" fill-rule="evenodd" transform="matrix(1 0 0 1.14276 -10.5882 68.5507)"/><text font-family="Times New Roman,Times New Roman_MSFontService,sans-serif" font-weight="400" font-size="30" transform="matrix(0.529412 0 0 0.604993 248.085 337)">1<tspan font-size="30" x="153.173" y="0">2</tspan><tspan font-size="30" x="306.346" y="0">3</tspan></text><path d="M385.658 295.507 385.658 322.153" stroke="#000000" stroke-width="0.882355" stroke-linejoin="round" stroke-miterlimit="10" fill="none" fill-rule="evenodd" transform="matrix(1 0 0 1.14276 -10.5882 68.5507)"/><path d="M466.749 295.507 466.749 322.153" stroke="#000000" stroke-width="0.882355" stroke-linejoin="round" stroke-miterlimit="10" fill="none" fill-rule="evenodd" transform="matrix(1 0 0 1.14276 -10.5882 68.5507)"/><path d="M304.566 295.507 304.566 322.153" stroke="#000000" stroke-width="0.882355" stroke-linejoin="round" stroke-miterlimit="10" fill="none" fill-rule="evenodd" transform="matrix(1 0 0 1.14276 -10.5882 68.5507)"/><path d="M547.841 295.507 547.841 322.153" stroke="#000000" stroke-width="0.882355" stroke-linejoin="round" stroke-miterlimit="10" fill="none" fill-rule="evenodd" transform="matrix(1 0 0 1.14276 -10.5882 68.5507)"/><path d="M304.125 295.948 548.28 295.948" stroke="#000000" stroke-width="0.882355" stroke-linejoin="round" stroke-miterlimit="10" fill="none" fill-rule="evenodd" transform="matrix(1 0 0 1.14276 -10.5882 68.5507)"/><path d="M304.125 321.712 548.28 321.712" stroke="#000000" stroke-width="0.882355" stroke-linejoin="round" stroke-miterlimit="10" fill="none" fill-rule="evenodd" transform="matrix(1 0 0 1.14276 -10.5882 68.5507)"/><text font-family="Times New Roman,Times New Roman_MSFontService,sans-serif" font-weight="400" font-size="30" transform="matrix(0.529412 0 0 0.604993 330.553 428)">2<tspan font-size="30" x="153.173" y="0">3</tspan><tspan font-size="30" x="306.346" y="0">4</tspan></text><path d="M591.618 331.676C591.618 341.472 591.618 349.412 591.618 349.412L509.03 349.412C509.029 349.412 509.029 357.352 509.029 367.147 509.029 357.352 509.029 349.412 509.029 349.412L426.442 349.412C426.441 349.412 426.441 341.472 426.441 331.676" stroke="#000000" stroke-width="0.441176" stroke-miterlimit="8" fill="none" fill-rule="evenodd" transform="matrix(1 0 0 1.14276 -10.5882 68.5507)"/><path d="M468.126 375.451 468.126 402.098" stroke="#000000" stroke-width="0.882355" stroke-linejoin="round" stroke-miterlimit="10" fill="none" fill-rule="evenodd" transform="matrix(1 0 0 1.14276 -10.5882 68.5507)"/><path d="M549.217 375.451 549.217 402.098" stroke="#000000" stroke-width="0.882355" stroke-linejoin="round" stroke-miterlimit="10" fill="none" fill-rule="evenodd" transform="matrix(1 0 0 1.14276 -10.5882 68.5507)"/><path d="M387.034 375.451 387.034 402.098" stroke="#000000" stroke-width="0.882355" stroke-linejoin="round" stroke-miterlimit="10" fill="none" fill-rule="evenodd" transform="matrix(1 0 0 1.14276 -10.5882 68.5507)"/><path d="M630.307 375.451 630.307 402.098" stroke="#000000" stroke-width="0.882355" stroke-linejoin="round" stroke-miterlimit="10" fill="none" fill-rule="evenodd" transform="matrix(1 0 0 1.14276 -10.5882 68.5507)"/><path d="M386.593 375.892 630.752 375.892" stroke="#000000" stroke-width="0.882355" stroke-linejoin="round" stroke-miterlimit="10" fill="none" fill-rule="evenodd" transform="matrix(1 0 0 1.14276 -10.5882 68.5507)"/><path d="M386.593 401.657 630.752 401.657" stroke="#000000" stroke-width="0.882355" stroke-linejoin="round" stroke-miterlimit="10" fill="none" fill-rule="evenodd" transform="matrix(1 0 0 1.14276 -10.5882 68.5507)"/><text font-family="Times New Roman,Times New Roman_MSFontService,sans-serif" font-weight="400" font-size="30" transform="matrix(0.529412 0 0 0.604993 413.021 519)">3<tspan font-size="30" x="153.173" y="0">4</tspan><tspan fill="#FF0000" font-size="30" x="307.179" y="0">?</tspan><tspan font-size="30" x="-702.54" y="-614.884">Inpu</tspan>t<tspan font-weight="700" font-size="30" x="-776.448" y="-614.884">(</tspan><tspan font-weight="700" font-size="30" x="-766.448" y="-614.884">A</tspan><tspan font-weight="700" font-size="30" x="-745.448" y="-614.884">)</tspan></text></g></g></g></g><g clip-path="url(#clip5)"><g clip-path="url(#clip6)"><g clip-path="url(#clip7)"><g clip-path="url(#clip8)"><path d="M221.637 49.5114 221.637 76.1329" stroke="#000000" stroke-width="0.881512" stroke-linejoin="round" stroke-miterlimit="10" fill="none" fill-rule="evenodd" transform="matrix(1 0 0 1.12101 561.505 68.6381)"/><path d="M302.232 49.5114 302.232 76.1329" stroke="#000000" stroke-width="0.881512" stroke-linejoin="round" stroke-miterlimit="10" fill="none" fill-rule="evenodd" transform="matrix(1 0 0 1.12101 561.505 68.6381)"/><path d="M382.828 49.5114 382.828 76.1329" stroke="#000000" stroke-width="0.881512" stroke-linejoin="round" stroke-miterlimit="10" fill="none" fill-rule="evenodd" transform="matrix(1 0 0 1.12101 561.505 68.6381)"/><path d="M463.423 49.5114 463.423 76.1329" stroke="#000000" stroke-width="0.881512" stroke-linejoin="round" stroke-miterlimit="10" fill="none" fill-rule="evenodd" transform="matrix(1 0 0 1.12101 561.505 68.6381)"/><path d="M141.042 49.5114 141.042 76.1329" stroke="#000000" stroke-width="0.881512" stroke-linejoin="round" stroke-miterlimit="10" fill="none" fill-rule="evenodd" transform="matrix(1 0 0 1.12101 561.505 68.6381)"/><path d="M544.017 49.5114 544.017 76.1329" stroke="#000000" stroke-width="0.881512" stroke-linejoin="round" stroke-miterlimit="10" fill="none" fill-rule="evenodd" transform="matrix(1 0 0 1.12101 561.505 68.6381)"/><path d="M140.601 49.9522 544.456 49.9522" stroke="#000000" stroke-width="0.881512" stroke-linejoin="round" stroke-miterlimit="10" fill="none" fill-rule="evenodd" transform="matrix(1 0 0 1.12101 561.505 68.6381)"/><path d="M140.601 75.6923 544.456 75.6923" stroke="#000000" stroke-width="0.881512" stroke-linejoin="round" stroke-miterlimit="10" fill="none" fill-rule="evenodd" transform="matrix(1 0 0 1.12101 561.505 68.6381)"/><text font-family="Times New Roman,Times New Roman_MSFontService,sans-serif" font-weight="400" font-size="30" transform="matrix(0.528906 0 0 0.59291 738.878 145)">0<tspan font-size="30" x="152.381" y="0">1</tspan><tspan font-size="30" x="304.762" y="0">2</tspan><tspan font-size="30" x="457.143" y="0">3</tspan><tspan font-size="30" x="609.524" y="0">4</tspan></text><path d="M343.525 91.7652C343.525 101.405 343.525 109.219 343.524 109.219L261.28 109.219C261.28 109.219 261.28 117.034 261.28 126.673 261.28 117.034 261.28 109.219 261.279 109.219L179.035 109.219C179.035 109.219 179.035 101.405 179.035 91.7652" stroke="#000000" stroke-width="0.440755" stroke-miterlimit="8" fill="none" fill-rule="evenodd" transform="matrix(1 0 0 1.12101 561.505 68.6381)"/><path d="M508.543 250.966C508.543 260.752 508.543 268.684 508.543 268.684L426.034 268.684C426.034 268.684 426.034 276.617 426.034 286.403 426.034 276.617 426.034 268.684 426.033 268.684L343.525 268.684C343.525 268.684 343.525 260.752 343.525 250.966" stroke="#000000" stroke-width="0.440755" stroke-miterlimit="8" fill="none" fill-rule="evenodd" transform="matrix(1 0 0 1.12101 561.505 68.6381)"/><path d="M222.056 135.487 222.056 162.109" stroke="#000000" stroke-width="0.881512" stroke-linejoin="round" stroke-miterlimit="10" fill="none" fill-rule="evenodd" transform="matrix(1 0 0 1.12101 561.505 68.6381)"/><path d="M303.07 135.487 303.07 162.109" stroke="#000000" stroke-width="0.881512" stroke-linejoin="round" stroke-miterlimit="10" fill="none" fill-rule="evenodd" transform="matrix(1 0 0 1.12101 561.505 68.6381)"/><path d="M141.042 135.487 141.042 162.109" stroke="#000000" stroke-width="0.881512" stroke-linejoin="round" stroke-miterlimit="10" fill="none" fill-rule="evenodd" transform="matrix(1 0 0 1.12101 561.505 68.6381)"/><path d="M384.084 135.487 384.084 162.109" stroke="#000000" stroke-width="0.881512" stroke-linejoin="round" stroke-miterlimit="10" fill="none" fill-rule="evenodd" transform="matrix(1 0 0 1.12101 561.505 68.6381)"/><path d="M140.601 135.928 384.525 135.928" stroke="#000000" stroke-width="0.881512" stroke-linejoin="round" stroke-miterlimit="10" fill="none" fill-rule="evenodd" transform="matrix(1 0 0 1.12101 561.505 68.6381)"/><path d="M140.601 161.668 384.525 161.668" stroke="#000000" stroke-width="0.881512" stroke-linejoin="round" stroke-miterlimit="10" fill="none" fill-rule="evenodd" transform="matrix(1 0 0 1.12101 561.505 68.6381)"/><text font-family="Times New Roman,Times New Roman_MSFontService,sans-serif" font-weight="400" font-size="30" transform="matrix(0.528906 0 0 0.59291 739.087 242)">0<tspan font-size="30" x="153.173" y="0">1</tspan><tspan font-size="30" x="306.346" y="0">2</tspan></text><path d="M385.29 295.224 385.29 321.846" stroke="#000000" stroke-width="0.881512" stroke-linejoin="round" stroke-miterlimit="10" fill="none" fill-rule="evenodd" transform="matrix(1 0 0 1.12101 561.505 68.6381)"/><path d="M466.303 295.224 466.303 321.846" stroke="#000000" stroke-width="0.881512" stroke-linejoin="round" stroke-miterlimit="10" fill="none" fill-rule="evenodd" transform="matrix(1 0 0 1.12101 561.505 68.6381)"/><path d="M304.276 295.224 304.276 321.846" stroke="#000000" stroke-width="0.881512" stroke-linejoin="round" stroke-miterlimit="10" fill="none" fill-rule="evenodd" transform="matrix(1 0 0 1.12101 561.505 68.6381)"/><path d="M547.318 295.224 547.318 321.846" stroke="#000000" stroke-width="0.881512" stroke-linejoin="round" stroke-miterlimit="10" fill="none" fill-rule="evenodd" transform="matrix(1 0 0 1.12101 561.505 68.6381)"/><path d="M303.834 295.665 547.756 295.665" stroke="#000000" stroke-width="0.881512" stroke-linejoin="round" stroke-miterlimit="10" fill="none" fill-rule="evenodd" transform="matrix(1 0 0 1.12101 561.505 68.6381)"/><path d="M303.834 321.405 547.756 321.405" stroke="#000000" stroke-width="0.881512" stroke-linejoin="round" stroke-miterlimit="10" fill="none" fill-rule="evenodd" transform="matrix(1 0 0 1.12101 561.505 68.6381)"/><text font-family="Times New Roman,Times New Roman_MSFontService,sans-serif" font-weight="400" font-size="30" transform="matrix(0.528906 0 0 0.59291 902.321 421)">2<tspan font-size="30" x="153.173" y="0">3</tspan><tspan font-size="30" x="306.346" y="0">4</tspan></text><path d="M673.033 408.58C673.033 418.366 673.033 426.298 673.033 426.298L590.788 426.298C590.788 426.298 590.788 434.231 590.788 444.017 590.788 434.231 590.788 426.298 590.788 426.298L508.544 426.298C508.543 426.298 508.543 418.366 508.543 408.58" stroke="#000000" stroke-width="0.440755" stroke-miterlimit="8" fill="none" fill-rule="evenodd" transform="matrix(1 0 0 1.12101 561.505 68.6381)"/><path d="M550.068 447.716 550.068 474.338" stroke="#000000" stroke-width="0.881512" stroke-linejoin="round" stroke-miterlimit="10" fill="none" fill-rule="evenodd" transform="matrix(1 0 0 1.12101 561.505 68.6381)"/><path d="M631.08 447.716 631.08 474.338" stroke="#000000" stroke-width="0.881512" stroke-linejoin="round" stroke-miterlimit="10" fill="none" fill-rule="evenodd" transform="matrix(1 0 0 1.12101 561.505 68.6381)"/><path d="M469.054 447.716 469.054 474.338" stroke="#000000" stroke-width="0.881512" stroke-linejoin="round" stroke-miterlimit="10" fill="none" fill-rule="evenodd" transform="matrix(1 0 0 1.12101 561.505 68.6381)"/><path d="M712.098 447.716 712.098 474.338" stroke="#000000" stroke-width="0.881512" stroke-linejoin="round" stroke-miterlimit="10" fill="none" fill-rule="evenodd" transform="matrix(1 0 0 1.12101 561.505 68.6381)"/><path d="M468.614 448.157 712.537 448.157" stroke="#000000" stroke-width="0.881512" stroke-linejoin="round" stroke-miterlimit="10" fill="none" fill-rule="evenodd" transform="matrix(1 0 0 1.12101 561.505 68.6381)"/><path d="M468.614 473.897 712.537 473.897" stroke="#000000" stroke-width="0.881512" stroke-linejoin="round" stroke-miterlimit="10" fill="none" fill-rule="evenodd" transform="matrix(1 0 0 1.12101 561.505 68.6381)"/><text font-family="Times New Roman,Times New Roman_MSFontService,sans-serif" font-weight="400" font-size="30" transform="matrix(0.528906 0 0 0.59291 1067.1 592)">4<tspan fill="#FF0000" font-size="30" x="154.006" y="0">?</tspan><tspan fill="#FF0000" font-size="30" x="307.179" y="0">?</tspan><tspan font-weight="700" font-size="30" x="-831.182" y="-753.909">(</tspan><tspan font-weight="700" font-size="30" x="-821.182" y="-753.909">B</tspan><tspan font-weight="700" font-size="30" x="-800.182" y="-753.909">)</tspan></text></g></g></g></g><rect x="1.50005" y="96.5001" width="620" height="511" stroke="#000000" stroke-width="1.33333" stroke-miterlimit="8" fill="none"/><rect x="627.5" y="96.5001" width="647" height="511" stroke="#000000" stroke-width="1.33333" stroke-miterlimit="8" fill="none"/></g></svg>