<svg width="1280" height="720" xmlns="http://www.w3.org/2000/svg" xmlns:xlink="http://www.w3.org/1999/xlink" overflow="hidden"><defs><clipPath id="clip0"><rect x="0" y="0" width="1280" height="720"/></clipPath></defs><g clip-path="url(#clip0)"><rect x="0" y="0" width="1280" height="720" fill="#FFFFFF"/><path d="M335.238 74.8888 335.238 115.155" stroke="#000000" stroke-width="1.33333" stroke-linejoin="round" stroke-miterlimit="10" fill="none" fill-rule="evenodd"/><path d="M457.143 74.8888 457.143 115.155" stroke="#000000" stroke-width="1.33333" stroke-linejoin="round" stroke-miterlimit="10" fill="none" fill-rule="evenodd"/><path d="M579.048 74.8888 579.048 115.155" stroke="#000000" stroke-width="1.33333" stroke-linejoin="round" stroke-miterlimit="10" fill="none" fill-rule="evenodd"/><path d="M700.952 74.8888 700.952 115.155" stroke="#000000" stroke-width="1.33333" stroke-linejoin="round" stroke-miterlimit="10" fill="none" fill-rule="evenodd"/><path d="M213.333 74.8888 213.333 115.155" stroke="#000000" stroke-width="1.33333" stroke-linejoin="round" stroke-miterlimit="10" fill="none" fill-rule="evenodd"/><path d="M822.857 74.8888 822.857 115.155" stroke="#000000" stroke-width="1.33333" stroke-linejoin="round" stroke-miterlimit="10" fill="none" fill-rule="evenodd"/><path d="M212.667 75.5555 823.524 75.5555" stroke="#000000" stroke-width="1.33333" stroke-linejoin="round" stroke-miterlimit="10" fill="none" fill-rule="evenodd"/><path d="M212.667 114.489 823.524 114.489" stroke="#000000" stroke-width="1.33333" stroke-linejoin="round" stroke-miterlimit="10" fill="none" fill-rule="evenodd"/><text font-family="Times New Roman,Times New Roman_MSFontService,sans-serif" font-weight="400" font-size="24" transform="translate(268.286 103)">0<tspan font-size="24" x="121.905" y="0">1</tspan><tspan font-size="24" x="243.81" y="0">2</tspan><tspan font-size="24" x="365.714" y="0">3</tspan><tspan font-size="24" x="487.619" y="0">4</tspan></text><path d="M519.5 138.5C519.5 153.412 519.5 165.5 519.499 165.5L395.001 165.5C395 165.5 395 177.589 395 192.5 395 177.589 395 165.5 394.999 165.5L270.501 165.5C270.5 165.5 270.5 153.412 270.5 138.5" stroke="#000000" stroke-width="0.666667" stroke-miterlimit="8" fill="none" fill-rule="evenodd"/><path d="M644.5 259.5C644.5 274.136 644.5 286 644.5 286L520.001 286C520 286 520 297.865 520 312.5 520 297.865 520 286 520 286L395.501 286C395.5 286 395.5 274.136 395.5 259.5" stroke="#000000" stroke-width="0.666667" stroke-miterlimit="8" fill="none" fill-rule="evenodd"/><path d="M769.5 379.5C769.5 394.412 769.5 406.5 769.5 406.5L644.501 406.5C644.5 406.5 644.5 418.588 644.5 433.5 644.5 418.588 644.5 406.5 644.5 406.5L519.501 406.5C519.5 406.5 519.5 394.412 519.5 379.5" stroke="#000000" stroke-width="0.666667" stroke-miterlimit="8" fill="none" fill-rule="evenodd"/><path d="M335.872 204.932 335.872 245.198" stroke="#000000" stroke-width="1.33333" stroke-linejoin="round" stroke-miterlimit="10" fill="none" fill-rule="evenodd"/><path d="M458.41 204.932 458.41 245.198" stroke="#000000" stroke-width="1.33333" stroke-linejoin="round" stroke-miterlimit="10" fill="none" fill-rule="evenodd"/><path d="M213.334 204.932 213.334 245.198" stroke="#000000" stroke-width="1.33333" stroke-linejoin="round" stroke-miterlimit="10" fill="none" fill-rule="evenodd"/><path d="M580.948 204.932 580.948 245.198" stroke="#000000" stroke-width="1.33333" stroke-linejoin="round" stroke-miterlimit="10" fill="none" fill-rule="evenodd"/><path d="M212.667 205.598 581.615 205.598" stroke="#000000" stroke-width="1.33333" stroke-linejoin="round" stroke-miterlimit="10" fill="none" fill-rule="evenodd"/><path d="M212.667 244.532 581.615 244.532" stroke="#000000" stroke-width="1.33333" stroke-linejoin="round" stroke-miterlimit="10" fill="none" fill-rule="evenodd"/><text font-family="Times New Roman,Times New Roman_MSFontService,sans-serif" font-weight="400" font-size="24" transform="translate(268.603 233)">0<tspan font-size="24" x="122.538" y="0">1</tspan><tspan font-size="24" x="245.077" y="0">2</tspan></text><path d="M458.153 325.737 458.153 366.004" stroke="#000000" stroke-width="1.33333" stroke-linejoin="round" stroke-miterlimit="10" fill="none" fill-rule="evenodd"/><path d="M580.691 325.737 580.691 366.004" stroke="#000000" stroke-width="1.33333" stroke-linejoin="round" stroke-miterlimit="10" fill="none" fill-rule="evenodd"/><path d="M335.615 325.737 335.615 366.004" stroke="#000000" stroke-width="1.33333" stroke-linejoin="round" stroke-miterlimit="10" fill="none" fill-rule="evenodd"/><path d="M703.23 325.737 703.23 366.004" stroke="#000000" stroke-width="1.33333" stroke-linejoin="round" stroke-miterlimit="10" fill="none" fill-rule="evenodd"/><path d="M334.948 326.404 703.896 326.404" stroke="#000000" stroke-width="1.33333" stroke-linejoin="round" stroke-miterlimit="10" fill="none" fill-rule="evenodd"/><path d="M334.948 365.337 703.896 365.337" stroke="#000000" stroke-width="1.33333" stroke-linejoin="round" stroke-miterlimit="10" fill="none" fill-rule="evenodd"/><text font-family="Times New Roman,Times New Roman_MSFontService,sans-serif" font-weight="400" font-size="24" transform="translate(390.884 354)">1<tspan font-size="24" x="122.538" y="0">2</tspan><tspan font-size="24" x="245.077" y="0">3</tspan></text><path d="M582.772 446.543 582.772 486.81" stroke="#000000" stroke-width="1.33333" stroke-linejoin="round" stroke-miterlimit="10" fill="none" fill-rule="evenodd"/><path d="M705.31 446.543 705.31 486.81" stroke="#000000" stroke-width="1.33333" stroke-linejoin="round" stroke-miterlimit="10" fill="none" fill-rule="evenodd"/><path d="M460.233 446.543 460.233 486.81" stroke="#000000" stroke-width="1.33333" stroke-linejoin="round" stroke-miterlimit="10" fill="none" fill-rule="evenodd"/><path d="M827.848 446.543 827.848 486.81" stroke="#000000" stroke-width="1.33333" stroke-linejoin="round" stroke-miterlimit="10" fill="none" fill-rule="evenodd"/><path d="M459.567 447.21 828.515 447.21" stroke="#000000" stroke-width="1.33333" stroke-linejoin="round" stroke-miterlimit="10" fill="none" fill-rule="evenodd"/><path d="M459.567 486.143 828.515 486.143" stroke="#000000" stroke-width="1.33333" stroke-linejoin="round" stroke-miterlimit="10" fill="none" fill-rule="evenodd"/><text font-family="Times New Roman,Times New Roman_MSFontService,sans-serif" font-weight="400" font-size="24" transform="translate(515.503 475)">2<tspan font-size="24" x="122.538" y="0">3</tspan><tspan font-size="24" x="245.077" y="0">4</tspan></text><path d="M893.5 501.5C893.5 516.136 893.5 528 893.5 528L769.001 528C769 528 769 539.865 769 554.5 769 539.865 769 528 769 528L644.501 528C644.5 528 644.5 516.136 644.5 501.5" stroke="#000000" stroke-width="0.666667" stroke-miterlimit="8" fill="none" fill-rule="evenodd"/><path d="M707.39 567.349 707.39 607.615" stroke="#000000" stroke-width="1.33333" stroke-linejoin="round" stroke-miterlimit="10" fill="none" fill-rule="evenodd"/><path d="M829.928 567.349 829.928 607.615" stroke="#000000" stroke-width="1.33333" stroke-linejoin="round" stroke-miterlimit="10" fill="none" fill-rule="evenodd"/><path d="M584.852 567.349 584.852 607.615" stroke="#000000" stroke-width="1.33333" stroke-linejoin="round" stroke-miterlimit="10" fill="none" fill-rule="evenodd"/><path d="M952.467 567.349 952.467 607.615" stroke="#000000" stroke-width="1.33333" stroke-linejoin="round" stroke-miterlimit="10" fill="none" fill-rule="evenodd"/><path d="M584.185 568.015 953.133 568.015" stroke="#000000" stroke-width="1.33333" stroke-linejoin="round" stroke-miterlimit="10" fill="none" fill-rule="evenodd"/><path d="M584.185 606.949 953.133 606.949" stroke="#000000" stroke-width="1.33333" stroke-linejoin="round" stroke-miterlimit="10" fill="none" fill-rule="evenodd"/><text font-family="Times New Roman,Times New Roman_MSFontService,sans-serif" font-weight="400" font-size="24" transform="translate(640.121 596)">3<tspan font-size="24" x="122.538" y="0">4</tspan><tspan fill="#FF0000" font-size="24" x="245.743" y="0">?</tspan><tspan font-size="24" x="-562.032" y="-493">Inpu</tspan>t</text></g></svg>