<svg width="1280" height="720" xmlns="http://www.w3.org/2000/svg" xmlns:xlink="http://www.w3.org/1999/xlink" overflow="hidden"><defs><clipPath id="clip0"><rect x="0" y="0" width="1280" height="720"/></clipPath></defs><g clip-path="url(#clip0)"><rect x="0" y="0" width="1280" height="720" fill="#FFFFFF"/><path d="M237.676 59.5663 237.676 234.766" stroke="#FFFFFF" stroke-width="1.33333" stroke-linejoin="round" stroke-miterlimit="10" fill="none" fill-rule="evenodd"/><path d="M375.777 59.5663 375.777 110.233" stroke="#FFFFFF" stroke-width="1.33333" stroke-linejoin="round" stroke-miterlimit="10" fill="none" fill-rule="evenodd"/><path d="M98.9079 108.233 376.443 108.233" stroke="#FFFFFF" stroke-width="4" stroke-linejoin="round" stroke-miterlimit="10" fill="none" fill-rule="evenodd"/><path d="M98.9079 147.166 375.777 147.166" stroke="#FFFFFF" stroke-width="1.33333" stroke-linejoin="round" stroke-miterlimit="10" fill="none" fill-rule="evenodd"/><path d="M98.9079 195.166 375.777 195.166" stroke="#FFFFFF" stroke-width="1.33333" stroke-linejoin="round" stroke-miterlimit="10" fill="none" fill-rule="evenodd"/><path d="M99.5746 59.5663 99.5746 234.766" stroke="#FFFFFF" stroke-width="1.33333" stroke-linejoin="round" stroke-miterlimit="10" fill="none" fill-rule="evenodd"/><path d="M98.9079 60.233 513.878 60.233" stroke="#FFFFFF" stroke-width="1.33333" stroke-linejoin="round" stroke-miterlimit="10" fill="none" fill-rule="evenodd"/><path d="M98.9079 234.1 375.777 234.1" stroke="#FFFFFF" stroke-width="1.33333" stroke-linejoin="round" stroke-miterlimit="10" fill="none" fill-rule="evenodd"/><text font-family="Times New Roman,Times New Roman_MSFontService,sans-serif" font-weight="700" font-size="16" transform="translate(559.845 80)">Design<tspan font-size="16" x="137.084" y="0">Tuning</tspan><tspan font-size="16" x="277.036" y="0">5</tspan>-<tspan font-size="16" x="290.369" y="0">Fold </tspan><tspan font-size="16" x="287.782" y="20">CV</tspan><tspan font-weight="400" font-size="16" x="-132.351" y="48">MLR</tspan><tspan font-weight="400" font-size="16" x="17.3333" y="48">X</tspan><tspan font-weight="400" font-size="16" x="155.434" y="48">X</tspan><tspan font-family="Segoe UI Symbol,Segoe UI Symbol_MSFontService,sans-serif" font-weight="400" font-size="16" x="293.286" y="48">✓</tspan><tspan font-weight="400" font-size="16" x="-449.52" y="87">Curiosity Weather</tspan><tspan font-weight="400" font-size="16" x="-406.387" y="107">Data</tspan><tspan font-weight="400" font-size="16" x="-268.289" y="87">Data </tspan><tspan font-weight="400" font-size="16" x="-298.036" y="107">Preprocessing</tspan><tspan font-weight="400" font-size="16" x="-124.768" y="87">RF</tspan><tspan font-weight="400" font-size="16" x="17.3333" y="87">X</tspan><tspan font-family="Segoe UI Symbol,Segoe UI Symbol_MSFontService,sans-serif" font-weight="400" font-size="16" x="155.184" y="87">✓</tspan><tspan font-family="Segoe UI Symbol,Segoe UI Symbol_MSFontService,sans-serif" font-weight="400" font-size="16" x="293.286" y="87">✓</tspan><tspan font-weight="400" font-size="16" x="-132.268" y="135">ANN</tspan><tspan font-family="Segoe UI Symbol,Segoe UI Symbol_MSFontService,sans-serif" font-weight="400" font-size="16" x="17.0834" y="135">✓</tspan><tspan font-family="Segoe UI Symbol,Segoe UI Symbol_MSFontService,sans-serif" font-weight="400" font-size="16" x="155.184" y="135">✓</tspan><tspan font-family="Segoe UI Symbol,Segoe UI Symbol_MSFontService,sans-serif" font-weight="400" font-size="16" x="293.286" y="135">✓</tspan></text><path d="M237.5 174.167 249.338 174.167 249.338 174.833 237.5 174.833ZM248.005 170.5 256.005 174.5 248.005 178.5Z"/><path d="M368.5 170.167 384.04 170.167 384.04 170.833 368.5 170.833ZM382.707 166.5 390.707 170.5 382.707 174.5Z"/><path d="M0 0 0.000104987 35.7939" stroke="#000000" stroke-width="0.666667" stroke-miterlimit="8" fill="none" fill-rule="evenodd" transform="matrix(1 0 0 -1 368.5 171.294)"/><path d="M0 0 0.000104987 35.7939" stroke="#000000" stroke-width="0.666667" stroke-miterlimit="8" fill="none" fill-rule="evenodd" transform="matrix(1 0 0 -1 368.5 206.294)"/><path d="M368.5 135.167 384.04 135.167 384.04 135.833 368.5 135.833ZM382.707 131.5 390.707 135.5 382.707 139.5Z"/><path d="M368.5 205.167 384.04 205.167 384.04 205.833 368.5 205.833ZM382.707 201.5 390.707 205.5 382.707 209.5Z"/><path d="M526.5 79.5004C526.5 69.0068 535.007 60.5001 545.5 60.5001L621.5 60.5001C631.993 60.5001 640.5 69.0068 640.5 79.5004L640.5 221.5C640.5 231.993 631.993 240.5 621.5 240.5L545.5 240.5C535.007 240.5 526.5 231.993 526.5 221.5Z" stroke="#000000" stroke-width="1.33333" stroke-miterlimit="8" fill="none" fill-rule="evenodd"/><path d="M661.5 79.5004C661.5 69.0068 670.007 60.5001 680.5 60.5001L756.5 60.5001C766.993 60.5001 775.5 69.0068 775.5 79.5004L775.5 221.5C775.5 231.993 766.993 240.5 756.5 240.5L680.5 240.5C670.007 240.5 661.5 231.993 661.5 221.5Z" stroke="#000000" stroke-width="1.33333" stroke-miterlimit="8" fill="none" fill-rule="evenodd"/><path d="M801.5 79.5004C801.5 69.0068 810.007 60.5001 820.5 60.5001L896.5 60.5001C906.993 60.5001 915.5 69.0068 915.5 79.5004L915.5 221.5C915.5 231.993 906.993 240.5 896.5 240.5L820.5 240.5C810.007 240.5 801.5 231.993 801.5 221.5Z" stroke="#000000" stroke-width="1.33333" stroke-miterlimit="8" fill="none" fill-rule="evenodd"/><path d="M259.5 159.5C259.5 154.53 263.53 150.5 268.5 150.5L346.5 150.5C351.471 150.5 355.5 154.53 355.5 159.5L355.5 195.5C355.5 200.471 351.471 204.5 346.5 204.5L268.5 204.5C263.53 204.5 259.5 200.471 259.5 195.5Z" stroke="#000000" stroke-width="1.33333" stroke-miterlimit="8" fill="none" fill-rule="evenodd"/><path d="M108.5 159.5C108.5 154.53 112.53 150.5 117.5 150.5L222.5 150.5C227.471 150.5 231.5 154.53 231.5 159.5L231.5 195.5C231.5 200.47 227.471 204.5 222.5 204.5L117.5 204.5C112.53 204.5 108.5 200.47 108.5 195.5Z" stroke="#000000" stroke-width="1.33333" stroke-miterlimit="8" fill="none" fill-rule="evenodd"/><path d="M403.5 126.834C403.5 119.47 409.47 113.5 416.834 113.5L470.167 113.5C477.53 113.5 483.5 119.47 483.5 126.834L483.5 221.166C483.5 228.53 477.53 234.5 470.167 234.5L416.834 234.5C409.47 234.5 403.5 228.53 403.5 221.166Z" stroke="#000000" stroke-width="1.33333" stroke-miterlimit="8" fill="none" fill-rule="evenodd"/><path d="M497.5 170.167 513.04 170.167 513.04 170.833 497.5 170.833ZM511.707 166.5 519.707 170.5 511.707 174.5Z"/><path d="M0 0 0.000104987 35.7939" stroke="#000000" stroke-width="0.666667" stroke-miterlimit="8" fill="none" fill-rule="evenodd" transform="matrix(1 0 0 -1 497.5 171.294)"/><path d="M0 0 0.000104987 35.7939" stroke="#000000" stroke-width="0.666667" stroke-miterlimit="8" fill="none" fill-rule="evenodd" transform="matrix(1 0 0 -1 497.5 206.294)"/><path d="M497.5 135.167 513.04 135.167 513.04 135.833 497.5 135.833ZM511.707 131.5 519.707 135.5 511.707 139.5Z"/><path d="M497.5 205.167 513.04 205.167 513.04 205.833 497.5 205.833ZM511.707 201.5 519.707 205.5 511.707 209.5Z"/><path d="M645.5 170.167 652.926 170.167 652.926 170.833 645.5 170.833ZM651.593 166.5 659.593 170.5 651.593 174.5Z"/><path d="M0 0 0.000104987 35.7939" stroke="#000000" stroke-width="0.666667" stroke-miterlimit="8" fill="none" fill-rule="evenodd" transform="matrix(1 0 0 -1 645.5 171.294)"/><path d="M0 0 0.000104987 35.7939" stroke="#000000" stroke-width="0.666667" stroke-miterlimit="8" fill="none" fill-rule="evenodd" transform="matrix(1 0 0 -1 645.5 206.294)"/><path d="M645.5 135.167 652.926 135.167 652.926 135.833 645.5 135.833ZM651.593 131.5 659.593 135.5 651.593 139.5Z"/><path d="M645.5 205.167 652.926 205.167 652.926 205.833 645.5 205.833ZM651.593 201.5 659.593 205.5 651.593 209.5Z"/><path d="M780.5 171.167 787.926 171.167 787.926 171.833 780.5 171.833ZM786.593 167.5 794.593 171.5 786.593 175.5Z"/><path d="M0 0 0.000104987 35.7939" stroke="#000000" stroke-width="0.666667" stroke-miterlimit="8" fill="none" fill-rule="evenodd" transform="matrix(1 0 0 -1 780.5 171.294)"/><path d="M0 0 0.000104987 35.7939" stroke="#000000" stroke-width="0.666667" stroke-miterlimit="8" fill="none" fill-rule="evenodd" transform="matrix(1 0 0 -1 780.5 207.294)"/><path d="M780.5 135.167 787.926 135.167 787.926 135.833 780.5 135.833ZM786.593 131.5 794.593 135.5 786.593 139.5Z"/><path d="M780.5 205.167 787.926 205.167 787.926 205.833 780.5 205.833ZM786.593 201.5 794.593 205.5 786.593 209.5Z"/></g></svg>