<svg width="1280" height="720" xmlns="http://www.w3.org/2000/svg" xmlns:xlink="http://www.w3.org/1999/xlink" overflow="hidden"><defs><clipPath id="clip0"><rect x="0" y="0" width="1280" height="720"/></clipPath></defs><g clip-path="url(#clip0)"><rect x="0" y="0" width="1280" height="720" fill="#FFFFFF"/><rect x="533.5" y="101.5" width="214" height="68" stroke="#000000" stroke-linejoin="round" stroke-miterlimit="10" fill="none"/><text font-family="Times New Roman,Times New Roman_MSFontService,sans-serif" font-weight="400" font-size="24" transform="translate(571 129)">1-Month Prior <tspan font-size="24" x="3.62665" y="29">Weather Data </tspan></text><path d="M0.333333-5.24521e-07 0.333428 60.0525-0.333239 60.0525-0.333333 5.24521e-07ZM4.00009 58.7192 0.000104987 66.7192-3.99991 58.7192Z" transform="matrix(-1 0 0 1 640.5 169.5)"/><path d="M640.833 408.5 640.833 459.926 640.167 459.926 640.167 408.5ZM644.5 458.593 640.5 466.593 636.5 458.593Z"/><rect x="533.5" y="467.5" width="214" height="97" stroke="#000000" stroke-linejoin="round" stroke-miterlimit="10" fill="none"/><text font-family="Times New Roman,Times New Roman_MSFontService,sans-serif" font-weight="400" font-size="24" transform="translate(582.33 494)">7-day Mean <tspan font-size="24" x="-35.6133" y="29">Ambient Air Temp. </tspan><tspan font-size="24" x="3.66663" y="58">Predictions</tspan></text><rect x="533.5" y="236.5" width="214" height="67" stroke="#000000" stroke-linejoin="round" stroke-miterlimit="10" fill="none"/><text font-family="Times New Roman,Times New Roman_MSFontService,sans-serif" font-weight="400" font-size="24" transform="translate(583.333 263)">Multilayer* <tspan font-size="24" x="-0.333374" y="29">CNN Block</tspan></text><path d="M574.5 286.5C574.5 277.664 603.602 270.5 639.5 270.5 675.399 270.5 704.5 277.664 704.5 286.5 704.5 295.337 675.399 302.5 639.5 302.5 603.602 302.5 574.5 295.337 574.5 286.5Z" stroke="#000000" stroke-width="1.33333" stroke-miterlimit="8" stroke-dasharray="5.33333 4" fill="none" fill-rule="evenodd"/><path d="M0 0 176.99 20.5641" stroke="#000000" stroke-width="0.666667" stroke-miterlimit="8" fill="none" fill-rule="evenodd" transform="matrix(1 0 0 -1 704.5 287.064)"/><rect x="506.5" y="370.5" width="268" height="38" stroke="#000000" stroke-linejoin="round" stroke-miterlimit="10" fill="none"/><text font-family="Times New Roman,Times New Roman_MSFontService,sans-serif" font-weight="400" font-size="24" transform="translate(529.333 397)">Fully Connected Layer</text><path d="M640.833 303.5 640.833 363.151 640.167 363.151 640.167 303.5ZM644.5 361.817 640.5 369.817 636.5 361.817Z"/><rect x="924.5" y="106.5" width="214" height="68" stroke="#000000" stroke-linejoin="round" stroke-miterlimit="10" fill="none"/><text font-family="Times New Roman,Times New Roman_MSFontService,sans-serif" font-weight="400" font-size="24" transform="translate(962.036 134)">Convolutional <tspan font-size="24" x="40.6667" y="29">Layer</tspan></text><rect x="924.5" y="219.5" width="214" height="38" stroke="#000000" stroke-linejoin="round" stroke-miterlimit="10" fill="none"/><text font-family="Times New Roman,Times New Roman_MSFontService,sans-serif" font-weight="400" font-size="24" transform="translate(937.369 246)">Max Pooling Layer</text><rect x="889.5" y="302.5" width="284" height="39" stroke="#000000" stroke-linejoin="round" stroke-miterlimit="10" fill="none"/><text font-family="Times New Roman,Times New Roman_MSFontService,sans-serif" font-weight="400" font-size="24" transform="translate(899.369 330)">Batch Normalization Layer</text><rect x="889.5" y="385.5" width="284" height="39" stroke="#000000" stroke-linejoin="round" stroke-miterlimit="10" fill="none"/><text font-family="Times New Roman,Times New Roman_MSFontService,sans-serif" font-weight="400" font-size="24" transform="translate(959.703 413)">Dropout Layer</text><path d="M1031.83 341.5 1031.83 379.311 1031.17 379.311 1031.17 341.5ZM1035.5 377.978 1031.5 385.978 1027.5 377.978Z"/><path d="M1031.83 257.5 1031.83 295.311 1031.17 295.311 1031.17 257.5ZM1035.5 293.978 1031.5 301.978 1027.5 293.978Z"/><path d="M1031.83 174.5 1031.83 212.771 1031.17 212.771 1031.17 174.5ZM1035.5 211.437 1031.5 219.437 1027.5 211.437Z"/><rect x="881.5" y="94.5001" width="303" height="344" stroke="#000000" stroke-width="1.33333" stroke-miterlimit="8" fill="none"/></g></svg>