<svg width="1280" height="720" xmlns="http://www.w3.org/2000/svg" xmlns:xlink="http://www.w3.org/1999/xlink" overflow="hidden"><defs><clipPath id="clip0"><rect x="0" y="0" width="1280" height="720"/></clipPath></defs><g clip-path="url(#clip0)"><rect x="0" y="0" width="1280" height="720" fill="#FFFFFF"/><rect x="533.5" y="101.5" width="214" height="68" stroke="#000000" stroke-linejoin="round" stroke-miterlimit="10" fill="none"/><text font-family="Times New Roman,Times New Roman_MSFontService,sans-serif" font-weight="400" font-size="24" transform="translate(571 129)">1-Month Prior <tspan font-size="24" x="3.62665" y="29">Weather Data </tspan></text><path d="M0.333333-5.24521e-07 0.333428 60.0525-0.333239 60.0525-0.333333 5.24521e-07ZM4.00009 58.7192 0.000104987 66.7192-3.99991 58.7192Z" transform="matrix(-1 0 0 1 640.5 169.5)"/><rect x="533.5" y="236.5" width="214" height="38" stroke="#000000" stroke-linejoin="round" stroke-miterlimit="10" fill="none"/><text font-family="Times New Roman,Times New Roman_MSFontService,sans-serif" font-weight="400" font-size="24" transform="translate(590 263)">MarsRNN</text><path d="M0.333333-7.76759e-07 0.333528 83.4401-0.333139 83.4401-0.333333 7.76759e-07ZM4.00019 82.1068 0.000209974 90.1068-3.99981 82.1068Z" transform="matrix(-1 0 0 1 640.5 274.5)"/><rect x="533.5" y="364.5" width="214" height="39" stroke="#000000" stroke-linejoin="round" stroke-miterlimit="10" fill="none"/><text font-family="Times New Roman,Times New Roman_MSFontService,sans-serif" font-weight="400" font-size="24" transform="translate(575.333 392)">MarsARNet<tspan font-size="24" x="117.333" y="0">*</tspan></text><path d="M641.833 533.5 641.833 592.155 641.167 592.155 641.167 533.5ZM645.5 590.822 641.5 598.822 637.5 590.822Z"/><rect x="535.5" y="598.5" width="213" height="97" stroke="#000000" stroke-linejoin="round" stroke-miterlimit="10" fill="none"/><text font-family="Times New Roman,Times New Roman_MSFontService,sans-serif" font-weight="400" font-size="24" transform="translate(583.814 626)">7-day Mean <tspan font-size="24" x="-35.6133" y="29">Ambient Air Temp. </tspan><tspan font-size="24" x="3.66669" y="58">Predictions</tspan></text><path d="M543.5 257.5C543.5 246.454 586.928 237.5 640.5 237.5 694.072 237.5 737.5 246.454 737.5 257.5 737.5 268.546 694.072 277.5 640.5 277.5 586.928 277.5 543.5 268.546 543.5 257.5Z" stroke="#000000" stroke-width="1.33333" stroke-miterlimit="8" stroke-dasharray="5.33333 4" fill="none" fill-rule="evenodd"/><path d="M0 0 116.289 78.4037" stroke="#000000" stroke-width="0.666667" stroke-miterlimit="8" fill="none" fill-rule="evenodd" transform="matrix(1 0 0 -1 737.5 256.904)"/><path d="M559.5 387.5C559.5 377.007 595.765 368.5 640.5 368.5 685.235 368.5 721.5 377.007 721.5 387.5 721.5 397.993 685.235 406.5 640.5 406.5 595.765 406.5 559.5 397.993 559.5 387.5Z" stroke="#000000" stroke-width="1.33333" stroke-miterlimit="8" stroke-dasharray="5.33333 4" fill="none" fill-rule="evenodd"/><path d="M436.5 353.5 560.046 387.123" stroke="#000000" stroke-width="0.666667" stroke-miterlimit="8" fill="none" fill-rule="evenodd"/><rect x="854.5" y="144.5" width="214" height="68" stroke="#000000" stroke-linejoin="round" stroke-miterlimit="10" fill="none"/><text font-family="Times New Roman,Times New Roman_MSFontService,sans-serif" font-weight="400" font-size="24" transform="translate(903.993 172)">Multilayer* <tspan font-size="24" x="-32.3333" y="29">GRU/LSTM RNN</tspan></text><rect x="508.5" y="494.5" width="267" height="39" stroke="#000000" stroke-linejoin="round" stroke-miterlimit="10" fill="none"/><text font-family="Times New Roman,Times New Roman_MSFontService,sans-serif" font-weight="400" font-size="24" transform="translate(530.817 522)">Fully Connected Layer</text><path d="M640.833 403.495 642.209 487.884 641.542 487.895 640.167 403.505ZM645.853 486.491 641.984 494.555 637.854 486.622Z"/><rect x="40.5001" y="174.5" width="396" height="359" stroke="#000000" stroke-width="1.33333" stroke-miterlimit="8" fill="none"/><rect x="112.5" y="246.5" width="49" height="38" stroke="#000000" stroke-width="1.33333" stroke-miterlimit="8" fill="#FFFFFF"/><text font-family="Times New Roman,Times New Roman_MSFontService,sans-serif" font-weight="400" font-size="16" transform="translate(125.623 270)">t+1</text><rect x="189.5" y="246.5" width="50" height="39" stroke="#000000" stroke-width="1.33333" stroke-miterlimit="8" fill="#FFFFFF"/><text font-family="Times New Roman,Times New Roman_MSFontService,sans-serif" font-weight="400" font-size="16" transform="translate(203.294 271)">t+2</text><rect x="267.5" y="246.5" width="50" height="38" stroke="#000000" stroke-width="1.33333" stroke-miterlimit="8" fill="#FFFFFF"/><text font-family="Times New Roman,Times New Roman_MSFontService,sans-serif" font-weight="400" font-size="16" transform="translate(281.464 270)">t…</text><rect x="346.5" y="246.5" width="50" height="38" stroke="#000000" stroke-width="1.33333" stroke-miterlimit="8" fill="#FFFFFF"/><text font-family="Times New Roman,Times New Roman_MSFontService,sans-serif" font-weight="400" font-size="16" transform="translate(360.18 270)">t+7</text><path d="M161.508 265.167 182.783 265.661 182.767 266.328 161.492 265.833ZM181.535 261.964 189.44 266.149 181.349 269.962Z"/><path d="M136.832 284.594 137.269 289.094 137.258 289.033 138.508 293.346 138.488 293.295 140.426 297.357 140.402 297.315 142.839 300.94 142.803 300.895 145.741 303.958 145.694 303.918 149.007 306.293 148.944 306.257 152.444 307.757 152.364 307.734 155.989 308.297 155.892 308.296 157.704 308.046 157.632 308.064 159.444 307.377 159.375 307.413 161.125 306.225 161.091 306.252 162.841 304.69 162.808 304.723 164.495 302.723 164.48 302.743 166.105 300.493 166.081 300.531 169.019 295.031 169 295.072 171.438 288.51 171.428 288.54 173.366 281.29 173.358 281.323 174.608 273.511 174.605 273.545 175.042 265.545 175.481 257.465 176.736 249.683 178.619 242.337 181.134 235.8 184.091 230.263 185.737 227.92 187.448 225.956 189.169 224.362 191.035 223.14 192.917 222.426 194.815 222.164 198.53 222.741 202.104 224.272 205.408 226.687 208.384 229.79 210.916 233.46 212.817 237.581 213.333 239.866 212.683 240.013 212.175 237.762 212.197 237.828 210.322 233.766 210.351 233.815 207.851 230.19 207.884 230.232 204.947 227.169 204.991 227.208 201.741 224.833 201.806 224.87 198.306 223.37 198.386 223.393 194.761 222.83 194.858 222.831 193.046 223.081 193.118 223.063 191.306 223.75 191.37 223.717 189.558 224.905 189.602 224.871 187.914 226.433 187.939 226.407 186.251 228.345 186.273 228.318 184.648 230.63 184.669 230.595 181.732 236.095 181.749 236.058 179.249 242.558 179.26 242.521 177.385 249.834 177.392 249.804 176.142 257.554 176.145 257.519 175.708 265.582 175.269 273.599 174.014 281.445 172.068 288.727 169.617 295.326 166.658 300.865 165.013 303.144 163.302 305.171 161.518 306.764 159.717 307.986 157.833 308.701 155.935 308.963 152.22 308.386 148.648 306.856 145.281 304.441 142.302 301.336 139.835 297.667 137.875 293.557 136.609 289.189 136.168 284.658ZM216.709 237.919 214.188 246.501 208.835 239.335Z"/><path d="M0.00774236-0.333243 21.2826 0.161043 21.2671 0.82753-0.00774236 0.333243ZM20.0348-3.5356 27.9397 0.649134 19.849 4.46224Z" transform="matrix(1 0 0 -1 239.5 266.149)"/><path d="M317.5 265.167 340.318 265.167 340.317 265.833 317.5 265.833ZM338.984 261.5 346.984 265.5 338.984 269.5Z"/><path d="M214.832 285.892 215.269 290.392 215.258 290.331 216.508 294.644 216.488 294.593 218.426 298.656 218.402 298.613 220.839 302.238 220.803 302.194 223.741 305.256 223.694 305.216 227.007 307.591 226.944 307.555 230.444 309.055 230.364 309.032 233.989 309.595 233.892 309.594 235.704 309.344 235.623 309.366 237.435 308.616 237.375 308.648 239.125 307.461 239.09 307.488 240.84 305.926 240.808 305.959 242.495 303.959 242.477 303.983 244.102 301.67 244.08 301.707 247.017 296.082 247 296.122 249.437 289.497 249.428 289.527 251.365 282.152 251.358 282.185 252.608 274.31 252.605 274.344 253.042 266.156 253.481 257.952 254.736 250.044 256.619 242.637 259.133 235.975 262.09 230.375 263.736 228.033 265.446 226.006 267.169 224.411 269.031 223.191 270.912 222.412 272.815 222.15 276.53 222.726 280.104 224.258 283.408 226.672 286.384 229.775 288.916 233.446 290.817 237.567 291.333 239.852 290.683 239.999 290.175 237.748 290.197 237.814 288.322 233.751 288.351 233.801 285.851 230.176 285.884 230.217 282.947 227.155 282.991 227.193 279.741 224.818 279.806 224.856 276.306 223.356 276.386 223.379 272.761 222.816 272.858 222.817 271.046 223.067 271.127 223.045 269.315 223.795 269.37 223.766 267.558 224.953 267.601 224.919 265.914 226.481 265.942 226.452 264.255 228.452 264.273 228.428 262.648 230.741 262.67 230.705 259.732 236.267 259.749 236.229 257.249 242.854 257.261 242.819 255.386 250.194 255.392 250.164 254.142 258.039 254.145 258.005 253.708 266.192 253.269 274.397 252.014 282.305 250.068 289.712 247.618 296.372 244.66 302.035 243.014 304.378 241.302 306.407 239.518 308 237.721 309.219 235.838 309.999 233.935 310.261 230.22 309.685 226.648 308.154 223.281 305.74 220.302 302.634 217.835 298.965 215.875 294.856 214.609 290.487 214.168 285.957ZM294.709 237.905 292.188 246.487 286.835 239.321Z"/><path d="M292.832 285.243 293.269 289.743 293.258 289.682 294.508 293.995 294.487 293.94 296.487 298.003 296.462 297.961 298.962 301.586 298.926 301.542 301.926 304.604 301.879 304.565 305.254 306.94 305.192 306.905 308.754 308.405 308.675 308.383 312.363 308.946 312.268 308.945 314.143 308.695 314.06 308.717 315.873 307.967 315.824 307.992 317.637 306.867 317.59 306.902 319.403 305.277 319.374 305.306 321.061 303.369 321.04 303.396 322.665 301.083 322.644 301.117 325.644 295.554 325.627 295.592 328.189 288.967 328.178 289.002 330.115 281.69 330.108 281.723 331.358 273.848 331.355 273.882 331.792 265.819 332.231 257.74 333.486 249.83 335.495 242.484 338.009 235.886 341.029 230.287 342.677 227.942 344.45 225.978 346.234 224.321 348.097 223.165 349.975 222.388 351.941 222.126 355.716 222.702 359.35 224.232 362.779 226.645 365.821 229.75 368.351 233.418 370.379 237.538 370.896 239.828 370.245 239.974 369.737 237.723 369.763 237.797 367.763 233.735 367.788 233.777 365.288 230.152 365.324 230.196 362.324 227.133 362.371 227.173 358.996 224.798 359.058 224.832 355.496 223.332 355.575 223.355 351.887 222.792 351.982 222.793 350.107 223.043 350.19 223.021 348.378 223.771 348.426 223.746 346.613 224.871 346.664 224.832 344.914 226.457 344.935 226.436 343.185 228.373 343.21 228.342 341.585 230.654 341.606 230.621 338.606 236.183 338.624 236.144 336.124 242.706 336.134 242.675 334.134 249.988 334.142 249.952 332.892 257.827 332.895 257.793 332.458 265.856 332.019 273.935 330.764 281.844 328.818 289.191 326.241 295.852 323.222 301.451 321.575 303.793 319.863 305.759 318.013 307.418 316.153 308.573 314.275 309.35 312.309 309.612 308.534 309.036 304.9 307.506 301.471 305.093 298.429 301.988 295.899 298.319 293.876 294.208 292.609 289.838 292.168 285.307ZM374.272 237.881 371.75 246.463 366.398 239.296Z"/><path d="M371.833 284.5 371.833 379.886 371.167 379.886 371.167 284.5ZM375.5 378.553 371.5 386.553 367.5 378.553Z"/><path d="M292.833 284.5 292.833 379.886 292.167 379.886 292.167 284.5ZM296.5 378.553 292.5 386.553 288.5 378.553Z"/><path d="M214.833 285.495 216.276 380.233 215.61 380.243 214.167 285.505ZM219.922 378.844 216.045 386.904 211.923 378.966Z"/><path d="M136.833 284.5 136.833 379.886 136.167 379.886 136.167 284.5ZM140.5 378.553 136.5 386.553 132.5 378.553Z"/><path d="M136.833 212.5 136.833 239.17 136.167 239.17 136.167 212.5ZM140.5 237.836 136.5 245.836 132.5 237.836Z" fill="#70AD47"/><path d="M87.5001 265.167 105.535 265.167 105.535 265.833 87.5001 265.833ZM104.202 261.5 112.202 265.5 104.202 269.5Z" fill="#70AD47"/><rect x="119.5" y="387.5" width="268" height="68" stroke="#000000" stroke-linejoin="round" stroke-miterlimit="10" fill="none"/><text font-family="Times New Roman,Times New Roman_MSFontService,sans-serif" font-weight="400" font-size="24" transform="translate(134.74 415)">(Multilayer GRU/LSTM <tspan font-size="24" x="83" y="29">RNN)*</tspan></text><path d="M0.0276818 0.332182-2.22232 0.519682-2.16079 0.508673-4.41079 1.13367-4.34581 1.10803-8.65831 3.35803-8.59719 3.31696-12.6597 6.75446-12.614 6.70736-16.239 11.2699-16.2104 11.2275-19.2729 16.6025-19.253 16.5613-21.628 22.4988-21.613 22.4513-23.113 28.8263-23.1054 28.7782-23.6679 35.4032-23.6703 35.3261-23.4203 37.0136-23.443 36.9326-22.7555 38.5576-22.7884 38.4978-21.6634 40.1228-21.6929 40.086-20.1304 41.7735-20.1648 41.7413-18.1648 43.3663-18.1918 43.3465-15.8168 44.909-15.8332 44.8989-13.0207 46.5239-13.0384 46.5144-9.91343 48.0769-9.93466 48.0672-2.55967 51.1297-2.58209 51.1213 6.04291 53.9963 6.02881 53.9919 15.9038 56.8044 15.8889 56.8005 26.7639 59.363 26.7529 59.3606 38.6279 61.7356 38.6176 61.7337 51.3051 63.8587 51.2976 63.8576 64.7351 65.7951 64.7245 65.7937 78.7245 67.3562 78.7177 67.3555 93.1552 68.668 93.146 68.6673 108.021 69.6048 108.012 69.6044 123.075 70.1669 123.068 70.1667 138.255 70.4167 153.448 70.6668 168.521 71.3548 183.406 72.5431 197.853 74.1066 211.863 76.0455 225.311 78.2972 238.01 80.862 249.898 83.7402 260.787 86.8694 270.679 90.2501 279.325 93.7585 286.723 97.4576 289.868 99.3446 292.7 101.296 295.097 103.251 297.123 105.214 298.716 107.252 299.868 109.3 300.576 111.362 300.835 113.429 300.269 121.419 298.761 129.147 296.373 136.436 293.291 142.915 289.635 148.398 285.517 152.643 282.926 154.075 282.604 153.491 285.151 152.083 285.073 152.143 289.136 147.955 289.098 148.003 292.723 142.565 292.699 142.607 295.761 136.169 295.746 136.209 298.121 128.959 298.11 128.999 299.61 121.311 299.605 121.351 300.168 113.414 300.169 113.479 299.919 111.479 299.935 111.546 299.247 109.546 299.272 109.601 298.147 107.601 298.175 107.643 296.612 105.643 296.643 105.677 294.643 103.739 294.664 103.758 292.289 101.821 292.311 101.837 289.498 99.8995 289.516 99.9108 286.391 98.0358 286.413 98.0481 279.038 94.3606 279.062 94.3714 270.437 90.8714 270.455 90.8779 260.58 87.5029 260.595 87.5079 249.72 84.3829 249.734 84.3865 237.859 81.5115 237.871 81.5142 225.184 78.9517 225.195 78.9538 211.757 76.7038 211.767 76.7052 197.767 74.7677 197.777 74.7689 183.339 73.2064 183.348 73.2073 168.473 72.0198 168.485 72.0205 153.422 71.333 153.432 71.3333 138.245 71.0833 123.054 70.8332 107.983 70.2704 93.0994 69.3324 78.6539 68.0191 64.6452 66.4557 51.1987 64.5169 38.5023 62.3904 26.6166 60.0132 15.7286 57.4477 5.83909 54.6311-2.80427 51.7499-10.2011 48.6784-13.3456 47.1061-16.1751 45.4713-18.5722 43.8943-20.6035 42.2438-22.1981 40.5216-23.3561 38.849-24.0735 37.1533-24.3354 35.3855-23.7676 28.6974-22.2563 22.2744-19.8635 16.2924-16.7769 10.8752-13.1155 6.26683-8.99953 2.78411-4.62305 0.500727-2.30897-0.142075-0.0276818-0.332182ZM285.386 157.086 276.5 156.062 282.65 149.568Z" transform="matrix(-1 0 0 1 395.996 265.5)"/><path d="M290.833 455.5 290.833 482.593 290.167 482.593 290.167 455.5ZM294.5 481.259 290.5 489.259 286.5 481.259Z" fill="#FF0000"/><text font-family="Times New Roman,Times New Roman_MSFontService,sans-serif" font-weight="700" font-size="24" transform="translate(46.2049 264)">(A)<tspan font-size="24" x="-0.000102997" y="219">(B)</tspan></text><path d="M138.833 455.5 138.833 482.593 138.167 482.593 138.167 455.5ZM142.5 481.259 138.5 489.259 134.5 481.259Z" fill="#FF0000"/><path d="M214.833 455.5 214.833 482.593 214.167 482.593 214.167 455.5ZM218.5 481.259 214.5 489.259 210.5 481.259Z" fill="#FF0000"/><path d="M371.833 455.5 371.833 482.593 371.167 482.593 371.167 455.5ZM375.5 481.259 371.5 489.259 367.5 481.259Z" fill="#FF0000"/></g></svg>