<?xml version="1.0" encoding="utf-8" standalone="no"?>
<!DOCTYPE svg PUBLIC "-//W3C//DTD SVG 1.1//EN"
  "http://www.w3.org/Graphics/SVG/1.1/DTD/svg11.dtd">
<svg height="542.815pt" version="1.1" viewBox="0 0 912.12 542.815" width="912.12pt" xmlns="http://www.w3.org/2000/svg" xmlns:xlink="http://www.w3.org/1999/xlink">
 <metadata>
  <rdf:RDF xmlns:cc="http://creativecommons.org/ns#" xmlns:dc="http://purl.org/dc/elements/1.1/" xmlns:rdf="http://www.w3.org/1999/02/22-rdf-syntax-ns#">
   <cc:Work>
    <dc:type rdf:resource="http://purl.org/dc/dcmitype/StillImage"/>
    <dc:date>2021-12-02T20:19:51.396918</dc:date>
    <dc:format>image/svg+xml</dc:format>
    <dc:creator>
     <cc:Agent>
      <dc:title>Matplotlib v3.4.2, https://matplotlib.org/</dc:title>
     </cc:Agent>
    </dc:creator>
   </cc:Work>
  </rdf:RDF>
 </metadata>
 <defs>
  <style type="text/css">*{stroke-linecap:butt;stroke-linejoin:round;}</style>
 </defs>
 <g id="figure_1">
  <g id="patch_1">
   <path d="M 0 542.815 
L 912.12 542.815 
L 912.12 0 
L 0 0 
z
" style="fill:#ffffff;"/>
  </g>
  <g id="axes_1">
   <g id="patch_2">
    <path d="M 66.8775 481.69 
L 903.8775 481.69 
L 903.8775 38.17 
L 66.8775 38.17 
z
" style="fill:#ffffff;"/>
   </g>
   <g id="patch_3">
    <path clip-path="url(#p1102263935)" d="M 104.922955 481.69 
L 127.980806 481.69 
L 127.980806 435.140492 
L 104.922955 435.140492 
z
" style="fill:#1f77b4;opacity:0.5;"/>
   </g>
   <g id="patch_4">
    <path clip-path="url(#p1102263935)" d="M 220.212211 481.69 
L 243.270062 481.69 
L 243.270062 435.174976 
L 220.212211 435.174976 
z
" style="fill:#1f77b4;opacity:0.5;"/>
   </g>
   <g id="patch_5">
    <path clip-path="url(#p1102263935)" d="M 335.501467 481.69 
L 358.559318 481.69 
L 358.559318 435.193827 
L 335.501467 435.193827 
z
" style="fill:#1f77b4;opacity:0.5;"/>
   </g>
   <g id="patch_6">
    <path clip-path="url(#p1102263935)" d="M 450.790723 481.69 
L 473.848574 481.69 
L 473.848574 435.41651 
L 450.790723 435.41651 
z
" style="fill:#1f77b4;opacity:0.5;"/>
   </g>
   <g id="patch_7">
    <path clip-path="url(#p1102263935)" d="M 566.079979 481.69 
L 589.137831 481.69 
L 589.137831 435.703878 
L 566.079979 435.703878 
z
" style="fill:#1f77b4;opacity:0.5;"/>
   </g>
   <g id="patch_8">
    <path clip-path="url(#p1102263935)" d="M 681.369236 481.69 
L 704.427087 481.69 
L 704.427087 435.968171 
L 681.369236 435.968171 
z
" style="fill:#1f77b4;opacity:0.5;"/>
   </g>
   <g id="patch_9">
    <path clip-path="url(#p1102263935)" d="M 796.658492 481.69 
L 819.716343 481.69 
L 819.716343 436.156987 
L 796.658492 436.156987 
z
" style="fill:#1f77b4;opacity:0.5;"/>
   </g>
   <g id="patch_10">
    <path clip-path="url(#p1102263935)" d="M 127.980806 481.69 
L 151.038657 481.69 
L 151.038657 180.102835 
L 127.980806 180.102835 
z
" style="fill:#ff7f0e;opacity:0.5;"/>
   </g>
   <g id="patch_11">
    <path clip-path="url(#p1102263935)" d="M 243.270062 481.69 
L 266.327913 481.69 
L 266.327913 177.707509 
L 243.270062 177.707509 
z
" style="fill:#ff7f0e;opacity:0.5;"/>
   </g>
   <g id="patch_12">
    <path clip-path="url(#p1102263935)" d="M 358.559318 481.69 
L 381.617169 481.69 
L 381.617169 175.045702 
L 358.559318 175.045702 
z
" style="fill:#ff7f0e;opacity:0.5;"/>
   </g>
   <g id="patch_13">
    <path clip-path="url(#p1102263935)" d="M 473.848574 481.69 
L 496.906426 481.69 
L 496.906426 175.003324 
L 473.848574 175.003324 
z
" style="fill:#ff7f0e;opacity:0.5;"/>
   </g>
   <g id="patch_14">
    <path clip-path="url(#p1102263935)" d="M 589.137831 481.69 
L 612.195682 481.69 
L 612.195682 176.119951 
L 589.137831 176.119951 
z
" style="fill:#ff7f0e;opacity:0.5;"/>
   </g>
   <g id="patch_15">
    <path clip-path="url(#p1102263935)" d="M 704.427087 481.69 
L 727.484938 481.69 
L 727.484938 177.078745 
L 704.427087 177.078745 
z
" style="fill:#ff7f0e;opacity:0.5;"/>
   </g>
   <g id="patch_16">
    <path clip-path="url(#p1102263935)" d="M 819.716343 481.69 
L 842.774194 481.69 
L 842.774194 177.168205 
L 819.716343 177.168205 
z
" style="fill:#ff7f0e;opacity:0.5;"/>
   </g>
   <g id="patch_17">
    <path clip-path="url(#p1102263935)" d="M 151.038657 481.69 
L 174.096508 481.69 
L 174.096508 426.571763 
L 151.038657 426.571763 
z
" style="fill:#2ca02c;opacity:0.5;"/>
   </g>
   <g id="patch_18">
    <path clip-path="url(#p1102263935)" d="M 266.327913 481.69 
L 289.385764 481.69 
L 289.385764 426.344274 
L 266.327913 426.344274 
z
" style="fill:#2ca02c;opacity:0.5;"/>
   </g>
   <g id="patch_19">
    <path clip-path="url(#p1102263935)" d="M 381.617169 481.69 
L 404.675021 481.69 
L 404.675021 426.133925 
L 381.617169 426.133925 
z
" style="fill:#2ca02c;opacity:0.5;"/>
   </g>
   <g id="patch_20">
    <path clip-path="url(#p1102263935)" d="M 496.906426 481.69 
L 519.964277 481.69 
L 519.964277 426.160545 
L 496.906426 426.160545 
z
" style="fill:#2ca02c;opacity:0.5;"/>
   </g>
   <g id="patch_21">
    <path clip-path="url(#p1102263935)" d="M 612.195682 481.69 
L 635.253533 481.69 
L 635.253533 426.28665 
L 612.195682 426.28665 
z
" style="fill:#2ca02c;opacity:0.5;"/>
   </g>
   <g id="patch_22">
    <path clip-path="url(#p1102263935)" d="M 727.484938 481.69 
L 750.542789 481.69 
L 750.542789 426.40156 
L 727.484938 426.40156 
z
" style="fill:#2ca02c;opacity:0.5;"/>
   </g>
   <g id="patch_23">
    <path clip-path="url(#p1102263935)" d="M 842.774194 481.69 
L 865.832045 481.69 
L 865.832045 426.451113 
L 842.774194 426.451113 
z
" style="fill:#2ca02c;opacity:0.5;"/>
   </g>
   <g id="matplotlib.axis_1">
    <g id="xtick_1">
     <g id="line2d_1">
      <defs>
       <path d="M 0 0 
L 0 3.5 
" id="ma4ccf4dbbb" style="stroke:#000000;stroke-width:0.8;"/>
      </defs>
      <g>
       <use style="stroke:#000000;stroke-width:0.8;" x="139.509731" xlink:href="#ma4ccf4dbbb" y="481.69"/>
      </g>
     </g>
     <g id="text_1">
      <!-- 1 -->
      <g transform="translate(133.147231 503.886875)scale(0.2 -0.2)">
       <defs>
        <path d="M 909 0 
L 909 331 
L 1722 331 
L 1722 4213 
L 781 3603 
L 781 4013 
L 1919 4750 
L 2350 4750 
L 2350 331 
L 3163 331 
L 3163 0 
L 909 0 
z
" id="DejaVuSerif-31" transform="scale(0.015625)"/>
       </defs>
       <use xlink:href="#DejaVuSerif-31"/>
      </g>
     </g>
    </g>
    <g id="xtick_2">
     <g id="line2d_2">
      <g>
       <use style="stroke:#000000;stroke-width:0.8;" x="254.798988" xlink:href="#ma4ccf4dbbb" y="481.69"/>
      </g>
     </g>
     <g id="text_2">
      <!-- 2 -->
      <g transform="translate(248.436488 503.886875)scale(0.2 -0.2)">
       <defs>
        <path d="M 819 3553 
L 469 3553 
L 469 4384 
Q 803 4563 1142 4656 
Q 1481 4750 1806 4750 
Q 2534 4750 2956 4397 
Q 3378 4044 3378 3438 
Q 3378 2753 2422 1800 
Q 2347 1728 2309 1691 
L 1131 513 
L 3078 513 
L 3078 1088 
L 3444 1088 
L 3444 0 
L 434 0 
L 434 341 
L 1850 1753 
Q 2319 2222 2519 2614 
Q 2719 3006 2719 3438 
Q 2719 3909 2473 4175 
Q 2228 4441 1797 4441 
Q 1350 4441 1106 4219 
Q 863 3997 819 3553 
z
" id="DejaVuSerif-32" transform="scale(0.015625)"/>
       </defs>
       <use xlink:href="#DejaVuSerif-32"/>
      </g>
     </g>
    </g>
    <g id="xtick_3">
     <g id="line2d_3">
      <g>
       <use style="stroke:#000000;stroke-width:0.8;" x="370.088244" xlink:href="#ma4ccf4dbbb" y="481.69"/>
      </g>
     </g>
     <g id="text_3">
      <!-- 3 -->
      <g transform="translate(363.725744 503.886875)scale(0.2 -0.2)">
       <defs>
        <path d="M 622 4469 
Q 988 4606 1323 4678 
Q 1659 4750 1953 4750 
Q 2638 4750 3022 4454 
Q 3406 4159 3406 3634 
Q 3406 3213 3140 2930 
Q 2875 2647 2388 2547 
Q 2963 2466 3280 2130 
Q 3597 1794 3597 1259 
Q 3597 606 3158 257 
Q 2719 -91 1894 -91 
Q 1528 -91 1179 -12 
Q 831 66 488 225 
L 488 1131 
L 838 1131 
Q 869 681 1141 450 
Q 1413 219 1906 219 
Q 2384 219 2661 495 
Q 2938 772 2938 1253 
Q 2938 1803 2653 2086 
Q 2369 2369 1819 2369 
L 1522 2369 
L 1522 2688 
L 1678 2688 
Q 2225 2688 2498 2914 
Q 2772 3141 2772 3597 
Q 2772 4006 2547 4223 
Q 2322 4441 1900 4441 
Q 1478 4441 1245 4241 
Q 1013 4041 972 3647 
L 622 3647 
L 622 4469 
z
" id="DejaVuSerif-33" transform="scale(0.015625)"/>
       </defs>
       <use xlink:href="#DejaVuSerif-33"/>
      </g>
     </g>
    </g>
    <g id="xtick_4">
     <g id="line2d_4">
      <g>
       <use style="stroke:#000000;stroke-width:0.8;" x="485.3775" xlink:href="#ma4ccf4dbbb" y="481.69"/>
      </g>
     </g>
     <g id="text_4">
      <!-- 4 -->
      <g transform="translate(479.015 503.886875)scale(0.2 -0.2)">
       <defs>
        <path d="M 2234 1581 
L 2234 4063 
L 641 1581 
L 2234 1581 
z
M 3609 0 
L 1484 0 
L 1484 331 
L 2234 331 
L 2234 1247 
L 197 1247 
L 197 1588 
L 2241 4750 
L 2859 4750 
L 2859 1581 
L 3750 1581 
L 3750 1247 
L 2859 1247 
L 2859 331 
L 3609 331 
L 3609 0 
z
" id="DejaVuSerif-34" transform="scale(0.015625)"/>
       </defs>
       <use xlink:href="#DejaVuSerif-34"/>
      </g>
     </g>
    </g>
    <g id="xtick_5">
     <g id="line2d_5">
      <g>
       <use style="stroke:#000000;stroke-width:0.8;" x="600.666756" xlink:href="#ma4ccf4dbbb" y="481.69"/>
      </g>
     </g>
     <g id="text_5">
      <!-- 5 -->
      <g transform="translate(594.304256 503.886875)scale(0.2 -0.2)">
       <defs>
        <path d="M 3219 4666 
L 3219 4153 
L 1081 4153 
L 1081 2816 
Q 1244 2928 1461 2984 
Q 1678 3041 1947 3041 
Q 2703 3041 3140 2622 
Q 3578 2203 3578 1478 
Q 3578 738 3136 323 
Q 2694 -91 1894 -91 
Q 1572 -91 1234 -12 
Q 897 66 544 225 
L 544 1131 
L 897 1131 
Q 925 688 1179 453 
Q 1434 219 1894 219 
Q 2388 219 2653 544 
Q 2919 869 2919 1478 
Q 2919 2084 2655 2407 
Q 2391 2731 1894 2731 
Q 1613 2731 1398 2631 
Q 1184 2531 1019 2322 
L 750 2322 
L 750 4666 
L 3219 4666 
z
" id="DejaVuSerif-35" transform="scale(0.015625)"/>
       </defs>
       <use xlink:href="#DejaVuSerif-35"/>
      </g>
     </g>
    </g>
    <g id="xtick_6">
     <g id="line2d_6">
      <g>
       <use style="stroke:#000000;stroke-width:0.8;" x="715.956012" xlink:href="#ma4ccf4dbbb" y="481.69"/>
      </g>
     </g>
     <g id="text_6">
      <!-- 6 -->
      <g transform="translate(709.593512 503.886875)scale(0.2 -0.2)">
       <defs>
        <path d="M 2094 219 
Q 2534 219 2771 542 
Q 3009 866 3009 1472 
Q 3009 2078 2771 2401 
Q 2534 2725 2094 2725 
Q 1647 2725 1412 2412 
Q 1178 2100 1178 1509 
Q 1178 888 1415 553 
Q 1653 219 2094 219 
z
M 1075 2569 
Q 1288 2803 1556 2918 
Q 1825 3034 2163 3034 
Q 2859 3034 3264 2615 
Q 3669 2197 3669 1472 
Q 3669 763 3233 336 
Q 2797 -91 2069 -91 
Q 1278 -91 853 498 
Q 428 1088 428 2181 
Q 428 3406 931 4078 
Q 1434 4750 2350 4750 
Q 2597 4750 2869 4703 
Q 3141 4656 3425 4563 
L 3425 3794 
L 3072 3794 
Q 3034 4109 2831 4275 
Q 2628 4441 2284 4441 
Q 1678 4441 1381 3981 
Q 1084 3522 1075 2569 
z
" id="DejaVuSerif-36" transform="scale(0.015625)"/>
       </defs>
       <use xlink:href="#DejaVuSerif-36"/>
      </g>
     </g>
    </g>
    <g id="xtick_7">
     <g id="line2d_7">
      <g>
       <use style="stroke:#000000;stroke-width:0.8;" x="831.245269" xlink:href="#ma4ccf4dbbb" y="481.69"/>
      </g>
     </g>
     <g id="text_7">
      <!-- 7 -->
      <g transform="translate(824.882769 503.886875)scale(0.2 -0.2)">
       <defs>
        <path d="M 3609 4347 
L 1784 0 
L 1319 0 
L 3059 4153 
L 903 4153 
L 903 3578 
L 538 3578 
L 538 4666 
L 3609 4666 
L 3609 4347 
z
" id="DejaVuSerif-37" transform="scale(0.015625)"/>
       </defs>
       <use xlink:href="#DejaVuSerif-37"/>
      </g>
     </g>
    </g>
    <g id="text_8">
     <!-- Days in the Future -->
     <g transform="translate(371.5575 530.2825)scale(0.24 -0.24)">
      <defs>
       <path d="M 1581 331 
L 2163 331 
Q 3072 331 3558 850 
Q 4044 1369 4044 2338 
Q 4044 3306 3559 3818 
Q 3075 4331 2163 4331 
L 1581 4331 
L 1581 331 
z
M 353 0 
L 353 331 
L 947 331 
L 947 4331 
L 353 4331 
L 353 4666 
L 2209 4666 
Q 3416 4666 4089 4050 
Q 4763 3434 4763 2338 
Q 4763 1238 4088 619 
Q 3413 0 2209 0 
L 353 0 
z
" id="DejaVuSerif-44" transform="scale(0.015625)"/>
       <path d="M 2547 1044 
L 2547 1747 
L 1806 1747 
Q 1378 1747 1168 1562 
Q 959 1378 959 997 
Q 959 650 1171 447 
Q 1384 244 1747 244 
Q 2106 244 2326 466 
Q 2547 688 2547 1044 
z
M 3122 2075 
L 3122 331 
L 3634 331 
L 3634 0 
L 2547 0 
L 2547 359 
Q 2356 128 2106 18 
Q 1856 -91 1522 -91 
Q 969 -91 644 203 
Q 319 497 319 997 
Q 319 1513 691 1797 
Q 1063 2081 1741 2081 
L 2547 2081 
L 2547 2309 
Q 2547 2688 2317 2895 
Q 2088 3103 1672 3103 
Q 1328 3103 1125 2947 
Q 922 2791 872 2484 
L 575 2484 
L 575 3156 
Q 875 3284 1158 3348 
Q 1441 3413 1709 3413 
Q 2400 3413 2761 3070 
Q 3122 2728 3122 2075 
z
" id="DejaVuSerif-61" transform="scale(0.015625)"/>
       <path d="M 1381 -609 
L 1600 -56 
L 359 2988 
L -19 2988 
L -19 3322 
L 1509 3322 
L 1509 2988 
L 978 2988 
L 1913 703 
L 2847 2988 
L 2350 2988 
L 2350 3322 
L 3597 3322 
L 3597 2988 
L 3225 2988 
L 1703 -750 
Q 1547 -1138 1356 -1280 
Q 1166 -1422 819 -1422 
Q 672 -1422 517 -1397 
Q 363 -1372 206 -1325 
L 206 -691 
L 500 -691 
Q 519 -903 608 -995 
Q 697 -1088 884 -1088 
Q 1056 -1088 1161 -992 
Q 1266 -897 1381 -609 
z
" id="DejaVuSerif-79" transform="scale(0.015625)"/>
       <path d="M 359 184 
L 359 959 
L 691 959 
Q 703 588 923 403 
Q 1144 219 1575 219 
Q 1963 219 2166 364 
Q 2369 509 2369 788 
Q 2369 1006 2220 1140 
Q 2072 1275 1594 1428 
L 1178 1569 
Q 750 1706 558 1912 
Q 366 2119 366 2438 
Q 366 2894 700 3153 
Q 1034 3413 1625 3413 
Q 1888 3413 2178 3344 
Q 2469 3275 2778 3144 
L 2778 2419 
L 2447 2419 
Q 2434 2741 2221 2922 
Q 2009 3103 1644 3103 
Q 1281 3103 1095 2975 
Q 909 2847 909 2591 
Q 909 2381 1050 2254 
Q 1191 2128 1613 1997 
L 2069 1856 
Q 2541 1709 2748 1489 
Q 2956 1269 2956 922 
Q 2956 450 2595 179 
Q 2234 -91 1600 -91 
Q 1278 -91 972 -22 
Q 666 47 359 184 
z
" id="DejaVuSerif-73" transform="scale(0.015625)"/>
       <path id="DejaVuSerif-20" transform="scale(0.015625)"/>
       <path d="M 622 4353 
Q 622 4497 726 4603 
Q 831 4709 978 4709 
Q 1122 4709 1226 4603 
Q 1331 4497 1331 4353 
Q 1331 4206 1228 4103 
Q 1125 4000 978 4000 
Q 831 4000 726 4103 
Q 622 4206 622 4353 
z
M 1356 331 
L 1900 331 
L 1900 0 
L 231 0 
L 231 331 
L 781 331 
L 781 2988 
L 231 2988 
L 231 3322 
L 1356 3322 
L 1356 331 
z
" id="DejaVuSerif-69" transform="scale(0.015625)"/>
       <path d="M 263 0 
L 263 331 
L 781 331 
L 781 2988 
L 231 2988 
L 231 3322 
L 1356 3322 
L 1356 2731 
Q 1516 3069 1770 3241 
Q 2025 3413 2363 3413 
Q 2913 3413 3172 3097 
Q 3431 2781 3431 2113 
L 3431 331 
L 3944 331 
L 3944 0 
L 2356 0 
L 2356 331 
L 2853 331 
L 2853 1931 
Q 2853 2541 2703 2767 
Q 2553 2994 2175 2994 
Q 1775 2994 1565 2701 
Q 1356 2409 1356 1850 
L 1356 331 
L 1856 331 
L 1856 0 
L 263 0 
z
" id="DejaVuSerif-6e" transform="scale(0.015625)"/>
       <path d="M 691 2988 
L 184 2988 
L 184 3322 
L 691 3322 
L 691 4353 
L 1269 4353 
L 1269 3322 
L 2350 3322 
L 2350 2988 
L 1269 2988 
L 1269 878 
Q 1269 456 1350 337 
Q 1431 219 1650 219 
Q 1875 219 1978 351 
Q 2081 484 2088 781 
L 2522 781 
Q 2497 328 2275 118 
Q 2053 -91 1600 -91 
Q 1103 -91 897 129 
Q 691 350 691 878 
L 691 2988 
z
" id="DejaVuSerif-74" transform="scale(0.015625)"/>
       <path d="M 263 0 
L 263 331 
L 781 331 
L 781 4531 
L 231 4531 
L 231 4863 
L 1356 4863 
L 1356 2731 
Q 1516 3069 1770 3241 
Q 2025 3413 2363 3413 
Q 2913 3413 3172 3097 
Q 3431 2781 3431 2113 
L 3431 331 
L 3944 331 
L 3944 0 
L 2356 0 
L 2356 331 
L 2853 331 
L 2853 1931 
Q 2853 2541 2704 2764 
Q 2556 2988 2175 2988 
Q 1775 2988 1565 2697 
Q 1356 2406 1356 1850 
L 1356 331 
L 1856 331 
L 1856 0 
L 263 0 
z
" id="DejaVuSerif-68" transform="scale(0.015625)"/>
       <path d="M 3469 1600 
L 991 1600 
L 991 1575 
Q 991 903 1244 561 
Q 1497 219 1991 219 
Q 2369 219 2611 417 
Q 2853 616 2950 1006 
L 3413 1006 
Q 3275 459 2904 184 
Q 2534 -91 1931 -91 
Q 1203 -91 761 389 
Q 319 869 319 1663 
Q 319 2450 753 2931 
Q 1188 3413 1894 3413 
Q 2647 3413 3050 2948 
Q 3453 2484 3469 1600 
z
M 2791 1931 
Q 2772 2513 2545 2808 
Q 2319 3103 1894 3103 
Q 1497 3103 1269 2806 
Q 1041 2509 991 1931 
L 2791 1931 
z
" id="DejaVuSerif-65" transform="scale(0.015625)"/>
       <path d="M 353 0 
L 353 331 
L 947 331 
L 947 4331 
L 353 4331 
L 353 4666 
L 4172 4666 
L 4172 3628 
L 3788 3628 
L 3788 4281 
L 1581 4281 
L 1581 2719 
L 3175 2719 
L 3175 3303 
L 3559 3303 
L 3559 1753 
L 3175 1753 
L 3175 2338 
L 1581 2338 
L 1581 331 
L 2328 331 
L 2328 0 
L 353 0 
z
" id="DejaVuSerif-46" transform="scale(0.015625)"/>
       <path d="M 2266 3322 
L 3341 3322 
L 3341 331 
L 3884 331 
L 3884 0 
L 2766 0 
L 2766 588 
Q 2606 256 2353 82 
Q 2100 -91 1766 -91 
Q 1213 -91 952 223 
Q 691 538 691 1209 
L 691 2988 
L 172 2988 
L 172 3322 
L 1269 3322 
L 1269 1388 
Q 1269 781 1417 556 
Q 1566 331 1947 331 
Q 2347 331 2556 625 
Q 2766 919 2766 1478 
L 2766 2988 
L 2266 2988 
L 2266 3322 
z
" id="DejaVuSerif-75" transform="scale(0.015625)"/>
       <path d="M 3059 3328 
L 3059 2497 
L 2728 2497 
Q 2713 2744 2591 2866 
Q 2469 2988 2234 2988 
Q 1809 2988 1582 2694 
Q 1356 2400 1356 1850 
L 1356 331 
L 2022 331 
L 2022 0 
L 263 0 
L 263 331 
L 781 331 
L 781 2994 
L 231 2994 
L 231 3322 
L 1356 3322 
L 1356 2731 
Q 1525 3078 1790 3245 
Q 2056 3413 2438 3413 
Q 2578 3413 2733 3391 
Q 2888 3369 3059 3328 
z
" id="DejaVuSerif-72" transform="scale(0.015625)"/>
      </defs>
      <use xlink:href="#DejaVuSerif-44"/>
      <use x="80.175781" xlink:href="#DejaVuSerif-61"/>
      <use x="139.794922" xlink:href="#DejaVuSerif-79"/>
      <use x="196.289062" xlink:href="#DejaVuSerif-73"/>
      <use x="247.607422" xlink:href="#DejaVuSerif-20"/>
      <use x="279.394531" xlink:href="#DejaVuSerif-69"/>
      <use x="311.376953" xlink:href="#DejaVuSerif-6e"/>
      <use x="375.78125" xlink:href="#DejaVuSerif-20"/>
      <use x="407.568359" xlink:href="#DejaVuSerif-74"/>
      <use x="447.753906" xlink:href="#DejaVuSerif-68"/>
      <use x="512.158203" xlink:href="#DejaVuSerif-65"/>
      <use x="571.337891" xlink:href="#DejaVuSerif-20"/>
      <use x="603.125" xlink:href="#DejaVuSerif-46"/>
      <use x="672.509766" xlink:href="#DejaVuSerif-75"/>
      <use x="736.914062" xlink:href="#DejaVuSerif-74"/>
      <use x="777.099609" xlink:href="#DejaVuSerif-75"/>
      <use x="841.503906" xlink:href="#DejaVuSerif-72"/>
      <use x="889.306641" xlink:href="#DejaVuSerif-65"/>
     </g>
    </g>
   </g>
   <g id="matplotlib.axis_2">
    <g id="ytick_1">
     <g id="line2d_8">
      <path clip-path="url(#p1102263935)" d="M 66.8775 481.69 
L 903.8775 481.69 
" style="fill:none;stroke:#b0b0b0;stroke-linecap:square;stroke-width:0.8;"/>
     </g>
     <g id="line2d_9">
      <defs>
       <path d="M 0 0 
L -3.5 0 
" id="m957cec1927" style="stroke:#000000;stroke-width:0.8;"/>
      </defs>
      <g>
       <use style="stroke:#000000;stroke-width:0.8;" x="66.8775" xlink:href="#m957cec1927" y="481.69"/>
      </g>
     </g>
     <g id="text_9">
      <!-- 0 -->
      <g transform="translate(47.1525 489.288437)scale(0.2 -0.2)">
       <defs>
        <path d="M 2034 219 
Q 2513 219 2750 744 
Q 2988 1269 2988 2328 
Q 2988 3391 2750 3916 
Q 2513 4441 2034 4441 
Q 1556 4441 1318 3916 
Q 1081 3391 1081 2328 
Q 1081 1269 1318 744 
Q 1556 219 2034 219 
z
M 2034 -91 
Q 1275 -91 848 546 
Q 422 1184 422 2328 
Q 422 3475 848 4112 
Q 1275 4750 2034 4750 
Q 2797 4750 3222 4112 
Q 3647 3475 3647 2328 
Q 3647 1184 3222 546 
Q 2797 -91 2034 -91 
z
" id="DejaVuSerif-30" transform="scale(0.015625)"/>
       </defs>
       <use xlink:href="#DejaVuSerif-30"/>
      </g>
     </g>
    </g>
    <g id="ytick_2">
     <g id="line2d_10">
      <path clip-path="url(#p1102263935)" d="M 66.8775 430.642535 
L 903.8775 430.642535 
" style="fill:none;stroke:#b0b0b0;stroke-linecap:square;stroke-width:0.8;"/>
     </g>
     <g id="line2d_11">
      <g>
       <use style="stroke:#000000;stroke-width:0.8;" x="66.8775" xlink:href="#m957cec1927" y="430.642535"/>
      </g>
     </g>
     <g id="text_10">
      <!-- 5 -->
      <g transform="translate(47.1525 438.240973)scale(0.2 -0.2)">
       <use xlink:href="#DejaVuSerif-35"/>
      </g>
     </g>
    </g>
    <g id="ytick_3">
     <g id="line2d_12">
      <path clip-path="url(#p1102263935)" d="M 66.8775 379.59507 
L 903.8775 379.59507 
" style="fill:none;stroke:#b0b0b0;stroke-linecap:square;stroke-width:0.8;"/>
     </g>
     <g id="line2d_13">
      <g>
       <use style="stroke:#000000;stroke-width:0.8;" x="66.8775" xlink:href="#m957cec1927" y="379.59507"/>
      </g>
     </g>
     <g id="text_11">
      <!-- 10 -->
      <g transform="translate(34.4275 387.193508)scale(0.2 -0.2)">
       <use xlink:href="#DejaVuSerif-31"/>
       <use x="63.623047" xlink:href="#DejaVuSerif-30"/>
      </g>
     </g>
    </g>
    <g id="ytick_4">
     <g id="line2d_14">
      <path clip-path="url(#p1102263935)" d="M 66.8775 328.547605 
L 903.8775 328.547605 
" style="fill:none;stroke:#b0b0b0;stroke-linecap:square;stroke-width:0.8;"/>
     </g>
     <g id="line2d_15">
      <g>
       <use style="stroke:#000000;stroke-width:0.8;" x="66.8775" xlink:href="#m957cec1927" y="328.547605"/>
      </g>
     </g>
     <g id="text_12">
      <!-- 15 -->
      <g transform="translate(34.4275 336.146043)scale(0.2 -0.2)">
       <use xlink:href="#DejaVuSerif-31"/>
       <use x="63.623047" xlink:href="#DejaVuSerif-35"/>
      </g>
     </g>
    </g>
    <g id="ytick_5">
     <g id="line2d_16">
      <path clip-path="url(#p1102263935)" d="M 66.8775 277.500141 
L 903.8775 277.500141 
" style="fill:none;stroke:#b0b0b0;stroke-linecap:square;stroke-width:0.8;"/>
     </g>
     <g id="line2d_17">
      <g>
       <use style="stroke:#000000;stroke-width:0.8;" x="66.8775" xlink:href="#m957cec1927" y="277.500141"/>
      </g>
     </g>
     <g id="text_13">
      <!-- 20 -->
      <g transform="translate(34.4275 285.098578)scale(0.2 -0.2)">
       <use xlink:href="#DejaVuSerif-32"/>
       <use x="63.623047" xlink:href="#DejaVuSerif-30"/>
      </g>
     </g>
    </g>
    <g id="ytick_6">
     <g id="line2d_18">
      <path clip-path="url(#p1102263935)" d="M 66.8775 226.452676 
L 903.8775 226.452676 
" style="fill:none;stroke:#b0b0b0;stroke-linecap:square;stroke-width:0.8;"/>
     </g>
     <g id="line2d_19">
      <g>
       <use style="stroke:#000000;stroke-width:0.8;" x="66.8775" xlink:href="#m957cec1927" y="226.452676"/>
      </g>
     </g>
     <g id="text_14">
      <!-- 25 -->
      <g transform="translate(34.4275 234.051113)scale(0.2 -0.2)">
       <use xlink:href="#DejaVuSerif-32"/>
       <use x="63.623047" xlink:href="#DejaVuSerif-35"/>
      </g>
     </g>
    </g>
    <g id="ytick_7">
     <g id="line2d_20">
      <path clip-path="url(#p1102263935)" d="M 66.8775 175.405211 
L 903.8775 175.405211 
" style="fill:none;stroke:#b0b0b0;stroke-linecap:square;stroke-width:0.8;"/>
     </g>
     <g id="line2d_21">
      <g>
       <use style="stroke:#000000;stroke-width:0.8;" x="66.8775" xlink:href="#m957cec1927" y="175.405211"/>
      </g>
     </g>
     <g id="text_15">
      <!-- 30 -->
      <g transform="translate(34.4275 183.003648)scale(0.2 -0.2)">
       <use xlink:href="#DejaVuSerif-33"/>
       <use x="63.623047" xlink:href="#DejaVuSerif-30"/>
      </g>
     </g>
    </g>
    <g id="ytick_8">
     <g id="line2d_22">
      <path clip-path="url(#p1102263935)" d="M 66.8775 124.357746 
L 903.8775 124.357746 
" style="fill:none;stroke:#b0b0b0;stroke-linecap:square;stroke-width:0.8;"/>
     </g>
     <g id="line2d_23">
      <g>
       <use style="stroke:#000000;stroke-width:0.8;" x="66.8775" xlink:href="#m957cec1927" y="124.357746"/>
      </g>
     </g>
     <g id="text_16">
      <!-- 35 -->
      <g transform="translate(34.4275 131.956184)scale(0.2 -0.2)">
       <use xlink:href="#DejaVuSerif-33"/>
       <use x="63.623047" xlink:href="#DejaVuSerif-35"/>
      </g>
     </g>
    </g>
    <g id="ytick_9">
     <g id="line2d_24">
      <path clip-path="url(#p1102263935)" d="M 66.8775 73.310281 
L 903.8775 73.310281 
" style="fill:none;stroke:#b0b0b0;stroke-linecap:square;stroke-width:0.8;"/>
     </g>
     <g id="line2d_25">
      <g>
       <use style="stroke:#000000;stroke-width:0.8;" x="66.8775" xlink:href="#m957cec1927" y="73.310281"/>
      </g>
     </g>
     <g id="text_17">
      <!-- 40 -->
      <g transform="translate(34.4275 80.908719)scale(0.2 -0.2)">
       <use xlink:href="#DejaVuSerif-34"/>
       <use x="63.623047" xlink:href="#DejaVuSerif-30"/>
      </g>
     </g>
    </g>
    <g id="text_18">
     <!-- Predicted Air Temperature (K) -->
     <g transform="translate(25.43625 445.31875)rotate(-90)scale(0.24 -0.24)">
      <defs>
       <path d="M 1581 2375 
L 2406 2375 
Q 2872 2375 3115 2626 
Q 3359 2878 3359 3353 
Q 3359 3831 3115 4081 
Q 2872 4331 2406 4331 
L 1581 4331 
L 1581 2375 
z
M 353 0 
L 353 331 
L 947 331 
L 947 4331 
L 353 4331 
L 353 4666 
L 2559 4666 
Q 3259 4666 3668 4311 
Q 4078 3956 4078 3353 
Q 4078 2753 3668 2397 
Q 3259 2041 2559 2041 
L 1581 2041 
L 1581 331 
L 2303 331 
L 2303 0 
L 353 0 
z
" id="DejaVuSerif-50" transform="scale(0.015625)"/>
       <path d="M 3359 331 
L 3909 331 
L 3909 0 
L 2784 0 
L 2784 519 
Q 2616 206 2355 57 
Q 2094 -91 1709 -91 
Q 1097 -91 708 395 
Q 319 881 319 1663 
Q 319 2444 706 2928 
Q 1094 3413 1709 3413 
Q 2094 3413 2355 3264 
Q 2616 3116 2784 2803 
L 2784 4531 
L 2241 4531 
L 2241 4863 
L 3359 4863 
L 3359 331 
z
M 2784 1497 
L 2784 1825 
Q 2784 2422 2554 2737 
Q 2325 3053 1888 3053 
Q 1444 3053 1217 2703 
Q 991 2353 991 1663 
Q 991 975 1217 622 
Q 1444 269 1888 269 
Q 2325 269 2554 583 
Q 2784 897 2784 1497 
z
" id="DejaVuSerif-64" transform="scale(0.015625)"/>
       <path d="M 3291 997 
Q 3169 466 2822 187 
Q 2475 -91 1925 -91 
Q 1200 -91 759 389 
Q 319 869 319 1663 
Q 319 2459 759 2936 
Q 1200 3413 1925 3413 
Q 2241 3413 2553 3339 
Q 2866 3266 3181 3116 
L 3181 2266 
L 2847 2266 
Q 2781 2703 2561 2903 
Q 2341 3103 1931 3103 
Q 1466 3103 1228 2742 
Q 991 2381 991 1663 
Q 991 944 1227 581 
Q 1463 219 1931 219 
Q 2303 219 2525 412 
Q 2747 606 2828 997 
L 3291 997 
z
" id="DejaVuSerif-63" transform="scale(0.015625)"/>
       <path d="M 1281 1691 
L 2994 1691 
L 2138 3909 
L 1281 1691 
z
M -38 0 
L -38 331 
L 372 331 
L 2034 4666 
L 2559 4666 
L 4225 331 
L 4684 331 
L 4684 0 
L 2988 0 
L 2988 331 
L 3506 331 
L 3116 1356 
L 1153 1356 
L 763 331 
L 1275 331 
L 1275 0 
L -38 0 
z
" id="DejaVuSerif-41" transform="scale(0.015625)"/>
       <path d="M 1222 0 
L 1222 331 
L 1819 331 
L 1819 4294 
L 447 4294 
L 447 3566 
L 63 3566 
L 63 4666 
L 4206 4666 
L 4206 3566 
L 3822 3566 
L 3822 4294 
L 2450 4294 
L 2450 331 
L 3047 331 
L 3047 0 
L 1222 0 
z
" id="DejaVuSerif-54" transform="scale(0.015625)"/>
       <path d="M 3316 2675 
Q 3481 3041 3739 3227 
Q 3997 3413 4341 3413 
Q 4863 3413 5119 3089 
Q 5375 2766 5375 2113 
L 5375 331 
L 5894 331 
L 5894 0 
L 4300 0 
L 4300 331 
L 4800 331 
L 4800 2047 
Q 4800 2556 4650 2772 
Q 4500 2988 4153 2988 
Q 3769 2988 3567 2697 
Q 3366 2406 3366 1850 
L 3366 331 
L 3866 331 
L 3866 0 
L 2291 0 
L 2291 331 
L 2791 331 
L 2791 2069 
Q 2791 2566 2641 2777 
Q 2491 2988 2144 2988 
Q 1759 2988 1557 2697 
Q 1356 2406 1356 1850 
L 1356 331 
L 1856 331 
L 1856 0 
L 263 0 
L 263 331 
L 781 331 
L 781 2994 
L 231 2994 
L 231 3322 
L 1356 3322 
L 1356 2731 
Q 1516 3063 1762 3238 
Q 2009 3413 2322 3413 
Q 2709 3413 2968 3220 
Q 3228 3028 3316 2675 
z
" id="DejaVuSerif-6d" transform="scale(0.015625)"/>
       <path d="M 1313 1825 
L 1313 1497 
Q 1313 897 1542 583 
Q 1772 269 2209 269 
Q 2650 269 2876 622 
Q 3103 975 3103 1663 
Q 3103 2353 2876 2703 
Q 2650 3053 2209 3053 
Q 1772 3053 1542 2737 
Q 1313 2422 1313 1825 
z
M 738 2988 
L 184 2988 
L 184 3322 
L 1313 3322 
L 1313 2803 
Q 1481 3116 1742 3264 
Q 2003 3413 2388 3413 
Q 3000 3413 3387 2928 
Q 3775 2444 3775 1663 
Q 3775 881 3387 395 
Q 3000 -91 2388 -91 
Q 2003 -91 1742 57 
Q 1481 206 1313 519 
L 1313 -997 
L 1856 -997 
L 1856 -1331 
L 184 -1331 
L 184 -997 
L 738 -997 
L 738 2988 
z
" id="DejaVuSerif-70" transform="scale(0.015625)"/>
       <path d="M 2041 -997 
Q 1281 -656 893 83 
Q 506 822 506 1931 
Q 506 3044 893 3783 
Q 1281 4522 2041 4863 
L 2041 4556 
Q 1559 4225 1350 3623 
Q 1141 3022 1141 1931 
Q 1141 844 1350 242 
Q 1559 -359 2041 -691 
L 2041 -997 
z
" id="DejaVuSerif-28" transform="scale(0.015625)"/>
       <path d="M 353 0 
L 353 331 
L 947 331 
L 947 4331 
L 353 4331 
L 353 4666 
L 2175 4666 
L 2175 4331 
L 1581 4331 
L 1581 2566 
L 3591 4331 
L 3084 4331 
L 3084 4666 
L 4634 4666 
L 4634 4331 
L 4109 4331 
L 2106 2572 
L 4347 331 
L 4878 331 
L 4878 0 
L 3794 0 
L 1581 2216 
L 1581 331 
L 2175 331 
L 2175 0 
L 353 0 
z
" id="DejaVuSerif-4b" transform="scale(0.015625)"/>
       <path d="M 453 -997 
L 453 -691 
Q 934 -359 1145 242 
Q 1356 844 1356 1931 
Q 1356 3022 1145 3623 
Q 934 4225 453 4556 
L 453 4863 
Q 1216 4522 1603 3783 
Q 1991 3044 1991 1931 
Q 1991 822 1603 83 
Q 1216 -656 453 -997 
z
" id="DejaVuSerif-29" transform="scale(0.015625)"/>
      </defs>
      <use xlink:href="#DejaVuSerif-50"/>
      <use x="67.285156" xlink:href="#DejaVuSerif-72"/>
      <use x="115.087891" xlink:href="#DejaVuSerif-65"/>
      <use x="174.267578" xlink:href="#DejaVuSerif-64"/>
      <use x="238.28125" xlink:href="#DejaVuSerif-69"/>
      <use x="270.263672" xlink:href="#DejaVuSerif-63"/>
      <use x="326.269531" xlink:href="#DejaVuSerif-74"/>
      <use x="366.455078" xlink:href="#DejaVuSerif-65"/>
      <use x="425.634766" xlink:href="#DejaVuSerif-64"/>
      <use x="489.648438" xlink:href="#DejaVuSerif-20"/>
      <use x="521.435547" xlink:href="#DejaVuSerif-41"/>
      <use x="593.652344" xlink:href="#DejaVuSerif-69"/>
      <use x="625.634766" xlink:href="#DejaVuSerif-72"/>
      <use x="673.4375" xlink:href="#DejaVuSerif-20"/>
      <use x="705.224609" xlink:href="#DejaVuSerif-54"/>
      <use x="764.173828" xlink:href="#DejaVuSerif-65"/>
      <use x="823.353516" xlink:href="#DejaVuSerif-6d"/>
      <use x="918.177734" xlink:href="#DejaVuSerif-70"/>
      <use x="982.191406" xlink:href="#DejaVuSerif-65"/>
      <use x="1041.371094" xlink:href="#DejaVuSerif-72"/>
      <use x="1089.173828" xlink:href="#DejaVuSerif-61"/>
      <use x="1148.792969" xlink:href="#DejaVuSerif-74"/>
      <use x="1188.978516" xlink:href="#DejaVuSerif-75"/>
      <use x="1253.382812" xlink:href="#DejaVuSerif-72"/>
      <use x="1301.185547" xlink:href="#DejaVuSerif-65"/>
      <use x="1360.365234" xlink:href="#DejaVuSerif-20"/>
      <use x="1392.152344" xlink:href="#DejaVuSerif-28"/>
      <use x="1431.166016" xlink:href="#DejaVuSerif-4b"/>
      <use x="1505.873047" xlink:href="#DejaVuSerif-29"/>
     </g>
    </g>
   </g>
   <g id="LineCollection_1">
    <path clip-path="url(#p1102263935)" d="M 116.45188 449.740792 
L 116.45188 420.540192 
" style="fill:none;stroke:#000000;stroke-width:1.5;"/>
    <path clip-path="url(#p1102263935)" d="M 231.741136 449.820999 
L 231.741136 420.528953 
" style="fill:none;stroke:#000000;stroke-width:1.5;"/>
    <path clip-path="url(#p1102263935)" d="M 347.030393 450.250908 
L 347.030393 420.136745 
" style="fill:none;stroke:#000000;stroke-width:1.5;"/>
    <path clip-path="url(#p1102263935)" d="M 462.319649 450.726946 
L 462.319649 420.106074 
" style="fill:none;stroke:#000000;stroke-width:1.5;"/>
    <path clip-path="url(#p1102263935)" d="M 577.608905 451.193255 
L 577.608905 420.2145 
" style="fill:none;stroke:#000000;stroke-width:1.5;"/>
    <path clip-path="url(#p1102263935)" d="M 692.898161 451.672765 
L 692.898161 420.263576 
" style="fill:none;stroke:#000000;stroke-width:1.5;"/>
    <path clip-path="url(#p1102263935)" d="M 808.187417 452.214746 
L 808.187417 420.099228 
" style="fill:none;stroke:#000000;stroke-width:1.5;"/>
   </g>
   <g id="LineCollection_2">
    <path clip-path="url(#p1102263935)" d="M 139.509731 279.219758 
L 139.509731 80.985913 
" style="fill:none;stroke:#000000;stroke-width:1.5;"/>
    <path clip-path="url(#p1102263935)" d="M 254.798988 274.383552 
L 254.798988 81.031466 
" style="fill:none;stroke:#000000;stroke-width:1.5;"/>
    <path clip-path="url(#p1102263935)" d="M 370.088244 275.874553 
L 370.088244 74.216851 
" style="fill:none;stroke:#000000;stroke-width:1.5;"/>
    <path clip-path="url(#p1102263935)" d="M 485.3775 279.974495 
L 485.3775 70.032154 
" style="fill:none;stroke:#000000;stroke-width:1.5;"/>
    <path clip-path="url(#p1102263935)" d="M 600.666756 284.36601 
L 600.666756 67.873892 
" style="fill:none;stroke:#000000;stroke-width:1.5;"/>
    <path clip-path="url(#p1102263935)" d="M 715.956012 289.106762 
L 715.956012 65.050727 
" style="fill:none;stroke:#000000;stroke-width:1.5;"/>
    <path clip-path="url(#p1102263935)" d="M 831.245269 295.046409 
L 831.245269 59.29 
" style="fill:none;stroke:#000000;stroke-width:1.5;"/>
   </g>
   <g id="LineCollection_3">
    <path clip-path="url(#p1102263935)" d="M 162.567583 435.464189 
L 162.567583 417.679337 
" style="fill:none;stroke:#000000;stroke-width:1.5;"/>
    <path clip-path="url(#p1102263935)" d="M 277.856839 435.163339 
L 277.856839 417.525209 
" style="fill:none;stroke:#000000;stroke-width:1.5;"/>
    <path clip-path="url(#p1102263935)" d="M 393.146095 435.363802 
L 393.146095 416.904048 
" style="fill:none;stroke:#000000;stroke-width:1.5;"/>
    <path clip-path="url(#p1102263935)" d="M 508.435351 435.737796 
L 508.435351 416.583295 
" style="fill:none;stroke:#000000;stroke-width:1.5;"/>
    <path clip-path="url(#p1102263935)" d="M 623.724607 436.12091 
L 623.724607 416.45239 
" style="fill:none;stroke:#000000;stroke-width:1.5;"/>
    <path clip-path="url(#p1102263935)" d="M 739.013864 436.518913 
L 739.013864 416.284207 
" style="fill:none;stroke:#000000;stroke-width:1.5;"/>
    <path clip-path="url(#p1102263935)" d="M 854.30312 436.994148 
L 854.30312 415.908077 
" style="fill:none;stroke:#000000;stroke-width:1.5;"/>
   </g>
   <g id="line2d_26">
    <defs>
     <path d="M 10 0 
L -10 -0 
" id="m41d81b923d" style="stroke:#000000;"/>
    </defs>
    <g clip-path="url(#p1102263935)">
     <use style="stroke:#000000;" x="116.45188" xlink:href="#m41d81b923d" y="449.740792"/>
     <use style="stroke:#000000;" x="231.741136" xlink:href="#m41d81b923d" y="449.820999"/>
     <use style="stroke:#000000;" x="347.030393" xlink:href="#m41d81b923d" y="450.250908"/>
     <use style="stroke:#000000;" x="462.319649" xlink:href="#m41d81b923d" y="450.726946"/>
     <use style="stroke:#000000;" x="577.608905" xlink:href="#m41d81b923d" y="451.193255"/>
     <use style="stroke:#000000;" x="692.898161" xlink:href="#m41d81b923d" y="451.672765"/>
     <use style="stroke:#000000;" x="808.187417" xlink:href="#m41d81b923d" y="452.214746"/>
    </g>
   </g>
   <g id="line2d_27">
    <g clip-path="url(#p1102263935)">
     <use style="stroke:#000000;" x="116.45188" xlink:href="#m41d81b923d" y="420.540192"/>
     <use style="stroke:#000000;" x="231.741136" xlink:href="#m41d81b923d" y="420.528953"/>
     <use style="stroke:#000000;" x="347.030393" xlink:href="#m41d81b923d" y="420.136745"/>
     <use style="stroke:#000000;" x="462.319649" xlink:href="#m41d81b923d" y="420.106074"/>
     <use style="stroke:#000000;" x="577.608905" xlink:href="#m41d81b923d" y="420.2145"/>
     <use style="stroke:#000000;" x="692.898161" xlink:href="#m41d81b923d" y="420.263576"/>
     <use style="stroke:#000000;" x="808.187417" xlink:href="#m41d81b923d" y="420.099228"/>
    </g>
   </g>
   <g id="line2d_28">
    <g clip-path="url(#p1102263935)">
     <use style="stroke:#000000;" x="139.509731" xlink:href="#m41d81b923d" y="279.219758"/>
     <use style="stroke:#000000;" x="254.798988" xlink:href="#m41d81b923d" y="274.383552"/>
     <use style="stroke:#000000;" x="370.088244" xlink:href="#m41d81b923d" y="275.874553"/>
     <use style="stroke:#000000;" x="485.3775" xlink:href="#m41d81b923d" y="279.974495"/>
     <use style="stroke:#000000;" x="600.666756" xlink:href="#m41d81b923d" y="284.36601"/>
     <use style="stroke:#000000;" x="715.956012" xlink:href="#m41d81b923d" y="289.106762"/>
     <use style="stroke:#000000;" x="831.245269" xlink:href="#m41d81b923d" y="295.046409"/>
    </g>
   </g>
   <g id="line2d_29">
    <g clip-path="url(#p1102263935)">
     <use style="stroke:#000000;" x="139.509731" xlink:href="#m41d81b923d" y="80.985913"/>
     <use style="stroke:#000000;" x="254.798988" xlink:href="#m41d81b923d" y="81.031466"/>
     <use style="stroke:#000000;" x="370.088244" xlink:href="#m41d81b923d" y="74.216851"/>
     <use style="stroke:#000000;" x="485.3775" xlink:href="#m41d81b923d" y="70.032154"/>
     <use style="stroke:#000000;" x="600.666756" xlink:href="#m41d81b923d" y="67.873892"/>
     <use style="stroke:#000000;" x="715.956012" xlink:href="#m41d81b923d" y="65.050727"/>
     <use style="stroke:#000000;" x="831.245269" xlink:href="#m41d81b923d" y="59.29"/>
    </g>
   </g>
   <g id="line2d_30">
    <g clip-path="url(#p1102263935)">
     <use style="stroke:#000000;" x="162.567583" xlink:href="#m41d81b923d" y="435.464189"/>
     <use style="stroke:#000000;" x="277.856839" xlink:href="#m41d81b923d" y="435.163339"/>
     <use style="stroke:#000000;" x="393.146095" xlink:href="#m41d81b923d" y="435.363802"/>
     <use style="stroke:#000000;" x="508.435351" xlink:href="#m41d81b923d" y="435.737796"/>
     <use style="stroke:#000000;" x="623.724607" xlink:href="#m41d81b923d" y="436.12091"/>
     <use style="stroke:#000000;" x="739.013864" xlink:href="#m41d81b923d" y="436.518913"/>
     <use style="stroke:#000000;" x="854.30312" xlink:href="#m41d81b923d" y="436.994148"/>
    </g>
   </g>
   <g id="line2d_31">
    <g clip-path="url(#p1102263935)">
     <use style="stroke:#000000;" x="162.567583" xlink:href="#m41d81b923d" y="417.679337"/>
     <use style="stroke:#000000;" x="277.856839" xlink:href="#m41d81b923d" y="417.525209"/>
     <use style="stroke:#000000;" x="393.146095" xlink:href="#m41d81b923d" y="416.904048"/>
     <use style="stroke:#000000;" x="508.435351" xlink:href="#m41d81b923d" y="416.583295"/>
     <use style="stroke:#000000;" x="623.724607" xlink:href="#m41d81b923d" y="416.45239"/>
     <use style="stroke:#000000;" x="739.013864" xlink:href="#m41d81b923d" y="416.284207"/>
     <use style="stroke:#000000;" x="854.30312" xlink:href="#m41d81b923d" y="415.908077"/>
    </g>
   </g>
   <g id="patch_24">
    <path d="M 66.8775 481.69 
L 66.8775 38.17 
" style="fill:none;stroke:#000000;stroke-linecap:square;stroke-linejoin:miter;stroke-width:0.8;"/>
   </g>
   <g id="patch_25">
    <path d="M 903.8775 481.69 
L 903.8775 38.17 
" style="fill:none;stroke:#000000;stroke-linecap:square;stroke-linejoin:miter;stroke-width:0.8;"/>
   </g>
   <g id="patch_26">
    <path d="M 66.8775 481.69 
L 903.8775 481.69 
" style="fill:none;stroke:#000000;stroke-linecap:square;stroke-linejoin:miter;stroke-width:0.8;"/>
   </g>
   <g id="patch_27">
    <path d="M 66.8775 38.17 
L 903.8775 38.17 
" style="fill:none;stroke:#000000;stroke-linecap:square;stroke-linejoin:miter;stroke-width:0.8;"/>
   </g>
   <g id="text_19">
    <!-- 4.56 -->
    <g transform="translate(69.297955 431.812992)scale(0.16 -0.16)">
     <defs>
      <path d="M 603 325 
Q 603 500 722 622 
Q 841 744 1019 744 
Q 1191 744 1312 622 
Q 1434 500 1434 325 
Q 1434 153 1312 31 
Q 1191 -91 1019 -91 
Q 841 -91 722 29 
Q 603 150 603 325 
z
" id="DejaVuSerif-2e" transform="scale(0.015625)"/>
     </defs>
     <use xlink:href="#DejaVuSerif-34"/>
     <use x="63.623047" xlink:href="#DejaVuSerif-2e"/>
     <use x="95.410156" xlink:href="#DejaVuSerif-35"/>
     <use x="159.033203" xlink:href="#DejaVuSerif-36"/>
    </g>
   </g>
   <g id="text_20">
    <!-- 4.56 -->
    <g transform="translate(184.587211 431.847476)scale(0.16 -0.16)">
     <use xlink:href="#DejaVuSerif-34"/>
     <use x="63.623047" xlink:href="#DejaVuSerif-2e"/>
     <use x="95.410156" xlink:href="#DejaVuSerif-35"/>
     <use x="159.033203" xlink:href="#DejaVuSerif-36"/>
    </g>
   </g>
   <g id="text_21">
    <!-- 4.55 -->
    <g transform="translate(299.876467 431.866327)scale(0.16 -0.16)">
     <use xlink:href="#DejaVuSerif-34"/>
     <use x="63.623047" xlink:href="#DejaVuSerif-2e"/>
     <use x="95.410156" xlink:href="#DejaVuSerif-35"/>
     <use x="159.033203" xlink:href="#DejaVuSerif-35"/>
    </g>
   </g>
   <g id="text_22">
    <!-- 4.53 -->
    <g transform="translate(415.165723 432.08901)scale(0.16 -0.16)">
     <use xlink:href="#DejaVuSerif-34"/>
     <use x="63.623047" xlink:href="#DejaVuSerif-2e"/>
     <use x="95.410156" xlink:href="#DejaVuSerif-35"/>
     <use x="159.033203" xlink:href="#DejaVuSerif-33"/>
    </g>
   </g>
   <g id="text_23">
    <!-- 4.5 -->
    <g transform="translate(540.634979 432.376378)scale(0.16 -0.16)">
     <use xlink:href="#DejaVuSerif-34"/>
     <use x="63.623047" xlink:href="#DejaVuSerif-2e"/>
     <use x="95.410156" xlink:href="#DejaVuSerif-35"/>
    </g>
   </g>
   <g id="text_24">
    <!-- 4.48 -->
    <g transform="translate(645.744236 432.640671)scale(0.16 -0.16)">
     <defs>
      <path d="M 2981 1275 
Q 2981 1775 2732 2051 
Q 2484 2328 2034 2328 
Q 1584 2328 1336 2051 
Q 1088 1775 1088 1275 
Q 1088 772 1336 495 
Q 1584 219 2034 219 
Q 2484 219 2732 495 
Q 2981 772 2981 1275 
z
M 2853 3541 
Q 2853 3966 2637 4203 
Q 2422 4441 2034 4441 
Q 1650 4441 1433 4203 
Q 1216 3966 1216 3541 
Q 1216 3113 1433 2875 
Q 1650 2638 2034 2638 
Q 2422 2638 2637 2875 
Q 2853 3113 2853 3541 
z
M 2516 2484 
Q 3047 2413 3344 2092 
Q 3641 1772 3641 1275 
Q 3641 619 3225 264 
Q 2809 -91 2034 -91 
Q 1263 -91 845 264 
Q 428 619 428 1275 
Q 428 1772 725 2092 
Q 1022 2413 1556 2484 
Q 1084 2569 832 2842 
Q 581 3116 581 3541 
Q 581 4103 968 4426 
Q 1356 4750 2034 4750 
Q 2713 4750 3100 4426 
Q 3488 4103 3488 3541 
Q 3488 3116 3236 2842 
Q 2984 2569 2516 2484 
z
" id="DejaVuSerif-38" transform="scale(0.015625)"/>
     </defs>
     <use xlink:href="#DejaVuSerif-34"/>
     <use x="63.623047" xlink:href="#DejaVuSerif-2e"/>
     <use x="95.410156" xlink:href="#DejaVuSerif-34"/>
     <use x="159.033203" xlink:href="#DejaVuSerif-38"/>
    </g>
   </g>
   <g id="text_25">
    <!-- 4.46 -->
    <g transform="translate(761.033492 432.829487)scale(0.16 -0.16)">
     <use xlink:href="#DejaVuSerif-34"/>
     <use x="63.623047" xlink:href="#DejaVuSerif-2e"/>
     <use x="95.410156" xlink:href="#DejaVuSerif-34"/>
     <use x="159.033203" xlink:href="#DejaVuSerif-36"/>
    </g>
   </g>
   <g id="text_26">
    <!-- 29.54 -->
    <g transform="translate(82.175806 176.775335)scale(0.16 -0.16)">
     <defs>
      <path d="M 2994 2091 
Q 2784 1856 2512 1740 
Q 2241 1625 1900 1625 
Q 1206 1625 804 2044 
Q 403 2463 403 3188 
Q 403 3897 839 4323 
Q 1275 4750 2003 4750 
Q 2794 4750 3217 4161 
Q 3641 3572 3641 2478 
Q 3641 1253 3137 581 
Q 2634 -91 1722 -91 
Q 1475 -91 1203 -44 
Q 931 3 647 97 
L 647 872 
L 997 872 
Q 1038 556 1241 387 
Q 1444 219 1784 219 
Q 2391 219 2687 676 
Q 2984 1134 2994 2091 
z
M 1978 4441 
Q 1534 4441 1298 4117 
Q 1063 3794 1063 3188 
Q 1063 2581 1298 2256 
Q 1534 1931 1978 1931 
Q 2422 1931 2658 2245 
Q 2894 2559 2894 3150 
Q 2894 3772 2656 4106 
Q 2419 4441 1978 4441 
z
" id="DejaVuSerif-39" transform="scale(0.015625)"/>
     </defs>
     <use xlink:href="#DejaVuSerif-32"/>
     <use x="63.623047" xlink:href="#DejaVuSerif-39"/>
     <use x="127.246094" xlink:href="#DejaVuSerif-2e"/>
     <use x="159.033203" xlink:href="#DejaVuSerif-35"/>
     <use x="222.65625" xlink:href="#DejaVuSerif-34"/>
    </g>
   </g>
   <g id="text_27">
    <!-- 29.77 -->
    <g transform="translate(197.465062 174.380009)scale(0.16 -0.16)">
     <use xlink:href="#DejaVuSerif-32"/>
     <use x="63.623047" xlink:href="#DejaVuSerif-39"/>
     <use x="127.246094" xlink:href="#DejaVuSerif-2e"/>
     <use x="159.033203" xlink:href="#DejaVuSerif-37"/>
     <use x="222.65625" xlink:href="#DejaVuSerif-37"/>
    </g>
   </g>
   <g id="text_28">
    <!-- 30.04 -->
    <g transform="translate(312.754318 171.718202)scale(0.16 -0.16)">
     <use xlink:href="#DejaVuSerif-33"/>
     <use x="63.623047" xlink:href="#DejaVuSerif-30"/>
     <use x="127.246094" xlink:href="#DejaVuSerif-2e"/>
     <use x="159.033203" xlink:href="#DejaVuSerif-30"/>
     <use x="222.65625" xlink:href="#DejaVuSerif-34"/>
    </g>
   </g>
   <g id="text_29">
    <!-- 30.04 -->
    <g transform="translate(428.043574 171.675824)scale(0.16 -0.16)">
     <use xlink:href="#DejaVuSerif-33"/>
     <use x="63.623047" xlink:href="#DejaVuSerif-30"/>
     <use x="127.246094" xlink:href="#DejaVuSerif-2e"/>
     <use x="159.033203" xlink:href="#DejaVuSerif-30"/>
     <use x="222.65625" xlink:href="#DejaVuSerif-34"/>
    </g>
   </g>
   <g id="text_30">
    <!-- 29.93 -->
    <g transform="translate(543.332831 172.792451)scale(0.16 -0.16)">
     <use xlink:href="#DejaVuSerif-32"/>
     <use x="63.623047" xlink:href="#DejaVuSerif-39"/>
     <use x="127.246094" xlink:href="#DejaVuSerif-2e"/>
     <use x="159.033203" xlink:href="#DejaVuSerif-39"/>
     <use x="222.65625" xlink:href="#DejaVuSerif-33"/>
    </g>
   </g>
   <g id="text_31">
    <!-- 29.84 -->
    <g transform="translate(658.622087 173.751245)scale(0.16 -0.16)">
     <use xlink:href="#DejaVuSerif-32"/>
     <use x="63.623047" xlink:href="#DejaVuSerif-39"/>
     <use x="127.246094" xlink:href="#DejaVuSerif-2e"/>
     <use x="159.033203" xlink:href="#DejaVuSerif-38"/>
     <use x="222.65625" xlink:href="#DejaVuSerif-34"/>
    </g>
   </g>
   <g id="text_32">
    <!-- 29.83 -->
    <g transform="translate(773.911343 173.840705)scale(0.16 -0.16)">
     <use xlink:href="#DejaVuSerif-32"/>
     <use x="63.623047" xlink:href="#DejaVuSerif-39"/>
     <use x="127.246094" xlink:href="#DejaVuSerif-2e"/>
     <use x="159.033203" xlink:href="#DejaVuSerif-38"/>
     <use x="222.65625" xlink:href="#DejaVuSerif-33"/>
    </g>
   </g>
   <g id="text_33">
    <!-- 5.4 -->
    <g transform="translate(125.593657 423.244263)scale(0.16 -0.16)">
     <use xlink:href="#DejaVuSerif-35"/>
     <use x="63.623047" xlink:href="#DejaVuSerif-2e"/>
     <use x="95.410156" xlink:href="#DejaVuSerif-34"/>
    </g>
   </g>
   <g id="text_34">
    <!-- 5.42 -->
    <g transform="translate(230.702913 423.016774)scale(0.16 -0.16)">
     <use xlink:href="#DejaVuSerif-35"/>
     <use x="63.623047" xlink:href="#DejaVuSerif-2e"/>
     <use x="95.410156" xlink:href="#DejaVuSerif-34"/>
     <use x="159.033203" xlink:href="#DejaVuSerif-32"/>
    </g>
   </g>
   <g id="text_35">
    <!-- 5.44 -->
    <g transform="translate(345.992169 422.806425)scale(0.16 -0.16)">
     <use xlink:href="#DejaVuSerif-35"/>
     <use x="63.623047" xlink:href="#DejaVuSerif-2e"/>
     <use x="95.410156" xlink:href="#DejaVuSerif-34"/>
     <use x="159.033203" xlink:href="#DejaVuSerif-34"/>
    </g>
   </g>
   <g id="text_36">
    <!-- 5.44 -->
    <g transform="translate(461.281426 422.833045)scale(0.16 -0.16)">
     <use xlink:href="#DejaVuSerif-35"/>
     <use x="63.623047" xlink:href="#DejaVuSerif-2e"/>
     <use x="95.410156" xlink:href="#DejaVuSerif-34"/>
     <use x="159.033203" xlink:href="#DejaVuSerif-34"/>
    </g>
   </g>
   <g id="text_37">
    <!-- 5.43 -->
    <g transform="translate(576.570682 422.95915)scale(0.16 -0.16)">
     <use xlink:href="#DejaVuSerif-35"/>
     <use x="63.623047" xlink:href="#DejaVuSerif-2e"/>
     <use x="95.410156" xlink:href="#DejaVuSerif-34"/>
     <use x="159.033203" xlink:href="#DejaVuSerif-33"/>
    </g>
   </g>
   <g id="text_38">
    <!-- 5.42 -->
    <g transform="translate(691.859938 423.07406)scale(0.16 -0.16)">
     <use xlink:href="#DejaVuSerif-35"/>
     <use x="63.623047" xlink:href="#DejaVuSerif-2e"/>
     <use x="95.410156" xlink:href="#DejaVuSerif-34"/>
     <use x="159.033203" xlink:href="#DejaVuSerif-32"/>
    </g>
   </g>
   <g id="text_39">
    <!-- 5.41 -->
    <g transform="translate(807.149194 423.123613)scale(0.16 -0.16)">
     <use xlink:href="#DejaVuSerif-35"/>
     <use x="63.623047" xlink:href="#DejaVuSerif-2e"/>
     <use x="95.410156" xlink:href="#DejaVuSerif-34"/>
     <use x="159.033203" xlink:href="#DejaVuSerif-31"/>
    </g>
   </g>
   <g id="text_40">
    <!--  LSTM Unstacked Iterative Multi-Step Performance -->
    <g transform="translate(65.835 31.515)scale(0.32 -0.32)">
     <defs>
      <path d="M 353 0 
L 353 331 
L 947 331 
L 947 4331 
L 353 4331 
L 353 4666 
L 2175 4666 
L 2175 4331 
L 1581 4331 
L 1581 384 
L 3713 384 
L 3713 1166 
L 4097 1166 
L 4097 0 
L 353 0 
z
" id="DejaVuSerif-4c" transform="scale(0.015625)"/>
      <path d="M 594 225 
L 594 1288 
L 953 1284 
Q 969 753 1261 498 
Q 1553 244 2150 244 
Q 2706 244 2998 464 
Q 3291 684 3291 1106 
Q 3291 1444 3114 1625 
Q 2938 1806 2369 1978 
L 1753 2163 
Q 1084 2366 811 2669 
Q 538 2972 538 3500 
Q 538 4094 959 4422 
Q 1381 4750 2144 4750 
Q 2469 4750 2856 4679 
Q 3244 4609 3681 4475 
L 3681 3481 
L 3328 3481 
Q 3275 3975 2998 4195 
Q 2722 4416 2156 4416 
Q 1663 4416 1405 4214 
Q 1147 4013 1147 3628 
Q 1147 3294 1340 3103 
Q 1534 2913 2163 2725 
L 2741 2553 
Q 3375 2363 3645 2067 
Q 3916 1772 3916 1275 
Q 3916 597 3481 253 
Q 3047 -91 2188 -91 
Q 1803 -91 1404 -12 
Q 1006 66 594 225 
z
" id="DejaVuSerif-53" transform="scale(0.015625)"/>
      <path d="M 353 0 
L 353 331 
L 947 331 
L 947 4331 
L 319 4331 
L 319 4666 
L 1678 4666 
L 3316 1344 
L 4953 4666 
L 6228 4666 
L 6228 4331 
L 5606 4331 
L 5606 331 
L 6203 331 
L 6203 0 
L 4378 0 
L 4378 331 
L 4972 331 
L 4972 3938 
L 3372 684 
L 2931 684 
L 1331 3938 
L 1331 331 
L 1925 331 
L 1925 0 
L 353 0 
z
" id="DejaVuSerif-4d" transform="scale(0.015625)"/>
      <path d="M 897 4331 
L 300 4331 
L 300 4666 
L 2125 4666 
L 2125 4331 
L 1528 4331 
L 1528 1919 
Q 1528 1025 1820 672 
Q 2113 319 2828 319 
Q 3544 319 3836 672 
Q 4128 1025 4128 1919 
L 4128 4331 
L 3531 4331 
L 3531 4666 
L 5106 4666 
L 5106 4331 
L 4513 4331 
L 4513 1856 
Q 4513 791 4103 350 
Q 3694 -91 2713 -91 
Q 1731 -91 1314 353 
Q 897 797 897 1856 
L 897 4331 
z
" id="DejaVuSerif-55" transform="scale(0.015625)"/>
      <path d="M 1831 0 
L 219 0 
L 219 331 
L 738 331 
L 738 4531 
L 184 4531 
L 184 4863 
L 1313 4863 
L 1313 1697 
L 2713 2988 
L 2234 2988 
L 2234 3322 
L 3738 3322 
L 3738 2988 
L 3169 2988 
L 2181 2075 
L 3444 331 
L 3922 331 
L 3922 0 
L 2284 0 
L 2284 331 
L 2759 331 
L 1766 1697 
L 1313 1275 
L 1313 331 
L 1831 331 
L 1831 0 
z
" id="DejaVuSerif-6b" transform="scale(0.015625)"/>
      <path d="M 1581 331 
L 2175 331 
L 2175 0 
L 353 0 
L 353 331 
L 947 331 
L 947 4331 
L 353 4331 
L 353 4666 
L 2175 4666 
L 2175 4331 
L 1581 4331 
L 1581 331 
z
" id="DejaVuSerif-49" transform="scale(0.015625)"/>
      <path d="M 1581 0 
L 359 2988 
L -19 2988 
L -19 3322 
L 1509 3322 
L 1509 2988 
L 978 2988 
L 1913 703 
L 2847 2988 
L 2350 2988 
L 2350 3322 
L 3597 3322 
L 3597 2988 
L 3225 2988 
L 2003 0 
L 1581 0 
z
" id="DejaVuSerif-76" transform="scale(0.015625)"/>
      <path d="M 1313 331 
L 1856 331 
L 1856 0 
L 184 0 
L 184 331 
L 738 331 
L 738 4531 
L 184 4531 
L 184 4863 
L 1313 4863 
L 1313 331 
z
" id="DejaVuSerif-6c" transform="scale(0.015625)"/>
      <path d="M 281 1959 
L 1881 1959 
L 1881 1472 
L 281 1472 
L 281 1959 
z
" id="DejaVuSerif-2d" transform="scale(0.015625)"/>
      <path d="M 2753 4078 
L 2450 4078 
Q 2447 4313 2317 4434 
Q 2188 4556 1941 4556 
Q 1619 4556 1487 4379 
Q 1356 4203 1356 3750 
L 1356 3322 
L 2284 3322 
L 2284 2988 
L 1356 2988 
L 1356 331 
L 2094 331 
L 2094 0 
L 231 0 
L 231 331 
L 781 331 
L 781 2988 
L 231 2988 
L 231 3322 
L 781 3322 
L 781 3738 
Q 781 4294 1070 4578 
Q 1359 4863 1919 4863 
Q 2128 4863 2337 4825 
Q 2547 4788 2753 4709 
L 2753 4078 
z
" id="DejaVuSerif-66" transform="scale(0.015625)"/>
      <path d="M 1925 219 
Q 2388 219 2623 584 
Q 2859 950 2859 1663 
Q 2859 2375 2623 2739 
Q 2388 3103 1925 3103 
Q 1463 3103 1227 2739 
Q 991 2375 991 1663 
Q 991 950 1228 584 
Q 1466 219 1925 219 
z
M 1925 -91 
Q 1200 -91 759 389 
Q 319 869 319 1663 
Q 319 2456 758 2934 
Q 1197 3413 1925 3413 
Q 2653 3413 3092 2934 
Q 3531 2456 3531 1663 
Q 3531 869 3092 389 
Q 2653 -91 1925 -91 
z
" id="DejaVuSerif-6f" transform="scale(0.015625)"/>
     </defs>
     <use xlink:href="#DejaVuSerif-20"/>
     <use x="31.787109" xlink:href="#DejaVuSerif-4c"/>
     <use x="98.193359" xlink:href="#DejaVuSerif-53"/>
     <use x="166.699219" xlink:href="#DejaVuSerif-54"/>
     <use x="233.398438" xlink:href="#DejaVuSerif-4d"/>
     <use x="335.791016" xlink:href="#DejaVuSerif-20"/>
     <use x="367.578125" xlink:href="#DejaVuSerif-55"/>
     <use x="451.855469" xlink:href="#DejaVuSerif-6e"/>
     <use x="516.259766" xlink:href="#DejaVuSerif-73"/>
     <use x="567.578125" xlink:href="#DejaVuSerif-74"/>
     <use x="607.763672" xlink:href="#DejaVuSerif-61"/>
     <use x="667.382812" xlink:href="#DejaVuSerif-63"/>
     <use x="723.388672" xlink:href="#DejaVuSerif-6b"/>
     <use x="783.984375" xlink:href="#DejaVuSerif-65"/>
     <use x="843.164062" xlink:href="#DejaVuSerif-64"/>
     <use x="907.177734" xlink:href="#DejaVuSerif-20"/>
     <use x="938.964844" xlink:href="#DejaVuSerif-49"/>
     <use x="978.466797" xlink:href="#DejaVuSerif-74"/>
     <use x="1018.652344" xlink:href="#DejaVuSerif-65"/>
     <use x="1077.832031" xlink:href="#DejaVuSerif-72"/>
     <use x="1125.634766" xlink:href="#DejaVuSerif-61"/>
     <use x="1185.253906" xlink:href="#DejaVuSerif-74"/>
     <use x="1225.439453" xlink:href="#DejaVuSerif-69"/>
     <use x="1257.421875" xlink:href="#DejaVuSerif-76"/>
     <use x="1313.916016" xlink:href="#DejaVuSerif-65"/>
     <use x="1373.095703" xlink:href="#DejaVuSerif-20"/>
     <use x="1404.882812" xlink:href="#DejaVuSerif-4d"/>
     <use x="1507.275391" xlink:href="#DejaVuSerif-75"/>
     <use x="1571.679688" xlink:href="#DejaVuSerif-6c"/>
     <use x="1603.662109" xlink:href="#DejaVuSerif-74"/>
     <use x="1643.847656" xlink:href="#DejaVuSerif-69"/>
     <use x="1675.830078" xlink:href="#DejaVuSerif-2d"/>
     <use x="1709.619141" xlink:href="#DejaVuSerif-53"/>
     <use x="1778.125" xlink:href="#DejaVuSerif-74"/>
     <use x="1818.310547" xlink:href="#DejaVuSerif-65"/>
     <use x="1877.490234" xlink:href="#DejaVuSerif-70"/>
     <use x="1941.503906" xlink:href="#DejaVuSerif-20"/>
     <use x="1973.291016" xlink:href="#DejaVuSerif-50"/>
     <use x="2036.076172" xlink:href="#DejaVuSerif-65"/>
     <use x="2095.255859" xlink:href="#DejaVuSerif-72"/>
     <use x="2143.058594" xlink:href="#DejaVuSerif-66"/>
     <use x="2180.070312" xlink:href="#DejaVuSerif-6f"/>
     <use x="2240.275391" xlink:href="#DejaVuSerif-72"/>
     <use x="2288.078125" xlink:href="#DejaVuSerif-6d"/>
     <use x="2382.902344" xlink:href="#DejaVuSerif-61"/>
     <use x="2442.521484" xlink:href="#DejaVuSerif-6e"/>
     <use x="2506.925781" xlink:href="#DejaVuSerif-63"/>
     <use x="2562.931641" xlink:href="#DejaVuSerif-65"/>
    </g>
   </g>
   <g id="legend_1">
    <g id="patch_28">
     <path d="M 645.375 121.425 
L 892.6775 121.425 
Q 895.8775 121.425 895.8775 118.225 
L 895.8775 49.37 
Q 895.8775 46.17 892.6775 46.17 
L 645.375 46.17 
Q 642.175 46.17 642.175 49.37 
L 642.175 118.225 
Q 642.175 121.425 645.375 121.425 
z
" style="fill:#ffffff;opacity:0.8;stroke:#cccccc;stroke-linejoin:miter;"/>
    </g>
    <g id="patch_29">
     <path d="M 648.575 64.7275 
L 680.575 64.7275 
L 680.575 53.5275 
L 648.575 53.5275 
z
" style="fill:#1f77b4;opacity:0.5;"/>
    </g>
    <g id="text_41">
     <!-- MeanAbsoluteError -->
     <g transform="translate(693.375 64.7275)scale(0.16 -0.16)">
      <defs>
       <path d="M 738 331 
L 738 4531 
L 184 4531 
L 184 4863 
L 1313 4863 
L 1313 2803 
Q 1481 3116 1742 3264 
Q 2003 3413 2388 3413 
Q 3000 3413 3387 2928 
Q 3775 2444 3775 1663 
Q 3775 881 3387 395 
Q 3000 -91 2388 -91 
Q 2003 -91 1742 57 
Q 1481 206 1313 519 
L 1313 0 
L 184 0 
L 184 331 
L 738 331 
z
M 1313 1497 
Q 1313 897 1542 583 
Q 1772 269 2209 269 
Q 2650 269 2876 622 
Q 3103 975 3103 1663 
Q 3103 2353 2876 2703 
Q 2650 3053 2209 3053 
Q 1772 3053 1542 2737 
Q 1313 2422 1313 1825 
L 1313 1497 
z
" id="DejaVuSerif-62" transform="scale(0.015625)"/>
       <path d="M 353 0 
L 353 331 
L 947 331 
L 947 4331 
L 353 4331 
L 353 4666 
L 4109 4666 
L 4109 3628 
L 3725 3628 
L 3725 4281 
L 1581 4281 
L 1581 2719 
L 3109 2719 
L 3109 3303 
L 3494 3303 
L 3494 1753 
L 3109 1753 
L 3109 2338 
L 1581 2338 
L 1581 384 
L 3775 384 
L 3775 1038 
L 4159 1038 
L 4159 0 
L 353 0 
z
" id="DejaVuSerif-45" transform="scale(0.015625)"/>
      </defs>
      <use xlink:href="#DejaVuSerif-4d"/>
      <use x="102.392578" xlink:href="#DejaVuSerif-65"/>
      <use x="161.572266" xlink:href="#DejaVuSerif-61"/>
      <use x="221.191406" xlink:href="#DejaVuSerif-6e"/>
      <use x="285.595703" xlink:href="#DejaVuSerif-41"/>
      <use x="357.8125" xlink:href="#DejaVuSerif-62"/>
      <use x="421.826172" xlink:href="#DejaVuSerif-73"/>
      <use x="473.144531" xlink:href="#DejaVuSerif-6f"/>
      <use x="533.349609" xlink:href="#DejaVuSerif-6c"/>
      <use x="565.332031" xlink:href="#DejaVuSerif-75"/>
      <use x="629.736328" xlink:href="#DejaVuSerif-74"/>
      <use x="669.921875" xlink:href="#DejaVuSerif-65"/>
      <use x="729.101562" xlink:href="#DejaVuSerif-45"/>
      <use x="802.099609" xlink:href="#DejaVuSerif-72"/>
      <use x="849.902344" xlink:href="#DejaVuSerif-72"/>
      <use x="897.705078" xlink:href="#DejaVuSerif-6f"/>
      <use x="957.910156" xlink:href="#DejaVuSerif-72"/>
     </g>
    </g>
    <g id="patch_30">
     <path d="M 648.575 88.2125 
L 680.575 88.2125 
L 680.575 77.0125 
L 648.575 77.0125 
z
" style="fill:#ff7f0e;opacity:0.5;"/>
    </g>
    <g id="text_42">
     <!-- MeanSquaredError -->
     <g transform="translate(693.375 88.2125)scale(0.16 -0.16)">
      <defs>
       <path d="M 3359 2988 
L 3359 -997 
L 3909 -997 
L 3909 -1331 
L 2241 -1331 
L 2241 -997 
L 2784 -997 
L 2784 519 
Q 2616 206 2355 57 
Q 2094 -91 1709 -91 
Q 1097 -91 708 395 
Q 319 881 319 1663 
Q 319 2444 706 2928 
Q 1094 3413 1709 3413 
Q 2094 3413 2355 3264 
Q 2616 3116 2784 2803 
L 2784 3322 
L 3909 3322 
L 3909 2988 
L 3359 2988 
z
M 2784 1825 
Q 2784 2422 2554 2737 
Q 2325 3053 1888 3053 
Q 1444 3053 1217 2703 
Q 991 2353 991 1663 
Q 991 975 1217 622 
Q 1444 269 1888 269 
Q 2325 269 2554 583 
Q 2784 897 2784 1497 
L 2784 1825 
z
" id="DejaVuSerif-71" transform="scale(0.015625)"/>
      </defs>
      <use xlink:href="#DejaVuSerif-4d"/>
      <use x="102.392578" xlink:href="#DejaVuSerif-65"/>
      <use x="161.572266" xlink:href="#DejaVuSerif-61"/>
      <use x="221.191406" xlink:href="#DejaVuSerif-6e"/>
      <use x="285.595703" xlink:href="#DejaVuSerif-53"/>
      <use x="354.101562" xlink:href="#DejaVuSerif-71"/>
      <use x="418.115234" xlink:href="#DejaVuSerif-75"/>
      <use x="482.519531" xlink:href="#DejaVuSerif-61"/>
      <use x="542.138672" xlink:href="#DejaVuSerif-72"/>
      <use x="589.941406" xlink:href="#DejaVuSerif-65"/>
      <use x="649.121094" xlink:href="#DejaVuSerif-64"/>
      <use x="713.134766" xlink:href="#DejaVuSerif-45"/>
      <use x="786.132812" xlink:href="#DejaVuSerif-72"/>
      <use x="833.935547" xlink:href="#DejaVuSerif-72"/>
      <use x="881.738281" xlink:href="#DejaVuSerif-6f"/>
      <use x="941.943359" xlink:href="#DejaVuSerif-72"/>
     </g>
    </g>
    <g id="patch_31">
     <path d="M 648.575 111.6975 
L 680.575 111.6975 
L 680.575 100.4975 
L 648.575 100.4975 
z
" style="fill:#2ca02c;opacity:0.5;"/>
    </g>
    <g id="text_43">
     <!-- RootMeanSquaredError -->
     <g transform="translate(693.375 111.6975)scale(0.16 -0.16)">
      <defs>
       <path d="M 3066 2316 
Q 3284 2256 3442 2114 
Q 3600 1972 3725 1716 
L 4403 331 
L 4972 331 
L 4972 0 
L 3872 0 
L 3144 1484 
Q 2934 1916 2759 2042 
Q 2584 2169 2278 2169 
L 1581 2169 
L 1581 331 
L 2241 331 
L 2241 0 
L 353 0 
L 353 331 
L 947 331 
L 947 4331 
L 353 4331 
L 353 4666 
L 2719 4666 
Q 3400 4666 3770 4341 
Q 4141 4016 4141 3419 
Q 4141 2938 3870 2661 
Q 3600 2384 3066 2316 
z
M 1581 2503 
L 2503 2503 
Q 2975 2503 3200 2726 
Q 3425 2950 3425 3419 
Q 3425 3888 3200 4109 
Q 2975 4331 2503 4331 
L 1581 4331 
L 1581 2503 
z
" id="DejaVuSerif-52" transform="scale(0.015625)"/>
      </defs>
      <use xlink:href="#DejaVuSerif-52"/>
      <use x="75.292969" xlink:href="#DejaVuSerif-6f"/>
      <use x="135.498047" xlink:href="#DejaVuSerif-6f"/>
      <use x="195.703125" xlink:href="#DejaVuSerif-74"/>
      <use x="235.888672" xlink:href="#DejaVuSerif-4d"/>
      <use x="338.28125" xlink:href="#DejaVuSerif-65"/>
      <use x="397.460938" xlink:href="#DejaVuSerif-61"/>
      <use x="457.080078" xlink:href="#DejaVuSerif-6e"/>
      <use x="521.484375" xlink:href="#DejaVuSerif-53"/>
      <use x="589.990234" xlink:href="#DejaVuSerif-71"/>
      <use x="654.003906" xlink:href="#DejaVuSerif-75"/>
      <use x="718.408203" xlink:href="#DejaVuSerif-61"/>
      <use x="778.027344" xlink:href="#DejaVuSerif-72"/>
      <use x="825.830078" xlink:href="#DejaVuSerif-65"/>
      <use x="885.009766" xlink:href="#DejaVuSerif-64"/>
      <use x="949.023438" xlink:href="#DejaVuSerif-45"/>
      <use x="1022.021484" xlink:href="#DejaVuSerif-72"/>
      <use x="1069.824219" xlink:href="#DejaVuSerif-72"/>
      <use x="1117.626953" xlink:href="#DejaVuSerif-6f"/>
      <use x="1177.832031" xlink:href="#DejaVuSerif-72"/>
     </g>
    </g>
   </g>
  </g>
 </g>
 <defs>
  <clipPath id="p1102263935">
   <rect height="443.52" width="837" x="66.8775" y="38.17"/>
  </clipPath>
 </defs>
</svg>
