<?xml version="1.0" encoding="utf-8" standalone="no"?>
<!DOCTYPE svg PUBLIC "-//W3C//DTD SVG 1.1//EN"
  "http://www.w3.org/Graphics/SVG/1.1/DTD/svg11.dtd">
<svg height="542.815pt" version="1.1" viewBox="0 0 930.15875 542.815" width="930.15875pt" xmlns="http://www.w3.org/2000/svg" xmlns:xlink="http://www.w3.org/1999/xlink">
 <metadata>
  <rdf:RDF xmlns:cc="http://creativecommons.org/ns#" xmlns:dc="http://purl.org/dc/elements/1.1/" xmlns:rdf="http://www.w3.org/1999/02/22-rdf-syntax-ns#">
   <cc:Work>
    <dc:type rdf:resource="http://purl.org/dc/dcmitype/StillImage"/>
    <dc:date>2021-12-02T20:19:45.853431</dc:date>
    <dc:format>image/svg+xml</dc:format>
    <dc:creator>
     <cc:Agent>
      <dc:title>Matplotlib v3.4.2, https://matplotlib.org/</dc:title>
     </cc:Agent>
    </dc:creator>
   </cc:Work>
  </rdf:RDF>
 </metadata>
 <defs>
  <style type="text/css">*{stroke-linecap:butt;stroke-linejoin:round;}</style>
 </defs>
 <g id="figure_1">
  <g id="patch_1">
   <path d="M 0 542.815 
L 930.15875 542.815 
L 930.15875 0 
L 0 0 
z
" style="fill:#ffffff;"/>
  </g>
  <g id="axes_1">
   <g id="patch_2">
    <path d="M 85.95875 481.69 
L 922.95875 481.69 
L 922.95875 38.17 
L 85.95875 38.17 
z
" style="fill:#ffffff;"/>
   </g>
   <g id="patch_3">
    <path clip-path="url(#p2c675b7555)" d="M 124.004205 481.69 
L 147.062056 481.69 
L 147.062056 428.560689 
L 124.004205 428.560689 
z
" style="fill:#1f77b4;opacity:0.5;"/>
   </g>
   <g id="patch_4">
    <path clip-path="url(#p2c675b7555)" d="M 239.293461 481.69 
L 262.351312 481.69 
L 262.351312 427.698102 
L 239.293461 427.698102 
z
" style="fill:#1f77b4;opacity:0.5;"/>
   </g>
   <g id="patch_5">
    <path clip-path="url(#p2c675b7555)" d="M 354.582717 481.69 
L 377.640568 481.69 
L 377.640568 427.295531 
L 354.582717 427.295531 
z
" style="fill:#1f77b4;opacity:0.5;"/>
   </g>
   <g id="patch_6">
    <path clip-path="url(#p2c675b7555)" d="M 469.871973 481.69 
L 492.929824 481.69 
L 492.929824 426.818823 
L 469.871973 426.818823 
z
" style="fill:#1f77b4;opacity:0.5;"/>
   </g>
   <g id="patch_7">
    <path clip-path="url(#p2c675b7555)" d="M 585.161229 481.69 
L 608.219081 481.69 
L 608.219081 426.340768 
L 585.161229 426.340768 
z
" style="fill:#1f77b4;opacity:0.5;"/>
   </g>
   <g id="patch_8">
    <path clip-path="url(#p2c675b7555)" d="M 700.450486 481.69 
L 723.508337 481.69 
L 723.508337 425.879951 
L 700.450486 425.879951 
z
" style="fill:#1f77b4;opacity:0.5;"/>
   </g>
   <g id="patch_9">
    <path clip-path="url(#p2c675b7555)" d="M 815.739742 481.69 
L 838.797593 481.69 
L 838.797593 425.29138 
L 815.739742 425.29138 
z
" style="fill:#1f77b4;opacity:0.5;"/>
   </g>
   <g id="patch_10">
    <path clip-path="url(#p2c675b7555)" d="M 147.062056 481.69 
L 170.119907 481.69 
L 170.119907 212.459989 
L 147.062056 212.459989 
z
" style="fill:#ff7f0e;opacity:0.5;"/>
   </g>
   <g id="patch_11">
    <path clip-path="url(#p2c675b7555)" d="M 262.351312 481.69 
L 285.409163 481.69 
L 285.409163 204.356111 
L 262.351312 204.356111 
z
" style="fill:#ff7f0e;opacity:0.5;"/>
   </g>
   <g id="patch_12">
    <path clip-path="url(#p2c675b7555)" d="M 377.640568 481.69 
L 400.698419 481.69 
L 400.698419 200.021813 
L 377.640568 200.021813 
z
" style="fill:#ff7f0e;opacity:0.5;"/>
   </g>
   <g id="patch_13">
    <path clip-path="url(#p2c675b7555)" d="M 492.929824 481.69 
L 515.987676 481.69 
L 515.987676 195.345166 
L 492.929824 195.345166 
z
" style="fill:#ff7f0e;opacity:0.5;"/>
   </g>
   <g id="patch_14">
    <path clip-path="url(#p2c675b7555)" d="M 608.219081 481.69 
L 631.276932 481.69 
L 631.276932 190.157282 
L 608.219081 190.157282 
z
" style="fill:#ff7f0e;opacity:0.5;"/>
   </g>
   <g id="patch_15">
    <path clip-path="url(#p2c675b7555)" d="M 723.508337 481.69 
L 746.566188 481.69 
L 746.566188 184.872708 
L 723.508337 184.872708 
z
" style="fill:#ff7f0e;opacity:0.5;"/>
   </g>
   <g id="patch_16">
    <path clip-path="url(#p2c675b7555)" d="M 838.797593 481.69 
L 861.855444 481.69 
L 861.855444 178.97829 
L 838.797593 178.97829 
z
" style="fill:#ff7f0e;opacity:0.5;"/>
   </g>
   <g id="patch_17">
    <path clip-path="url(#p2c675b7555)" d="M 170.119907 481.69 
L 193.177758 481.69 
L 193.177758 410.319433 
L 170.119907 410.319433 
z
" style="fill:#2ca02c;opacity:0.5;"/>
   </g>
   <g id="patch_18">
    <path clip-path="url(#p2c675b7555)" d="M 285.409163 481.69 
L 308.467014 481.69 
L 308.467014 408.779438 
L 285.409163 408.779438 
z
" style="fill:#2ca02c;opacity:0.5;"/>
   </g>
   <g id="patch_19">
    <path clip-path="url(#p2c675b7555)" d="M 400.698419 481.69 
L 423.756271 481.69 
L 423.756271 408.045 
L 400.698419 408.045 
z
" style="fill:#2ca02c;opacity:0.5;"/>
   </g>
   <g id="patch_20">
    <path clip-path="url(#p2c675b7555)" d="M 515.987676 481.69 
L 539.045527 481.69 
L 539.045527 407.285849 
L 515.987676 407.285849 
z
" style="fill:#2ca02c;opacity:0.5;"/>
   </g>
   <g id="patch_21">
    <path clip-path="url(#p2c675b7555)" d="M 631.276932 481.69 
L 654.334783 481.69 
L 654.334783 406.490023 
L 631.276932 406.490023 
z
" style="fill:#2ca02c;opacity:0.5;"/>
   </g>
   <g id="patch_22">
    <path clip-path="url(#p2c675b7555)" d="M 746.566188 481.69 
L 769.624039 481.69 
L 769.624039 405.703327 
L 746.566188 405.703327 
z
" style="fill:#2ca02c;opacity:0.5;"/>
   </g>
   <g id="patch_23">
    <path clip-path="url(#p2c675b7555)" d="M 861.855444 481.69 
L 884.913295 481.69 
L 884.913295 404.806377 
L 861.855444 404.806377 
z
" style="fill:#2ca02c;opacity:0.5;"/>
   </g>
   <g id="matplotlib.axis_1">
    <g id="xtick_1">
     <g id="line2d_1">
      <defs>
       <path d="M 0 0 
L 0 3.5 
" id="me459d39a6e" style="stroke:#000000;stroke-width:0.8;"/>
      </defs>
      <g>
       <use style="stroke:#000000;stroke-width:0.8;" x="158.590981" xlink:href="#me459d39a6e" y="481.69"/>
      </g>
     </g>
     <g id="text_1">
      <!-- 1 -->
      <g transform="translate(152.228481 503.886875)scale(0.2 -0.2)">
       <defs>
        <path d="M 909 0 
L 909 331 
L 1722 331 
L 1722 4213 
L 781 3603 
L 781 4013 
L 1919 4750 
L 2350 4750 
L 2350 331 
L 3163 331 
L 3163 0 
L 909 0 
z
" id="DejaVuSerif-31" transform="scale(0.015625)"/>
       </defs>
       <use xlink:href="#DejaVuSerif-31"/>
      </g>
     </g>
    </g>
    <g id="xtick_2">
     <g id="line2d_2">
      <g>
       <use style="stroke:#000000;stroke-width:0.8;" x="273.880238" xlink:href="#me459d39a6e" y="481.69"/>
      </g>
     </g>
     <g id="text_2">
      <!-- 2 -->
      <g transform="translate(267.517738 503.886875)scale(0.2 -0.2)">
       <defs>
        <path d="M 819 3553 
L 469 3553 
L 469 4384 
Q 803 4563 1142 4656 
Q 1481 4750 1806 4750 
Q 2534 4750 2956 4397 
Q 3378 4044 3378 3438 
Q 3378 2753 2422 1800 
Q 2347 1728 2309 1691 
L 1131 513 
L 3078 513 
L 3078 1088 
L 3444 1088 
L 3444 0 
L 434 0 
L 434 341 
L 1850 1753 
Q 2319 2222 2519 2614 
Q 2719 3006 2719 3438 
Q 2719 3909 2473 4175 
Q 2228 4441 1797 4441 
Q 1350 4441 1106 4219 
Q 863 3997 819 3553 
z
" id="DejaVuSerif-32" transform="scale(0.015625)"/>
       </defs>
       <use xlink:href="#DejaVuSerif-32"/>
      </g>
     </g>
    </g>
    <g id="xtick_3">
     <g id="line2d_3">
      <g>
       <use style="stroke:#000000;stroke-width:0.8;" x="389.169494" xlink:href="#me459d39a6e" y="481.69"/>
      </g>
     </g>
     <g id="text_3">
      <!-- 3 -->
      <g transform="translate(382.806994 503.886875)scale(0.2 -0.2)">
       <defs>
        <path d="M 622 4469 
Q 988 4606 1323 4678 
Q 1659 4750 1953 4750 
Q 2638 4750 3022 4454 
Q 3406 4159 3406 3634 
Q 3406 3213 3140 2930 
Q 2875 2647 2388 2547 
Q 2963 2466 3280 2130 
Q 3597 1794 3597 1259 
Q 3597 606 3158 257 
Q 2719 -91 1894 -91 
Q 1528 -91 1179 -12 
Q 831 66 488 225 
L 488 1131 
L 838 1131 
Q 869 681 1141 450 
Q 1413 219 1906 219 
Q 2384 219 2661 495 
Q 2938 772 2938 1253 
Q 2938 1803 2653 2086 
Q 2369 2369 1819 2369 
L 1522 2369 
L 1522 2688 
L 1678 2688 
Q 2225 2688 2498 2914 
Q 2772 3141 2772 3597 
Q 2772 4006 2547 4223 
Q 2322 4441 1900 4441 
Q 1478 4441 1245 4241 
Q 1013 4041 972 3647 
L 622 3647 
L 622 4469 
z
" id="DejaVuSerif-33" transform="scale(0.015625)"/>
       </defs>
       <use xlink:href="#DejaVuSerif-33"/>
      </g>
     </g>
    </g>
    <g id="xtick_4">
     <g id="line2d_4">
      <g>
       <use style="stroke:#000000;stroke-width:0.8;" x="504.45875" xlink:href="#me459d39a6e" y="481.69"/>
      </g>
     </g>
     <g id="text_4">
      <!-- 4 -->
      <g transform="translate(498.09625 503.886875)scale(0.2 -0.2)">
       <defs>
        <path d="M 2234 1581 
L 2234 4063 
L 641 1581 
L 2234 1581 
z
M 3609 0 
L 1484 0 
L 1484 331 
L 2234 331 
L 2234 1247 
L 197 1247 
L 197 1588 
L 2241 4750 
L 2859 4750 
L 2859 1581 
L 3750 1581 
L 3750 1247 
L 2859 1247 
L 2859 331 
L 3609 331 
L 3609 0 
z
" id="DejaVuSerif-34" transform="scale(0.015625)"/>
       </defs>
       <use xlink:href="#DejaVuSerif-34"/>
      </g>
     </g>
    </g>
    <g id="xtick_5">
     <g id="line2d_5">
      <g>
       <use style="stroke:#000000;stroke-width:0.8;" x="619.748006" xlink:href="#me459d39a6e" y="481.69"/>
      </g>
     </g>
     <g id="text_5">
      <!-- 5 -->
      <g transform="translate(613.385506 503.886875)scale(0.2 -0.2)">
       <defs>
        <path d="M 3219 4666 
L 3219 4153 
L 1081 4153 
L 1081 2816 
Q 1244 2928 1461 2984 
Q 1678 3041 1947 3041 
Q 2703 3041 3140 2622 
Q 3578 2203 3578 1478 
Q 3578 738 3136 323 
Q 2694 -91 1894 -91 
Q 1572 -91 1234 -12 
Q 897 66 544 225 
L 544 1131 
L 897 1131 
Q 925 688 1179 453 
Q 1434 219 1894 219 
Q 2388 219 2653 544 
Q 2919 869 2919 1478 
Q 2919 2084 2655 2407 
Q 2391 2731 1894 2731 
Q 1613 2731 1398 2631 
Q 1184 2531 1019 2322 
L 750 2322 
L 750 4666 
L 3219 4666 
z
" id="DejaVuSerif-35" transform="scale(0.015625)"/>
       </defs>
       <use xlink:href="#DejaVuSerif-35"/>
      </g>
     </g>
    </g>
    <g id="xtick_6">
     <g id="line2d_6">
      <g>
       <use style="stroke:#000000;stroke-width:0.8;" x="735.037262" xlink:href="#me459d39a6e" y="481.69"/>
      </g>
     </g>
     <g id="text_6">
      <!-- 6 -->
      <g transform="translate(728.674762 503.886875)scale(0.2 -0.2)">
       <defs>
        <path d="M 2094 219 
Q 2534 219 2771 542 
Q 3009 866 3009 1472 
Q 3009 2078 2771 2401 
Q 2534 2725 2094 2725 
Q 1647 2725 1412 2412 
Q 1178 2100 1178 1509 
Q 1178 888 1415 553 
Q 1653 219 2094 219 
z
M 1075 2569 
Q 1288 2803 1556 2918 
Q 1825 3034 2163 3034 
Q 2859 3034 3264 2615 
Q 3669 2197 3669 1472 
Q 3669 763 3233 336 
Q 2797 -91 2069 -91 
Q 1278 -91 853 498 
Q 428 1088 428 2181 
Q 428 3406 931 4078 
Q 1434 4750 2350 4750 
Q 2597 4750 2869 4703 
Q 3141 4656 3425 4563 
L 3425 3794 
L 3072 3794 
Q 3034 4109 2831 4275 
Q 2628 4441 2284 4441 
Q 1678 4441 1381 3981 
Q 1084 3522 1075 2569 
z
" id="DejaVuSerif-36" transform="scale(0.015625)"/>
       </defs>
       <use xlink:href="#DejaVuSerif-36"/>
      </g>
     </g>
    </g>
    <g id="xtick_7">
     <g id="line2d_7">
      <g>
       <use style="stroke:#000000;stroke-width:0.8;" x="850.326519" xlink:href="#me459d39a6e" y="481.69"/>
      </g>
     </g>
     <g id="text_7">
      <!-- 7 -->
      <g transform="translate(843.964019 503.886875)scale(0.2 -0.2)">
       <defs>
        <path d="M 3609 4347 
L 1784 0 
L 1319 0 
L 3059 4153 
L 903 4153 
L 903 3578 
L 538 3578 
L 538 4666 
L 3609 4666 
L 3609 4347 
z
" id="DejaVuSerif-37" transform="scale(0.015625)"/>
       </defs>
       <use xlink:href="#DejaVuSerif-37"/>
      </g>
     </g>
    </g>
    <g id="text_8">
     <!-- Days in the Future -->
     <g transform="translate(390.63875 530.2825)scale(0.24 -0.24)">
      <defs>
       <path d="M 1581 331 
L 2163 331 
Q 3072 331 3558 850 
Q 4044 1369 4044 2338 
Q 4044 3306 3559 3818 
Q 3075 4331 2163 4331 
L 1581 4331 
L 1581 331 
z
M 353 0 
L 353 331 
L 947 331 
L 947 4331 
L 353 4331 
L 353 4666 
L 2209 4666 
Q 3416 4666 4089 4050 
Q 4763 3434 4763 2338 
Q 4763 1238 4088 619 
Q 3413 0 2209 0 
L 353 0 
z
" id="DejaVuSerif-44" transform="scale(0.015625)"/>
       <path d="M 2547 1044 
L 2547 1747 
L 1806 1747 
Q 1378 1747 1168 1562 
Q 959 1378 959 997 
Q 959 650 1171 447 
Q 1384 244 1747 244 
Q 2106 244 2326 466 
Q 2547 688 2547 1044 
z
M 3122 2075 
L 3122 331 
L 3634 331 
L 3634 0 
L 2547 0 
L 2547 359 
Q 2356 128 2106 18 
Q 1856 -91 1522 -91 
Q 969 -91 644 203 
Q 319 497 319 997 
Q 319 1513 691 1797 
Q 1063 2081 1741 2081 
L 2547 2081 
L 2547 2309 
Q 2547 2688 2317 2895 
Q 2088 3103 1672 3103 
Q 1328 3103 1125 2947 
Q 922 2791 872 2484 
L 575 2484 
L 575 3156 
Q 875 3284 1158 3348 
Q 1441 3413 1709 3413 
Q 2400 3413 2761 3070 
Q 3122 2728 3122 2075 
z
" id="DejaVuSerif-61" transform="scale(0.015625)"/>
       <path d="M 1381 -609 
L 1600 -56 
L 359 2988 
L -19 2988 
L -19 3322 
L 1509 3322 
L 1509 2988 
L 978 2988 
L 1913 703 
L 2847 2988 
L 2350 2988 
L 2350 3322 
L 3597 3322 
L 3597 2988 
L 3225 2988 
L 1703 -750 
Q 1547 -1138 1356 -1280 
Q 1166 -1422 819 -1422 
Q 672 -1422 517 -1397 
Q 363 -1372 206 -1325 
L 206 -691 
L 500 -691 
Q 519 -903 608 -995 
Q 697 -1088 884 -1088 
Q 1056 -1088 1161 -992 
Q 1266 -897 1381 -609 
z
" id="DejaVuSerif-79" transform="scale(0.015625)"/>
       <path d="M 359 184 
L 359 959 
L 691 959 
Q 703 588 923 403 
Q 1144 219 1575 219 
Q 1963 219 2166 364 
Q 2369 509 2369 788 
Q 2369 1006 2220 1140 
Q 2072 1275 1594 1428 
L 1178 1569 
Q 750 1706 558 1912 
Q 366 2119 366 2438 
Q 366 2894 700 3153 
Q 1034 3413 1625 3413 
Q 1888 3413 2178 3344 
Q 2469 3275 2778 3144 
L 2778 2419 
L 2447 2419 
Q 2434 2741 2221 2922 
Q 2009 3103 1644 3103 
Q 1281 3103 1095 2975 
Q 909 2847 909 2591 
Q 909 2381 1050 2254 
Q 1191 2128 1613 1997 
L 2069 1856 
Q 2541 1709 2748 1489 
Q 2956 1269 2956 922 
Q 2956 450 2595 179 
Q 2234 -91 1600 -91 
Q 1278 -91 972 -22 
Q 666 47 359 184 
z
" id="DejaVuSerif-73" transform="scale(0.015625)"/>
       <path id="DejaVuSerif-20" transform="scale(0.015625)"/>
       <path d="M 622 4353 
Q 622 4497 726 4603 
Q 831 4709 978 4709 
Q 1122 4709 1226 4603 
Q 1331 4497 1331 4353 
Q 1331 4206 1228 4103 
Q 1125 4000 978 4000 
Q 831 4000 726 4103 
Q 622 4206 622 4353 
z
M 1356 331 
L 1900 331 
L 1900 0 
L 231 0 
L 231 331 
L 781 331 
L 781 2988 
L 231 2988 
L 231 3322 
L 1356 3322 
L 1356 331 
z
" id="DejaVuSerif-69" transform="scale(0.015625)"/>
       <path d="M 263 0 
L 263 331 
L 781 331 
L 781 2988 
L 231 2988 
L 231 3322 
L 1356 3322 
L 1356 2731 
Q 1516 3069 1770 3241 
Q 2025 3413 2363 3413 
Q 2913 3413 3172 3097 
Q 3431 2781 3431 2113 
L 3431 331 
L 3944 331 
L 3944 0 
L 2356 0 
L 2356 331 
L 2853 331 
L 2853 1931 
Q 2853 2541 2703 2767 
Q 2553 2994 2175 2994 
Q 1775 2994 1565 2701 
Q 1356 2409 1356 1850 
L 1356 331 
L 1856 331 
L 1856 0 
L 263 0 
z
" id="DejaVuSerif-6e" transform="scale(0.015625)"/>
       <path d="M 691 2988 
L 184 2988 
L 184 3322 
L 691 3322 
L 691 4353 
L 1269 4353 
L 1269 3322 
L 2350 3322 
L 2350 2988 
L 1269 2988 
L 1269 878 
Q 1269 456 1350 337 
Q 1431 219 1650 219 
Q 1875 219 1978 351 
Q 2081 484 2088 781 
L 2522 781 
Q 2497 328 2275 118 
Q 2053 -91 1600 -91 
Q 1103 -91 897 129 
Q 691 350 691 878 
L 691 2988 
z
" id="DejaVuSerif-74" transform="scale(0.015625)"/>
       <path d="M 263 0 
L 263 331 
L 781 331 
L 781 4531 
L 231 4531 
L 231 4863 
L 1356 4863 
L 1356 2731 
Q 1516 3069 1770 3241 
Q 2025 3413 2363 3413 
Q 2913 3413 3172 3097 
Q 3431 2781 3431 2113 
L 3431 331 
L 3944 331 
L 3944 0 
L 2356 0 
L 2356 331 
L 2853 331 
L 2853 1931 
Q 2853 2541 2704 2764 
Q 2556 2988 2175 2988 
Q 1775 2988 1565 2697 
Q 1356 2406 1356 1850 
L 1356 331 
L 1856 331 
L 1856 0 
L 263 0 
z
" id="DejaVuSerif-68" transform="scale(0.015625)"/>
       <path d="M 3469 1600 
L 991 1600 
L 991 1575 
Q 991 903 1244 561 
Q 1497 219 1991 219 
Q 2369 219 2611 417 
Q 2853 616 2950 1006 
L 3413 1006 
Q 3275 459 2904 184 
Q 2534 -91 1931 -91 
Q 1203 -91 761 389 
Q 319 869 319 1663 
Q 319 2450 753 2931 
Q 1188 3413 1894 3413 
Q 2647 3413 3050 2948 
Q 3453 2484 3469 1600 
z
M 2791 1931 
Q 2772 2513 2545 2808 
Q 2319 3103 1894 3103 
Q 1497 3103 1269 2806 
Q 1041 2509 991 1931 
L 2791 1931 
z
" id="DejaVuSerif-65" transform="scale(0.015625)"/>
       <path d="M 353 0 
L 353 331 
L 947 331 
L 947 4331 
L 353 4331 
L 353 4666 
L 4172 4666 
L 4172 3628 
L 3788 3628 
L 3788 4281 
L 1581 4281 
L 1581 2719 
L 3175 2719 
L 3175 3303 
L 3559 3303 
L 3559 1753 
L 3175 1753 
L 3175 2338 
L 1581 2338 
L 1581 331 
L 2328 331 
L 2328 0 
L 353 0 
z
" id="DejaVuSerif-46" transform="scale(0.015625)"/>
       <path d="M 2266 3322 
L 3341 3322 
L 3341 331 
L 3884 331 
L 3884 0 
L 2766 0 
L 2766 588 
Q 2606 256 2353 82 
Q 2100 -91 1766 -91 
Q 1213 -91 952 223 
Q 691 538 691 1209 
L 691 2988 
L 172 2988 
L 172 3322 
L 1269 3322 
L 1269 1388 
Q 1269 781 1417 556 
Q 1566 331 1947 331 
Q 2347 331 2556 625 
Q 2766 919 2766 1478 
L 2766 2988 
L 2266 2988 
L 2266 3322 
z
" id="DejaVuSerif-75" transform="scale(0.015625)"/>
       <path d="M 3059 3328 
L 3059 2497 
L 2728 2497 
Q 2713 2744 2591 2866 
Q 2469 2988 2234 2988 
Q 1809 2988 1582 2694 
Q 1356 2400 1356 1850 
L 1356 331 
L 2022 331 
L 2022 0 
L 263 0 
L 263 331 
L 781 331 
L 781 2994 
L 231 2994 
L 231 3322 
L 1356 3322 
L 1356 2731 
Q 1525 3078 1790 3245 
Q 2056 3413 2438 3413 
Q 2578 3413 2733 3391 
Q 2888 3369 3059 3328 
z
" id="DejaVuSerif-72" transform="scale(0.015625)"/>
      </defs>
      <use xlink:href="#DejaVuSerif-44"/>
      <use x="80.175781" xlink:href="#DejaVuSerif-61"/>
      <use x="139.794922" xlink:href="#DejaVuSerif-79"/>
      <use x="196.289062" xlink:href="#DejaVuSerif-73"/>
      <use x="247.607422" xlink:href="#DejaVuSerif-20"/>
      <use x="279.394531" xlink:href="#DejaVuSerif-69"/>
      <use x="311.376953" xlink:href="#DejaVuSerif-6e"/>
      <use x="375.78125" xlink:href="#DejaVuSerif-20"/>
      <use x="407.568359" xlink:href="#DejaVuSerif-74"/>
      <use x="447.753906" xlink:href="#DejaVuSerif-68"/>
      <use x="512.158203" xlink:href="#DejaVuSerif-65"/>
      <use x="571.337891" xlink:href="#DejaVuSerif-20"/>
      <use x="603.125" xlink:href="#DejaVuSerif-46"/>
      <use x="672.509766" xlink:href="#DejaVuSerif-75"/>
      <use x="736.914062" xlink:href="#DejaVuSerif-74"/>
      <use x="777.099609" xlink:href="#DejaVuSerif-75"/>
      <use x="841.503906" xlink:href="#DejaVuSerif-72"/>
      <use x="889.306641" xlink:href="#DejaVuSerif-65"/>
     </g>
    </g>
   </g>
   <g id="matplotlib.axis_2">
    <g id="ytick_1">
     <g id="line2d_8">
      <path clip-path="url(#p2c675b7555)" d="M 85.95875 481.69 
L 922.95875 481.69 
" style="fill:none;stroke:#b0b0b0;stroke-linecap:square;stroke-width:0.8;"/>
     </g>
     <g id="line2d_9">
      <defs>
       <path d="M 0 0 
L -3.5 0 
" id="m6e602009e6" style="stroke:#000000;stroke-width:0.8;"/>
      </defs>
      <g>
       <use style="stroke:#000000;stroke-width:0.8;" x="85.95875" xlink:href="#m6e602009e6" y="481.69"/>
      </g>
     </g>
     <g id="text_9">
      <!-- 0.0 -->
      <g transform="translate(47.1525 489.288437)scale(0.2 -0.2)">
       <defs>
        <path d="M 2034 219 
Q 2513 219 2750 744 
Q 2988 1269 2988 2328 
Q 2988 3391 2750 3916 
Q 2513 4441 2034 4441 
Q 1556 4441 1318 3916 
Q 1081 3391 1081 2328 
Q 1081 1269 1318 744 
Q 1556 219 2034 219 
z
M 2034 -91 
Q 1275 -91 848 546 
Q 422 1184 422 2328 
Q 422 3475 848 4112 
Q 1275 4750 2034 4750 
Q 2797 4750 3222 4112 
Q 3647 3475 3647 2328 
Q 3647 1184 3222 546 
Q 2797 -91 2034 -91 
z
" id="DejaVuSerif-30" transform="scale(0.015625)"/>
        <path d="M 603 325 
Q 603 500 722 622 
Q 841 744 1019 744 
Q 1191 744 1312 622 
Q 1434 500 1434 325 
Q 1434 153 1312 31 
Q 1191 -91 1019 -91 
Q 841 -91 722 29 
Q 603 150 603 325 
z
" id="DejaVuSerif-2e" transform="scale(0.015625)"/>
       </defs>
       <use xlink:href="#DejaVuSerif-30"/>
       <use x="63.623047" xlink:href="#DejaVuSerif-2e"/>
       <use x="95.410156" xlink:href="#DejaVuSerif-30"/>
      </g>
     </g>
    </g>
    <g id="ytick_2">
     <g id="line2d_10">
      <path clip-path="url(#p2c675b7555)" d="M 85.95875 431.840958 
L 922.95875 431.840958 
" style="fill:none;stroke:#b0b0b0;stroke-linecap:square;stroke-width:0.8;"/>
     </g>
     <g id="line2d_11">
      <g>
       <use style="stroke:#000000;stroke-width:0.8;" x="85.95875" xlink:href="#m6e602009e6" y="431.840958"/>
      </g>
     </g>
     <g id="text_10">
      <!-- 2.5 -->
      <g transform="translate(47.1525 439.439396)scale(0.2 -0.2)">
       <use xlink:href="#DejaVuSerif-32"/>
       <use x="63.623047" xlink:href="#DejaVuSerif-2e"/>
       <use x="95.410156" xlink:href="#DejaVuSerif-35"/>
      </g>
     </g>
    </g>
    <g id="ytick_3">
     <g id="line2d_12">
      <path clip-path="url(#p2c675b7555)" d="M 85.95875 381.991916 
L 922.95875 381.991916 
" style="fill:none;stroke:#b0b0b0;stroke-linecap:square;stroke-width:0.8;"/>
     </g>
     <g id="line2d_13">
      <g>
       <use style="stroke:#000000;stroke-width:0.8;" x="85.95875" xlink:href="#m6e602009e6" y="381.991916"/>
      </g>
     </g>
     <g id="text_11">
      <!-- 5.0 -->
      <g transform="translate(47.1525 389.590354)scale(0.2 -0.2)">
       <use xlink:href="#DejaVuSerif-35"/>
       <use x="63.623047" xlink:href="#DejaVuSerif-2e"/>
       <use x="95.410156" xlink:href="#DejaVuSerif-30"/>
      </g>
     </g>
    </g>
    <g id="ytick_4">
     <g id="line2d_14">
      <path clip-path="url(#p2c675b7555)" d="M 85.95875 332.142874 
L 922.95875 332.142874 
" style="fill:none;stroke:#b0b0b0;stroke-linecap:square;stroke-width:0.8;"/>
     </g>
     <g id="line2d_15">
      <g>
       <use style="stroke:#000000;stroke-width:0.8;" x="85.95875" xlink:href="#m6e602009e6" y="332.142874"/>
      </g>
     </g>
     <g id="text_12">
      <!-- 7.5 -->
      <g transform="translate(47.1525 339.741312)scale(0.2 -0.2)">
       <use xlink:href="#DejaVuSerif-37"/>
       <use x="63.623047" xlink:href="#DejaVuSerif-2e"/>
       <use x="95.410156" xlink:href="#DejaVuSerif-35"/>
      </g>
     </g>
    </g>
    <g id="ytick_5">
     <g id="line2d_16">
      <path clip-path="url(#p2c675b7555)" d="M 85.95875 282.293833 
L 922.95875 282.293833 
" style="fill:none;stroke:#b0b0b0;stroke-linecap:square;stroke-width:0.8;"/>
     </g>
     <g id="line2d_17">
      <g>
       <use style="stroke:#000000;stroke-width:0.8;" x="85.95875" xlink:href="#m6e602009e6" y="282.293833"/>
      </g>
     </g>
     <g id="text_13">
      <!-- 10.0 -->
      <g transform="translate(34.4275 289.89227)scale(0.2 -0.2)">
       <use xlink:href="#DejaVuSerif-31"/>
       <use x="63.623047" xlink:href="#DejaVuSerif-30"/>
       <use x="127.246094" xlink:href="#DejaVuSerif-2e"/>
       <use x="159.033203" xlink:href="#DejaVuSerif-30"/>
      </g>
     </g>
    </g>
    <g id="ytick_6">
     <g id="line2d_18">
      <path clip-path="url(#p2c675b7555)" d="M 85.95875 232.444791 
L 922.95875 232.444791 
" style="fill:none;stroke:#b0b0b0;stroke-linecap:square;stroke-width:0.8;"/>
     </g>
     <g id="line2d_19">
      <g>
       <use style="stroke:#000000;stroke-width:0.8;" x="85.95875" xlink:href="#m6e602009e6" y="232.444791"/>
      </g>
     </g>
     <g id="text_14">
      <!-- 12.5 -->
      <g transform="translate(34.4275 240.043228)scale(0.2 -0.2)">
       <use xlink:href="#DejaVuSerif-31"/>
       <use x="63.623047" xlink:href="#DejaVuSerif-32"/>
       <use x="127.246094" xlink:href="#DejaVuSerif-2e"/>
       <use x="159.033203" xlink:href="#DejaVuSerif-35"/>
      </g>
     </g>
    </g>
    <g id="ytick_7">
     <g id="line2d_20">
      <path clip-path="url(#p2c675b7555)" d="M 85.95875 182.595749 
L 922.95875 182.595749 
" style="fill:none;stroke:#b0b0b0;stroke-linecap:square;stroke-width:0.8;"/>
     </g>
     <g id="line2d_21">
      <g>
       <use style="stroke:#000000;stroke-width:0.8;" x="85.95875" xlink:href="#m6e602009e6" y="182.595749"/>
      </g>
     </g>
     <g id="text_15">
      <!-- 15.0 -->
      <g transform="translate(34.4275 190.194186)scale(0.2 -0.2)">
       <use xlink:href="#DejaVuSerif-31"/>
       <use x="63.623047" xlink:href="#DejaVuSerif-35"/>
       <use x="127.246094" xlink:href="#DejaVuSerif-2e"/>
       <use x="159.033203" xlink:href="#DejaVuSerif-30"/>
      </g>
     </g>
    </g>
    <g id="ytick_8">
     <g id="line2d_22">
      <path clip-path="url(#p2c675b7555)" d="M 85.95875 132.746707 
L 922.95875 132.746707 
" style="fill:none;stroke:#b0b0b0;stroke-linecap:square;stroke-width:0.8;"/>
     </g>
     <g id="line2d_23">
      <g>
       <use style="stroke:#000000;stroke-width:0.8;" x="85.95875" xlink:href="#m6e602009e6" y="132.746707"/>
      </g>
     </g>
     <g id="text_16">
      <!-- 17.5 -->
      <g transform="translate(34.4275 140.345144)scale(0.2 -0.2)">
       <use xlink:href="#DejaVuSerif-31"/>
       <use x="63.623047" xlink:href="#DejaVuSerif-37"/>
       <use x="127.246094" xlink:href="#DejaVuSerif-2e"/>
       <use x="159.033203" xlink:href="#DejaVuSerif-35"/>
      </g>
     </g>
    </g>
    <g id="ytick_9">
     <g id="line2d_24">
      <path clip-path="url(#p2c675b7555)" d="M 85.95875 82.897665 
L 922.95875 82.897665 
" style="fill:none;stroke:#b0b0b0;stroke-linecap:square;stroke-width:0.8;"/>
     </g>
     <g id="line2d_25">
      <g>
       <use style="stroke:#000000;stroke-width:0.8;" x="85.95875" xlink:href="#m6e602009e6" y="82.897665"/>
      </g>
     </g>
     <g id="text_17">
      <!-- 20.0 -->
      <g transform="translate(34.4275 90.496103)scale(0.2 -0.2)">
       <use xlink:href="#DejaVuSerif-32"/>
       <use x="63.623047" xlink:href="#DejaVuSerif-30"/>
       <use x="127.246094" xlink:href="#DejaVuSerif-2e"/>
       <use x="159.033203" xlink:href="#DejaVuSerif-30"/>
      </g>
     </g>
    </g>
    <g id="text_18">
     <!-- Predicted Air Temperature (K) -->
     <g transform="translate(25.43625 445.31875)rotate(-90)scale(0.24 -0.24)">
      <defs>
       <path d="M 1581 2375 
L 2406 2375 
Q 2872 2375 3115 2626 
Q 3359 2878 3359 3353 
Q 3359 3831 3115 4081 
Q 2872 4331 2406 4331 
L 1581 4331 
L 1581 2375 
z
M 353 0 
L 353 331 
L 947 331 
L 947 4331 
L 353 4331 
L 353 4666 
L 2559 4666 
Q 3259 4666 3668 4311 
Q 4078 3956 4078 3353 
Q 4078 2753 3668 2397 
Q 3259 2041 2559 2041 
L 1581 2041 
L 1581 331 
L 2303 331 
L 2303 0 
L 353 0 
z
" id="DejaVuSerif-50" transform="scale(0.015625)"/>
       <path d="M 3359 331 
L 3909 331 
L 3909 0 
L 2784 0 
L 2784 519 
Q 2616 206 2355 57 
Q 2094 -91 1709 -91 
Q 1097 -91 708 395 
Q 319 881 319 1663 
Q 319 2444 706 2928 
Q 1094 3413 1709 3413 
Q 2094 3413 2355 3264 
Q 2616 3116 2784 2803 
L 2784 4531 
L 2241 4531 
L 2241 4863 
L 3359 4863 
L 3359 331 
z
M 2784 1497 
L 2784 1825 
Q 2784 2422 2554 2737 
Q 2325 3053 1888 3053 
Q 1444 3053 1217 2703 
Q 991 2353 991 1663 
Q 991 975 1217 622 
Q 1444 269 1888 269 
Q 2325 269 2554 583 
Q 2784 897 2784 1497 
z
" id="DejaVuSerif-64" transform="scale(0.015625)"/>
       <path d="M 3291 997 
Q 3169 466 2822 187 
Q 2475 -91 1925 -91 
Q 1200 -91 759 389 
Q 319 869 319 1663 
Q 319 2459 759 2936 
Q 1200 3413 1925 3413 
Q 2241 3413 2553 3339 
Q 2866 3266 3181 3116 
L 3181 2266 
L 2847 2266 
Q 2781 2703 2561 2903 
Q 2341 3103 1931 3103 
Q 1466 3103 1228 2742 
Q 991 2381 991 1663 
Q 991 944 1227 581 
Q 1463 219 1931 219 
Q 2303 219 2525 412 
Q 2747 606 2828 997 
L 3291 997 
z
" id="DejaVuSerif-63" transform="scale(0.015625)"/>
       <path d="M 1281 1691 
L 2994 1691 
L 2138 3909 
L 1281 1691 
z
M -38 0 
L -38 331 
L 372 331 
L 2034 4666 
L 2559 4666 
L 4225 331 
L 4684 331 
L 4684 0 
L 2988 0 
L 2988 331 
L 3506 331 
L 3116 1356 
L 1153 1356 
L 763 331 
L 1275 331 
L 1275 0 
L -38 0 
z
" id="DejaVuSerif-41" transform="scale(0.015625)"/>
       <path d="M 1222 0 
L 1222 331 
L 1819 331 
L 1819 4294 
L 447 4294 
L 447 3566 
L 63 3566 
L 63 4666 
L 4206 4666 
L 4206 3566 
L 3822 3566 
L 3822 4294 
L 2450 4294 
L 2450 331 
L 3047 331 
L 3047 0 
L 1222 0 
z
" id="DejaVuSerif-54" transform="scale(0.015625)"/>
       <path d="M 3316 2675 
Q 3481 3041 3739 3227 
Q 3997 3413 4341 3413 
Q 4863 3413 5119 3089 
Q 5375 2766 5375 2113 
L 5375 331 
L 5894 331 
L 5894 0 
L 4300 0 
L 4300 331 
L 4800 331 
L 4800 2047 
Q 4800 2556 4650 2772 
Q 4500 2988 4153 2988 
Q 3769 2988 3567 2697 
Q 3366 2406 3366 1850 
L 3366 331 
L 3866 331 
L 3866 0 
L 2291 0 
L 2291 331 
L 2791 331 
L 2791 2069 
Q 2791 2566 2641 2777 
Q 2491 2988 2144 2988 
Q 1759 2988 1557 2697 
Q 1356 2406 1356 1850 
L 1356 331 
L 1856 331 
L 1856 0 
L 263 0 
L 263 331 
L 781 331 
L 781 2994 
L 231 2994 
L 231 3322 
L 1356 3322 
L 1356 2731 
Q 1516 3063 1762 3238 
Q 2009 3413 2322 3413 
Q 2709 3413 2968 3220 
Q 3228 3028 3316 2675 
z
" id="DejaVuSerif-6d" transform="scale(0.015625)"/>
       <path d="M 1313 1825 
L 1313 1497 
Q 1313 897 1542 583 
Q 1772 269 2209 269 
Q 2650 269 2876 622 
Q 3103 975 3103 1663 
Q 3103 2353 2876 2703 
Q 2650 3053 2209 3053 
Q 1772 3053 1542 2737 
Q 1313 2422 1313 1825 
z
M 738 2988 
L 184 2988 
L 184 3322 
L 1313 3322 
L 1313 2803 
Q 1481 3116 1742 3264 
Q 2003 3413 2388 3413 
Q 3000 3413 3387 2928 
Q 3775 2444 3775 1663 
Q 3775 881 3387 395 
Q 3000 -91 2388 -91 
Q 2003 -91 1742 57 
Q 1481 206 1313 519 
L 1313 -997 
L 1856 -997 
L 1856 -1331 
L 184 -1331 
L 184 -997 
L 738 -997 
L 738 2988 
z
" id="DejaVuSerif-70" transform="scale(0.015625)"/>
       <path d="M 2041 -997 
Q 1281 -656 893 83 
Q 506 822 506 1931 
Q 506 3044 893 3783 
Q 1281 4522 2041 4863 
L 2041 4556 
Q 1559 4225 1350 3623 
Q 1141 3022 1141 1931 
Q 1141 844 1350 242 
Q 1559 -359 2041 -691 
L 2041 -997 
z
" id="DejaVuSerif-28" transform="scale(0.015625)"/>
       <path d="M 353 0 
L 353 331 
L 947 331 
L 947 4331 
L 353 4331 
L 353 4666 
L 2175 4666 
L 2175 4331 
L 1581 4331 
L 1581 2566 
L 3591 4331 
L 3084 4331 
L 3084 4666 
L 4634 4666 
L 4634 4331 
L 4109 4331 
L 2106 2572 
L 4347 331 
L 4878 331 
L 4878 0 
L 3794 0 
L 1581 2216 
L 1581 331 
L 2175 331 
L 2175 0 
L 353 0 
z
" id="DejaVuSerif-4b" transform="scale(0.015625)"/>
       <path d="M 453 -997 
L 453 -691 
Q 934 -359 1145 242 
Q 1356 844 1356 1931 
Q 1356 3022 1145 3623 
Q 934 4225 453 4556 
L 453 4863 
Q 1216 4522 1603 3783 
Q 1991 3044 1991 1931 
Q 1991 822 1603 83 
Q 1216 -656 453 -997 
z
" id="DejaVuSerif-29" transform="scale(0.015625)"/>
      </defs>
      <use xlink:href="#DejaVuSerif-50"/>
      <use x="67.285156" xlink:href="#DejaVuSerif-72"/>
      <use x="115.087891" xlink:href="#DejaVuSerif-65"/>
      <use x="174.267578" xlink:href="#DejaVuSerif-64"/>
      <use x="238.28125" xlink:href="#DejaVuSerif-69"/>
      <use x="270.263672" xlink:href="#DejaVuSerif-63"/>
      <use x="326.269531" xlink:href="#DejaVuSerif-74"/>
      <use x="366.455078" xlink:href="#DejaVuSerif-65"/>
      <use x="425.634766" xlink:href="#DejaVuSerif-64"/>
      <use x="489.648438" xlink:href="#DejaVuSerif-20"/>
      <use x="521.435547" xlink:href="#DejaVuSerif-41"/>
      <use x="593.652344" xlink:href="#DejaVuSerif-69"/>
      <use x="625.634766" xlink:href="#DejaVuSerif-72"/>
      <use x="673.4375" xlink:href="#DejaVuSerif-20"/>
      <use x="705.224609" xlink:href="#DejaVuSerif-54"/>
      <use x="764.173828" xlink:href="#DejaVuSerif-65"/>
      <use x="823.353516" xlink:href="#DejaVuSerif-6d"/>
      <use x="918.177734" xlink:href="#DejaVuSerif-70"/>
      <use x="982.191406" xlink:href="#DejaVuSerif-65"/>
      <use x="1041.371094" xlink:href="#DejaVuSerif-72"/>
      <use x="1089.173828" xlink:href="#DejaVuSerif-61"/>
      <use x="1148.792969" xlink:href="#DejaVuSerif-74"/>
      <use x="1188.978516" xlink:href="#DejaVuSerif-75"/>
      <use x="1253.382812" xlink:href="#DejaVuSerif-72"/>
      <use x="1301.185547" xlink:href="#DejaVuSerif-65"/>
      <use x="1360.365234" xlink:href="#DejaVuSerif-20"/>
      <use x="1392.152344" xlink:href="#DejaVuSerif-28"/>
      <use x="1431.166016" xlink:href="#DejaVuSerif-4b"/>
      <use x="1505.873047" xlink:href="#DejaVuSerif-29"/>
     </g>
    </g>
   </g>
   <g id="LineCollection_1">
    <path clip-path="url(#p2c675b7555)" d="M 135.53313 441.335631 
L 135.53313 415.785747 
" style="fill:none;stroke:#000000;stroke-width:1.5;"/>
    <path clip-path="url(#p2c675b7555)" d="M 250.822386 438.843347 
L 250.822386 416.552857 
" style="fill:none;stroke:#000000;stroke-width:1.5;"/>
    <path clip-path="url(#p2c675b7555)" d="M 366.111643 437.825351 
L 366.111643 416.76571 
" style="fill:none;stroke:#000000;stroke-width:1.5;"/>
    <path clip-path="url(#p2c675b7555)" d="M 481.400899 436.659903 
L 481.400899 416.977744 
" style="fill:none;stroke:#000000;stroke-width:1.5;"/>
    <path clip-path="url(#p2c675b7555)" d="M 596.690155 435.631089 
L 596.690155 417.050447 
" style="fill:none;stroke:#000000;stroke-width:1.5;"/>
    <path clip-path="url(#p2c675b7555)" d="M 711.979411 434.598827 
L 711.979411 417.161076 
" style="fill:none;stroke:#000000;stroke-width:1.5;"/>
    <path clip-path="url(#p2c675b7555)" d="M 827.268667 433.163417 
L 827.268667 417.419343 
" style="fill:none;stroke:#000000;stroke-width:1.5;"/>
   </g>
   <g id="LineCollection_2">
    <path clip-path="url(#p2c675b7555)" d="M 158.590981 365.629978 
L 158.590981 59.29 
" style="fill:none;stroke:#000000;stroke-width:1.5;"/>
    <path clip-path="url(#p2c675b7555)" d="M 273.880238 343.52119 
L 273.880238 65.191032 
" style="fill:none;stroke:#000000;stroke-width:1.5;"/>
    <path clip-path="url(#p2c675b7555)" d="M 389.169494 332.666141 
L 389.169494 67.377485 
" style="fill:none;stroke:#000000;stroke-width:1.5;"/>
    <path clip-path="url(#p2c675b7555)" d="M 504.45875 321.358993 
L 504.45875 69.331338 
" style="fill:none;stroke:#000000;stroke-width:1.5;"/>
    <path clip-path="url(#p2c675b7555)" d="M 619.748006 310.72076 
L 619.748006 69.593804 
" style="fill:none;stroke:#000000;stroke-width:1.5;"/>
    <path clip-path="url(#p2c675b7555)" d="M 735.037262 300.742308 
L 735.037262 69.003108 
" style="fill:none;stroke:#000000;stroke-width:1.5;"/>
    <path clip-path="url(#p2c675b7555)" d="M 850.326519 288.043786 
L 850.326519 69.912795 
" style="fill:none;stroke:#000000;stroke-width:1.5;"/>
   </g>
   <g id="LineCollection_3">
    <path clip-path="url(#p2c675b7555)" d="M 181.648833 433.323128 
L 181.648833 387.315737 
" style="fill:none;stroke:#000000;stroke-width:1.5;"/>
    <path clip-path="url(#p2c675b7555)" d="M 296.938089 429.086499 
L 296.938089 388.472376 
" style="fill:none;stroke:#000000;stroke-width:1.5;"/>
    <path clip-path="url(#p2c675b7555)" d="M 412.227345 427.319274 
L 412.227345 388.770727 
" style="fill:none;stroke:#000000;stroke-width:1.5;"/>
    <path clip-path="url(#p2c675b7555)" d="M 527.516601 425.5782 
L 527.516601 388.993497 
" style="fill:none;stroke:#000000;stroke-width:1.5;"/>
    <path clip-path="url(#p2c675b7555)" d="M 642.805857 423.940466 
L 642.805857 389.039579 
" style="fill:none;stroke:#000000;stroke-width:1.5;"/>
    <path clip-path="url(#p2c675b7555)" d="M 758.095114 422.387916 
L 758.095114 389.018739 
" style="fill:none;stroke:#000000;stroke-width:1.5;"/>
    <path clip-path="url(#p2c675b7555)" d="M 873.38437 420.318716 
L 873.38437 389.294037 
" style="fill:none;stroke:#000000;stroke-width:1.5;"/>
   </g>
   <g id="line2d_26">
    <defs>
     <path d="M 10 0 
L -10 -0 
" id="mf5fc367e92" style="stroke:#000000;"/>
    </defs>
    <g clip-path="url(#p2c675b7555)">
     <use style="stroke:#000000;" x="135.53313" xlink:href="#mf5fc367e92" y="441.335631"/>
     <use style="stroke:#000000;" x="250.822386" xlink:href="#mf5fc367e92" y="438.843347"/>
     <use style="stroke:#000000;" x="366.111643" xlink:href="#mf5fc367e92" y="437.825351"/>
     <use style="stroke:#000000;" x="481.400899" xlink:href="#mf5fc367e92" y="436.659903"/>
     <use style="stroke:#000000;" x="596.690155" xlink:href="#mf5fc367e92" y="435.631089"/>
     <use style="stroke:#000000;" x="711.979411" xlink:href="#mf5fc367e92" y="434.598827"/>
     <use style="stroke:#000000;" x="827.268667" xlink:href="#mf5fc367e92" y="433.163417"/>
    </g>
   </g>
   <g id="line2d_27">
    <g clip-path="url(#p2c675b7555)">
     <use style="stroke:#000000;" x="135.53313" xlink:href="#mf5fc367e92" y="415.785747"/>
     <use style="stroke:#000000;" x="250.822386" xlink:href="#mf5fc367e92" y="416.552857"/>
     <use style="stroke:#000000;" x="366.111643" xlink:href="#mf5fc367e92" y="416.76571"/>
     <use style="stroke:#000000;" x="481.400899" xlink:href="#mf5fc367e92" y="416.977744"/>
     <use style="stroke:#000000;" x="596.690155" xlink:href="#mf5fc367e92" y="417.050447"/>
     <use style="stroke:#000000;" x="711.979411" xlink:href="#mf5fc367e92" y="417.161076"/>
     <use style="stroke:#000000;" x="827.268667" xlink:href="#mf5fc367e92" y="417.419343"/>
    </g>
   </g>
   <g id="line2d_28">
    <g clip-path="url(#p2c675b7555)">
     <use style="stroke:#000000;" x="158.590981" xlink:href="#mf5fc367e92" y="365.629978"/>
     <use style="stroke:#000000;" x="273.880238" xlink:href="#mf5fc367e92" y="343.52119"/>
     <use style="stroke:#000000;" x="389.169494" xlink:href="#mf5fc367e92" y="332.666141"/>
     <use style="stroke:#000000;" x="504.45875" xlink:href="#mf5fc367e92" y="321.358993"/>
     <use style="stroke:#000000;" x="619.748006" xlink:href="#mf5fc367e92" y="310.72076"/>
     <use style="stroke:#000000;" x="735.037262" xlink:href="#mf5fc367e92" y="300.742308"/>
     <use style="stroke:#000000;" x="850.326519" xlink:href="#mf5fc367e92" y="288.043786"/>
    </g>
   </g>
   <g id="line2d_29">
    <g clip-path="url(#p2c675b7555)">
     <use style="stroke:#000000;" x="158.590981" xlink:href="#mf5fc367e92" y="59.29"/>
     <use style="stroke:#000000;" x="273.880238" xlink:href="#mf5fc367e92" y="65.191032"/>
     <use style="stroke:#000000;" x="389.169494" xlink:href="#mf5fc367e92" y="67.377485"/>
     <use style="stroke:#000000;" x="504.45875" xlink:href="#mf5fc367e92" y="69.331338"/>
     <use style="stroke:#000000;" x="619.748006" xlink:href="#mf5fc367e92" y="69.593804"/>
     <use style="stroke:#000000;" x="735.037262" xlink:href="#mf5fc367e92" y="69.003108"/>
     <use style="stroke:#000000;" x="850.326519" xlink:href="#mf5fc367e92" y="69.912795"/>
    </g>
   </g>
   <g id="line2d_30">
    <g clip-path="url(#p2c675b7555)">
     <use style="stroke:#000000;" x="181.648833" xlink:href="#mf5fc367e92" y="433.323128"/>
     <use style="stroke:#000000;" x="296.938089" xlink:href="#mf5fc367e92" y="429.086499"/>
     <use style="stroke:#000000;" x="412.227345" xlink:href="#mf5fc367e92" y="427.319274"/>
     <use style="stroke:#000000;" x="527.516601" xlink:href="#mf5fc367e92" y="425.5782"/>
     <use style="stroke:#000000;" x="642.805857" xlink:href="#mf5fc367e92" y="423.940466"/>
     <use style="stroke:#000000;" x="758.095114" xlink:href="#mf5fc367e92" y="422.387916"/>
     <use style="stroke:#000000;" x="873.38437" xlink:href="#mf5fc367e92" y="420.318716"/>
    </g>
   </g>
   <g id="line2d_31">
    <g clip-path="url(#p2c675b7555)">
     <use style="stroke:#000000;" x="181.648833" xlink:href="#mf5fc367e92" y="387.315737"/>
     <use style="stroke:#000000;" x="296.938089" xlink:href="#mf5fc367e92" y="388.472376"/>
     <use style="stroke:#000000;" x="412.227345" xlink:href="#mf5fc367e92" y="388.770727"/>
     <use style="stroke:#000000;" x="527.516601" xlink:href="#mf5fc367e92" y="388.993497"/>
     <use style="stroke:#000000;" x="642.805857" xlink:href="#mf5fc367e92" y="389.039579"/>
     <use style="stroke:#000000;" x="758.095114" xlink:href="#mf5fc367e92" y="389.018739"/>
     <use style="stroke:#000000;" x="873.38437" xlink:href="#mf5fc367e92" y="389.294037"/>
    </g>
   </g>
   <g id="patch_24">
    <path d="M 85.95875 481.69 
L 85.95875 38.17 
" style="fill:none;stroke:#000000;stroke-linecap:square;stroke-linejoin:miter;stroke-width:0.8;"/>
   </g>
   <g id="patch_25">
    <path d="M 922.95875 481.69 
L 922.95875 38.17 
" style="fill:none;stroke:#000000;stroke-linecap:square;stroke-linejoin:miter;stroke-width:0.8;"/>
   </g>
   <g id="patch_26">
    <path d="M 85.95875 481.69 
L 922.95875 481.69 
" style="fill:none;stroke:#000000;stroke-linecap:square;stroke-linejoin:miter;stroke-width:0.8;"/>
   </g>
   <g id="patch_27">
    <path d="M 85.95875 38.17 
L 922.95875 38.17 
" style="fill:none;stroke:#000000;stroke-linecap:square;stroke-linejoin:miter;stroke-width:0.8;"/>
   </g>
   <g id="text_19">
    <!-- 2.66 -->
    <g transform="translate(88.379205 425.233189)scale(0.16 -0.16)">
     <use xlink:href="#DejaVuSerif-32"/>
     <use x="63.623047" xlink:href="#DejaVuSerif-2e"/>
     <use x="95.410156" xlink:href="#DejaVuSerif-36"/>
     <use x="159.033203" xlink:href="#DejaVuSerif-36"/>
    </g>
   </g>
   <g id="text_20">
    <!-- 2.71 -->
    <g transform="translate(203.668461 424.370602)scale(0.16 -0.16)">
     <use xlink:href="#DejaVuSerif-32"/>
     <use x="63.623047" xlink:href="#DejaVuSerif-2e"/>
     <use x="95.410156" xlink:href="#DejaVuSerif-37"/>
     <use x="159.033203" xlink:href="#DejaVuSerif-31"/>
    </g>
   </g>
   <g id="text_21">
    <!-- 2.73 -->
    <g transform="translate(318.957717 423.968031)scale(0.16 -0.16)">
     <use xlink:href="#DejaVuSerif-32"/>
     <use x="63.623047" xlink:href="#DejaVuSerif-2e"/>
     <use x="95.410156" xlink:href="#DejaVuSerif-37"/>
     <use x="159.033203" xlink:href="#DejaVuSerif-33"/>
    </g>
   </g>
   <g id="text_22">
    <!-- 2.75 -->
    <g transform="translate(434.246973 423.491323)scale(0.16 -0.16)">
     <use xlink:href="#DejaVuSerif-32"/>
     <use x="63.623047" xlink:href="#DejaVuSerif-2e"/>
     <use x="95.410156" xlink:href="#DejaVuSerif-37"/>
     <use x="159.033203" xlink:href="#DejaVuSerif-35"/>
    </g>
   </g>
   <g id="text_23">
    <!-- 2.78 -->
    <g transform="translate(549.536229 423.013268)scale(0.16 -0.16)">
     <defs>
      <path d="M 2981 1275 
Q 2981 1775 2732 2051 
Q 2484 2328 2034 2328 
Q 1584 2328 1336 2051 
Q 1088 1775 1088 1275 
Q 1088 772 1336 495 
Q 1584 219 2034 219 
Q 2484 219 2732 495 
Q 2981 772 2981 1275 
z
M 2853 3541 
Q 2853 3966 2637 4203 
Q 2422 4441 2034 4441 
Q 1650 4441 1433 4203 
Q 1216 3966 1216 3541 
Q 1216 3113 1433 2875 
Q 1650 2638 2034 2638 
Q 2422 2638 2637 2875 
Q 2853 3113 2853 3541 
z
M 2516 2484 
Q 3047 2413 3344 2092 
Q 3641 1772 3641 1275 
Q 3641 619 3225 264 
Q 2809 -91 2034 -91 
Q 1263 -91 845 264 
Q 428 619 428 1275 
Q 428 1772 725 2092 
Q 1022 2413 1556 2484 
Q 1084 2569 832 2842 
Q 581 3116 581 3541 
Q 581 4103 968 4426 
Q 1356 4750 2034 4750 
Q 2713 4750 3100 4426 
Q 3488 4103 3488 3541 
Q 3488 3116 3236 2842 
Q 2984 2569 2516 2484 
z
" id="DejaVuSerif-38" transform="scale(0.015625)"/>
     </defs>
     <use xlink:href="#DejaVuSerif-32"/>
     <use x="63.623047" xlink:href="#DejaVuSerif-2e"/>
     <use x="95.410156" xlink:href="#DejaVuSerif-37"/>
     <use x="159.033203" xlink:href="#DejaVuSerif-38"/>
    </g>
   </g>
   <g id="text_24">
    <!-- 2.8 -->
    <g transform="translate(675.005486 422.552451)scale(0.16 -0.16)">
     <use xlink:href="#DejaVuSerif-32"/>
     <use x="63.623047" xlink:href="#DejaVuSerif-2e"/>
     <use x="95.410156" xlink:href="#DejaVuSerif-38"/>
    </g>
   </g>
   <g id="text_25">
    <!-- 2.83 -->
    <g transform="translate(780.114742 421.96388)scale(0.16 -0.16)">
     <use xlink:href="#DejaVuSerif-32"/>
     <use x="63.623047" xlink:href="#DejaVuSerif-2e"/>
     <use x="95.410156" xlink:href="#DejaVuSerif-38"/>
     <use x="159.033203" xlink:href="#DejaVuSerif-33"/>
    </g>
   </g>
   <g id="text_26">
    <!-- 13.5 -->
    <g transform="translate(111.437056 209.132489)scale(0.16 -0.16)">
     <use xlink:href="#DejaVuSerif-31"/>
     <use x="63.623047" xlink:href="#DejaVuSerif-33"/>
     <use x="127.246094" xlink:href="#DejaVuSerif-2e"/>
     <use x="159.033203" xlink:href="#DejaVuSerif-35"/>
    </g>
   </g>
   <g id="text_27">
    <!-- 13.91 -->
    <g transform="translate(216.546312 201.028611)scale(0.16 -0.16)">
     <defs>
      <path d="M 2994 2091 
Q 2784 1856 2512 1740 
Q 2241 1625 1900 1625 
Q 1206 1625 804 2044 
Q 403 2463 403 3188 
Q 403 3897 839 4323 
Q 1275 4750 2003 4750 
Q 2794 4750 3217 4161 
Q 3641 3572 3641 2478 
Q 3641 1253 3137 581 
Q 2634 -91 1722 -91 
Q 1475 -91 1203 -44 
Q 931 3 647 97 
L 647 872 
L 997 872 
Q 1038 556 1241 387 
Q 1444 219 1784 219 
Q 2391 219 2687 676 
Q 2984 1134 2994 2091 
z
M 1978 4441 
Q 1534 4441 1298 4117 
Q 1063 3794 1063 3188 
Q 1063 2581 1298 2256 
Q 1534 1931 1978 1931 
Q 2422 1931 2658 2245 
Q 2894 2559 2894 3150 
Q 2894 3772 2656 4106 
Q 2419 4441 1978 4441 
z
" id="DejaVuSerif-39" transform="scale(0.015625)"/>
     </defs>
     <use xlink:href="#DejaVuSerif-31"/>
     <use x="63.623047" xlink:href="#DejaVuSerif-33"/>
     <use x="127.246094" xlink:href="#DejaVuSerif-2e"/>
     <use x="159.033203" xlink:href="#DejaVuSerif-39"/>
     <use x="222.65625" xlink:href="#DejaVuSerif-31"/>
    </g>
   </g>
   <g id="text_28">
    <!-- 14.13 -->
    <g transform="translate(331.835568 196.694313)scale(0.16 -0.16)">
     <use xlink:href="#DejaVuSerif-31"/>
     <use x="63.623047" xlink:href="#DejaVuSerif-34"/>
     <use x="127.246094" xlink:href="#DejaVuSerif-2e"/>
     <use x="159.033203" xlink:href="#DejaVuSerif-31"/>
     <use x="222.65625" xlink:href="#DejaVuSerif-33"/>
    </g>
   </g>
   <g id="text_29">
    <!-- 14.36 -->
    <g transform="translate(447.124824 192.017666)scale(0.16 -0.16)">
     <use xlink:href="#DejaVuSerif-31"/>
     <use x="63.623047" xlink:href="#DejaVuSerif-34"/>
     <use x="127.246094" xlink:href="#DejaVuSerif-2e"/>
     <use x="159.033203" xlink:href="#DejaVuSerif-33"/>
     <use x="222.65625" xlink:href="#DejaVuSerif-36"/>
    </g>
   </g>
   <g id="text_30">
    <!-- 14.62 -->
    <g transform="translate(562.414081 186.829782)scale(0.16 -0.16)">
     <use xlink:href="#DejaVuSerif-31"/>
     <use x="63.623047" xlink:href="#DejaVuSerif-34"/>
     <use x="127.246094" xlink:href="#DejaVuSerif-2e"/>
     <use x="159.033203" xlink:href="#DejaVuSerif-36"/>
     <use x="222.65625" xlink:href="#DejaVuSerif-32"/>
    </g>
   </g>
   <g id="text_31">
    <!-- 14.89 -->
    <g transform="translate(677.703337 181.545208)scale(0.16 -0.16)">
     <use xlink:href="#DejaVuSerif-31"/>
     <use x="63.623047" xlink:href="#DejaVuSerif-34"/>
     <use x="127.246094" xlink:href="#DejaVuSerif-2e"/>
     <use x="159.033203" xlink:href="#DejaVuSerif-38"/>
     <use x="222.65625" xlink:href="#DejaVuSerif-39"/>
    </g>
   </g>
   <g id="text_32">
    <!-- 15.18 -->
    <g transform="translate(792.992593 175.65079)scale(0.16 -0.16)">
     <use xlink:href="#DejaVuSerif-31"/>
     <use x="63.623047" xlink:href="#DejaVuSerif-35"/>
     <use x="127.246094" xlink:href="#DejaVuSerif-2e"/>
     <use x="159.033203" xlink:href="#DejaVuSerif-31"/>
     <use x="222.65625" xlink:href="#DejaVuSerif-38"/>
    </g>
   </g>
   <g id="text_33">
    <!-- 3.58 -->
    <g transform="translate(134.494907 406.991933)scale(0.16 -0.16)">
     <use xlink:href="#DejaVuSerif-33"/>
     <use x="63.623047" xlink:href="#DejaVuSerif-2e"/>
     <use x="95.410156" xlink:href="#DejaVuSerif-35"/>
     <use x="159.033203" xlink:href="#DejaVuSerif-38"/>
    </g>
   </g>
   <g id="text_34">
    <!-- 3.66 -->
    <g transform="translate(249.784163 405.451938)scale(0.16 -0.16)">
     <use xlink:href="#DejaVuSerif-33"/>
     <use x="63.623047" xlink:href="#DejaVuSerif-2e"/>
     <use x="95.410156" xlink:href="#DejaVuSerif-36"/>
     <use x="159.033203" xlink:href="#DejaVuSerif-36"/>
    </g>
   </g>
   <g id="text_35">
    <!-- 3.69 -->
    <g transform="translate(365.073419 404.7175)scale(0.16 -0.16)">
     <use xlink:href="#DejaVuSerif-33"/>
     <use x="63.623047" xlink:href="#DejaVuSerif-2e"/>
     <use x="95.410156" xlink:href="#DejaVuSerif-36"/>
     <use x="159.033203" xlink:href="#DejaVuSerif-39"/>
    </g>
   </g>
   <g id="text_36">
    <!-- 3.73 -->
    <g transform="translate(480.362676 403.958349)scale(0.16 -0.16)">
     <use xlink:href="#DejaVuSerif-33"/>
     <use x="63.623047" xlink:href="#DejaVuSerif-2e"/>
     <use x="95.410156" xlink:href="#DejaVuSerif-37"/>
     <use x="159.033203" xlink:href="#DejaVuSerif-33"/>
    </g>
   </g>
   <g id="text_37">
    <!-- 3.77 -->
    <g transform="translate(595.651932 403.162523)scale(0.16 -0.16)">
     <use xlink:href="#DejaVuSerif-33"/>
     <use x="63.623047" xlink:href="#DejaVuSerif-2e"/>
     <use x="95.410156" xlink:href="#DejaVuSerif-37"/>
     <use x="159.033203" xlink:href="#DejaVuSerif-37"/>
    </g>
   </g>
   <g id="text_38">
    <!-- 3.81 -->
    <g transform="translate(710.941188 402.375827)scale(0.16 -0.16)">
     <use xlink:href="#DejaVuSerif-33"/>
     <use x="63.623047" xlink:href="#DejaVuSerif-2e"/>
     <use x="95.410156" xlink:href="#DejaVuSerif-38"/>
     <use x="159.033203" xlink:href="#DejaVuSerif-31"/>
    </g>
   </g>
   <g id="text_39">
    <!-- 3.86 -->
    <g transform="translate(826.230444 401.478877)scale(0.16 -0.16)">
     <use xlink:href="#DejaVuSerif-33"/>
     <use x="63.623047" xlink:href="#DejaVuSerif-2e"/>
     <use x="95.410156" xlink:href="#DejaVuSerif-38"/>
     <use x="159.033203" xlink:href="#DejaVuSerif-36"/>
    </g>
   </g>
   <g id="text_40">
    <!--  MLR Multi-Step Performance -->
    <g transform="translate(260.47375 31.515)scale(0.32 -0.32)">
     <defs>
      <path d="M 353 0 
L 353 331 
L 947 331 
L 947 4331 
L 319 4331 
L 319 4666 
L 1678 4666 
L 3316 1344 
L 4953 4666 
L 6228 4666 
L 6228 4331 
L 5606 4331 
L 5606 331 
L 6203 331 
L 6203 0 
L 4378 0 
L 4378 331 
L 4972 331 
L 4972 3938 
L 3372 684 
L 2931 684 
L 1331 3938 
L 1331 331 
L 1925 331 
L 1925 0 
L 353 0 
z
" id="DejaVuSerif-4d" transform="scale(0.015625)"/>
      <path d="M 353 0 
L 353 331 
L 947 331 
L 947 4331 
L 353 4331 
L 353 4666 
L 2175 4666 
L 2175 4331 
L 1581 4331 
L 1581 384 
L 3713 384 
L 3713 1166 
L 4097 1166 
L 4097 0 
L 353 0 
z
" id="DejaVuSerif-4c" transform="scale(0.015625)"/>
      <path d="M 3066 2316 
Q 3284 2256 3442 2114 
Q 3600 1972 3725 1716 
L 4403 331 
L 4972 331 
L 4972 0 
L 3872 0 
L 3144 1484 
Q 2934 1916 2759 2042 
Q 2584 2169 2278 2169 
L 1581 2169 
L 1581 331 
L 2241 331 
L 2241 0 
L 353 0 
L 353 331 
L 947 331 
L 947 4331 
L 353 4331 
L 353 4666 
L 2719 4666 
Q 3400 4666 3770 4341 
Q 4141 4016 4141 3419 
Q 4141 2938 3870 2661 
Q 3600 2384 3066 2316 
z
M 1581 2503 
L 2503 2503 
Q 2975 2503 3200 2726 
Q 3425 2950 3425 3419 
Q 3425 3888 3200 4109 
Q 2975 4331 2503 4331 
L 1581 4331 
L 1581 2503 
z
" id="DejaVuSerif-52" transform="scale(0.015625)"/>
      <path d="M 1313 331 
L 1856 331 
L 1856 0 
L 184 0 
L 184 331 
L 738 331 
L 738 4531 
L 184 4531 
L 184 4863 
L 1313 4863 
L 1313 331 
z
" id="DejaVuSerif-6c" transform="scale(0.015625)"/>
      <path d="M 281 1959 
L 1881 1959 
L 1881 1472 
L 281 1472 
L 281 1959 
z
" id="DejaVuSerif-2d" transform="scale(0.015625)"/>
      <path d="M 594 225 
L 594 1288 
L 953 1284 
Q 969 753 1261 498 
Q 1553 244 2150 244 
Q 2706 244 2998 464 
Q 3291 684 3291 1106 
Q 3291 1444 3114 1625 
Q 2938 1806 2369 1978 
L 1753 2163 
Q 1084 2366 811 2669 
Q 538 2972 538 3500 
Q 538 4094 959 4422 
Q 1381 4750 2144 4750 
Q 2469 4750 2856 4679 
Q 3244 4609 3681 4475 
L 3681 3481 
L 3328 3481 
Q 3275 3975 2998 4195 
Q 2722 4416 2156 4416 
Q 1663 4416 1405 4214 
Q 1147 4013 1147 3628 
Q 1147 3294 1340 3103 
Q 1534 2913 2163 2725 
L 2741 2553 
Q 3375 2363 3645 2067 
Q 3916 1772 3916 1275 
Q 3916 597 3481 253 
Q 3047 -91 2188 -91 
Q 1803 -91 1404 -12 
Q 1006 66 594 225 
z
" id="DejaVuSerif-53" transform="scale(0.015625)"/>
      <path d="M 2753 4078 
L 2450 4078 
Q 2447 4313 2317 4434 
Q 2188 4556 1941 4556 
Q 1619 4556 1487 4379 
Q 1356 4203 1356 3750 
L 1356 3322 
L 2284 3322 
L 2284 2988 
L 1356 2988 
L 1356 331 
L 2094 331 
L 2094 0 
L 231 0 
L 231 331 
L 781 331 
L 781 2988 
L 231 2988 
L 231 3322 
L 781 3322 
L 781 3738 
Q 781 4294 1070 4578 
Q 1359 4863 1919 4863 
Q 2128 4863 2337 4825 
Q 2547 4788 2753 4709 
L 2753 4078 
z
" id="DejaVuSerif-66" transform="scale(0.015625)"/>
      <path d="M 1925 219 
Q 2388 219 2623 584 
Q 2859 950 2859 1663 
Q 2859 2375 2623 2739 
Q 2388 3103 1925 3103 
Q 1463 3103 1227 2739 
Q 991 2375 991 1663 
Q 991 950 1228 584 
Q 1466 219 1925 219 
z
M 1925 -91 
Q 1200 -91 759 389 
Q 319 869 319 1663 
Q 319 2456 758 2934 
Q 1197 3413 1925 3413 
Q 2653 3413 3092 2934 
Q 3531 2456 3531 1663 
Q 3531 869 3092 389 
Q 2653 -91 1925 -91 
z
" id="DejaVuSerif-6f" transform="scale(0.015625)"/>
     </defs>
     <use xlink:href="#DejaVuSerif-20"/>
     <use x="31.787109" xlink:href="#DejaVuSerif-4d"/>
     <use x="134.179688" xlink:href="#DejaVuSerif-4c"/>
     <use x="200.585938" xlink:href="#DejaVuSerif-52"/>
     <use x="275.878906" xlink:href="#DejaVuSerif-20"/>
     <use x="307.666016" xlink:href="#DejaVuSerif-4d"/>
     <use x="410.058594" xlink:href="#DejaVuSerif-75"/>
     <use x="474.462891" xlink:href="#DejaVuSerif-6c"/>
     <use x="506.445312" xlink:href="#DejaVuSerif-74"/>
     <use x="546.630859" xlink:href="#DejaVuSerif-69"/>
     <use x="578.613281" xlink:href="#DejaVuSerif-2d"/>
     <use x="612.402344" xlink:href="#DejaVuSerif-53"/>
     <use x="680.908203" xlink:href="#DejaVuSerif-74"/>
     <use x="721.09375" xlink:href="#DejaVuSerif-65"/>
     <use x="780.273438" xlink:href="#DejaVuSerif-70"/>
     <use x="844.287109" xlink:href="#DejaVuSerif-20"/>
     <use x="876.074219" xlink:href="#DejaVuSerif-50"/>
     <use x="938.859375" xlink:href="#DejaVuSerif-65"/>
     <use x="998.039062" xlink:href="#DejaVuSerif-72"/>
     <use x="1045.841797" xlink:href="#DejaVuSerif-66"/>
     <use x="1082.853516" xlink:href="#DejaVuSerif-6f"/>
     <use x="1143.058594" xlink:href="#DejaVuSerif-72"/>
     <use x="1190.861328" xlink:href="#DejaVuSerif-6d"/>
     <use x="1285.685547" xlink:href="#DejaVuSerif-61"/>
     <use x="1345.304688" xlink:href="#DejaVuSerif-6e"/>
     <use x="1409.708984" xlink:href="#DejaVuSerif-63"/>
     <use x="1465.714844" xlink:href="#DejaVuSerif-65"/>
    </g>
   </g>
   <g id="legend_1">
    <g id="patch_28">
     <path d="M 664.45625 121.425 
L 911.75875 121.425 
Q 914.95875 121.425 914.95875 118.225 
L 914.95875 49.37 
Q 914.95875 46.17 911.75875 46.17 
L 664.45625 46.17 
Q 661.25625 46.17 661.25625 49.37 
L 661.25625 118.225 
Q 661.25625 121.425 664.45625 121.425 
z
" style="fill:#ffffff;opacity:0.8;stroke:#cccccc;stroke-linejoin:miter;"/>
    </g>
    <g id="patch_29">
     <path d="M 667.65625 64.7275 
L 699.65625 64.7275 
L 699.65625 53.5275 
L 667.65625 53.5275 
z
" style="fill:#1f77b4;opacity:0.5;"/>
    </g>
    <g id="text_41">
     <!-- MeanAbsoluteError -->
     <g transform="translate(712.45625 64.7275)scale(0.16 -0.16)">
      <defs>
       <path d="M 738 331 
L 738 4531 
L 184 4531 
L 184 4863 
L 1313 4863 
L 1313 2803 
Q 1481 3116 1742 3264 
Q 2003 3413 2388 3413 
Q 3000 3413 3387 2928 
Q 3775 2444 3775 1663 
Q 3775 881 3387 395 
Q 3000 -91 2388 -91 
Q 2003 -91 1742 57 
Q 1481 206 1313 519 
L 1313 0 
L 184 0 
L 184 331 
L 738 331 
z
M 1313 1497 
Q 1313 897 1542 583 
Q 1772 269 2209 269 
Q 2650 269 2876 622 
Q 3103 975 3103 1663 
Q 3103 2353 2876 2703 
Q 2650 3053 2209 3053 
Q 1772 3053 1542 2737 
Q 1313 2422 1313 1825 
L 1313 1497 
z
" id="DejaVuSerif-62" transform="scale(0.015625)"/>
       <path d="M 353 0 
L 353 331 
L 947 331 
L 947 4331 
L 353 4331 
L 353 4666 
L 4109 4666 
L 4109 3628 
L 3725 3628 
L 3725 4281 
L 1581 4281 
L 1581 2719 
L 3109 2719 
L 3109 3303 
L 3494 3303 
L 3494 1753 
L 3109 1753 
L 3109 2338 
L 1581 2338 
L 1581 384 
L 3775 384 
L 3775 1038 
L 4159 1038 
L 4159 0 
L 353 0 
z
" id="DejaVuSerif-45" transform="scale(0.015625)"/>
      </defs>
      <use xlink:href="#DejaVuSerif-4d"/>
      <use x="102.392578" xlink:href="#DejaVuSerif-65"/>
      <use x="161.572266" xlink:href="#DejaVuSerif-61"/>
      <use x="221.191406" xlink:href="#DejaVuSerif-6e"/>
      <use x="285.595703" xlink:href="#DejaVuSerif-41"/>
      <use x="357.8125" xlink:href="#DejaVuSerif-62"/>
      <use x="421.826172" xlink:href="#DejaVuSerif-73"/>
      <use x="473.144531" xlink:href="#DejaVuSerif-6f"/>
      <use x="533.349609" xlink:href="#DejaVuSerif-6c"/>
      <use x="565.332031" xlink:href="#DejaVuSerif-75"/>
      <use x="629.736328" xlink:href="#DejaVuSerif-74"/>
      <use x="669.921875" xlink:href="#DejaVuSerif-65"/>
      <use x="729.101562" xlink:href="#DejaVuSerif-45"/>
      <use x="802.099609" xlink:href="#DejaVuSerif-72"/>
      <use x="849.902344" xlink:href="#DejaVuSerif-72"/>
      <use x="897.705078" xlink:href="#DejaVuSerif-6f"/>
      <use x="957.910156" xlink:href="#DejaVuSerif-72"/>
     </g>
    </g>
    <g id="patch_30">
     <path d="M 667.65625 88.2125 
L 699.65625 88.2125 
L 699.65625 77.0125 
L 667.65625 77.0125 
z
" style="fill:#ff7f0e;opacity:0.5;"/>
    </g>
    <g id="text_42">
     <!-- MeanSquaredError -->
     <g transform="translate(712.45625 88.2125)scale(0.16 -0.16)">
      <defs>
       <path d="M 3359 2988 
L 3359 -997 
L 3909 -997 
L 3909 -1331 
L 2241 -1331 
L 2241 -997 
L 2784 -997 
L 2784 519 
Q 2616 206 2355 57 
Q 2094 -91 1709 -91 
Q 1097 -91 708 395 
Q 319 881 319 1663 
Q 319 2444 706 2928 
Q 1094 3413 1709 3413 
Q 2094 3413 2355 3264 
Q 2616 3116 2784 2803 
L 2784 3322 
L 3909 3322 
L 3909 2988 
L 3359 2988 
z
M 2784 1825 
Q 2784 2422 2554 2737 
Q 2325 3053 1888 3053 
Q 1444 3053 1217 2703 
Q 991 2353 991 1663 
Q 991 975 1217 622 
Q 1444 269 1888 269 
Q 2325 269 2554 583 
Q 2784 897 2784 1497 
L 2784 1825 
z
" id="DejaVuSerif-71" transform="scale(0.015625)"/>
      </defs>
      <use xlink:href="#DejaVuSerif-4d"/>
      <use x="102.392578" xlink:href="#DejaVuSerif-65"/>
      <use x="161.572266" xlink:href="#DejaVuSerif-61"/>
      <use x="221.191406" xlink:href="#DejaVuSerif-6e"/>
      <use x="285.595703" xlink:href="#DejaVuSerif-53"/>
      <use x="354.101562" xlink:href="#DejaVuSerif-71"/>
      <use x="418.115234" xlink:href="#DejaVuSerif-75"/>
      <use x="482.519531" xlink:href="#DejaVuSerif-61"/>
      <use x="542.138672" xlink:href="#DejaVuSerif-72"/>
      <use x="589.941406" xlink:href="#DejaVuSerif-65"/>
      <use x="649.121094" xlink:href="#DejaVuSerif-64"/>
      <use x="713.134766" xlink:href="#DejaVuSerif-45"/>
      <use x="786.132812" xlink:href="#DejaVuSerif-72"/>
      <use x="833.935547" xlink:href="#DejaVuSerif-72"/>
      <use x="881.738281" xlink:href="#DejaVuSerif-6f"/>
      <use x="941.943359" xlink:href="#DejaVuSerif-72"/>
     </g>
    </g>
    <g id="patch_31">
     <path d="M 667.65625 111.6975 
L 699.65625 111.6975 
L 699.65625 100.4975 
L 667.65625 100.4975 
z
" style="fill:#2ca02c;opacity:0.5;"/>
    </g>
    <g id="text_43">
     <!-- RootMeanSquaredError -->
     <g transform="translate(712.45625 111.6975)scale(0.16 -0.16)">
      <use xlink:href="#DejaVuSerif-52"/>
      <use x="75.292969" xlink:href="#DejaVuSerif-6f"/>
      <use x="135.498047" xlink:href="#DejaVuSerif-6f"/>
      <use x="195.703125" xlink:href="#DejaVuSerif-74"/>
      <use x="235.888672" xlink:href="#DejaVuSerif-4d"/>
      <use x="338.28125" xlink:href="#DejaVuSerif-65"/>
      <use x="397.460938" xlink:href="#DejaVuSerif-61"/>
      <use x="457.080078" xlink:href="#DejaVuSerif-6e"/>
      <use x="521.484375" xlink:href="#DejaVuSerif-53"/>
      <use x="589.990234" xlink:href="#DejaVuSerif-71"/>
      <use x="654.003906" xlink:href="#DejaVuSerif-75"/>
      <use x="718.408203" xlink:href="#DejaVuSerif-61"/>
      <use x="778.027344" xlink:href="#DejaVuSerif-72"/>
      <use x="825.830078" xlink:href="#DejaVuSerif-65"/>
      <use x="885.009766" xlink:href="#DejaVuSerif-64"/>
      <use x="949.023438" xlink:href="#DejaVuSerif-45"/>
      <use x="1022.021484" xlink:href="#DejaVuSerif-72"/>
      <use x="1069.824219" xlink:href="#DejaVuSerif-72"/>
      <use x="1117.626953" xlink:href="#DejaVuSerif-6f"/>
      <use x="1177.832031" xlink:href="#DejaVuSerif-72"/>
     </g>
    </g>
   </g>
  </g>
 </g>
 <defs>
  <clipPath id="p2c675b7555">
   <rect height="443.52" width="837" x="85.95875" y="38.17"/>
  </clipPath>
 </defs>
</svg>
